<?xml version="1.0" encoding="utf-8"?>
<!-- Generator: Adobe Illustrator 22.0.0, SVG Export Plug-In . SVG Version: 6.00 Build 0)  -->
<svg version="1.1" id="Layer_1" xmlns="http://www.w3.org/2000/svg" xmlns:xlink="http://www.w3.org/1999/xlink" x="0px" y="0px"
	 viewBox="0 0 250 76" style="enable-background:new 0 0 250 76;" xml:space="preserve">
<style type="text/css">
	.st0{fill:#111111;}
</style>
<title>logo-lan</title>
<g id="Capa_1">
	<path class="st0" d="M34.5,52.8c-9.3,0-16.8-7.5-16.8-16.8s7.5-16.8,16.8-16.8V7c-16,0-29,13-29,29s13,29,29,29s29-13,29-29H51.3
		C51.3,45.3,43.8,52.8,34.5,52.8z"/>
	<path class="st0" d="M30.7,32.4l4.3-4.2l3.5-3.4c0.6-0.6,1.4-0.8,2.2-0.6c0.8,0.2,1.4,0.9,1.5,1.7c0.1,0.7-0.1,1.3-0.6,1.8
		c-0.8,0.8-1.5,1.5-2.3,2.3L39,30.3c1.2,0.2,2,1.4,1.7,2.6c0,0.2-0.1,0.4-0.2,0.5c0.7,0.2,1.3,0.6,1.7,1.3c0.3,0.6,0.3,1.4-0.1,2
		l0.4,0.1c1.1,0.3,1.7,1.4,1.4,2.4c-0.1,0.4-0.3,0.7-0.6,1c-1.6,1.6-3.3,3.2-4.9,4.8c-1.5,1.5-3.5,2.4-5.7,2.6
		c-1.6,0.2-3.1-0.3-4.3-1.4c-0.5-0.5-1-1-1.5-1.5C25.5,43.2,25,41,25.7,39c0-0.2,0.1-0.4,0.2-0.5c0.9-2.3,0.9-4.9,0.1-7.2
		c-0.3-0.6-0.1-1.4,0.4-1.8c0.5-0.4,1.2-0.5,1.8-0.2c1.2,0.5,2.1,1.5,2.5,2.8C30.6,32.1,30.7,32.2,30.7,32.4z M26.3,40.8
		c-0.1,1.3,0.4,2.6,1.4,3.5c0.4,0.4,0.8,0.8,1.2,1.2c1,1,2.5,1.5,3.9,1.3c1.9-0.2,3.7-1.1,5.1-2.5c1.6-1.5,3.1-3,4.6-4.5
		c0.5-0.4,0.6-1.1,0.2-1.6c0-0.1-0.1-0.1-0.1-0.2c-0.5-0.5-1.2-0.5-1.7-0.1c0,0-0.1,0.1-0.1,0.1l-1.6,1.6c-0.2,0.2-0.5,0.3-0.8,0.1
		s-0.1-0.5,0.1-0.7l0.9-0.8c0.6-0.6,1.3-1.2,1.8-1.9c0.4-0.5,0.3-1.2-0.2-1.5c-0.1-0.1-0.2-0.1-0.3-0.1c-0.7-0.3-1.1-0.2-1.7,0.5
		s-1.5,1.5-2.3,2.3c-0.2,0.2-0.4,0.2-0.6,0c0,0,0,0,0,0c-0.3-0.2-0.2-0.5,0-0.7l0.3-0.3c1-1,2-2,3.1-3c0.5-0.4,0.6-1.1,0.2-1.6
		c0,0-0.1-0.1-0.1-0.1c-0.4-0.5-1.2-0.5-1.7-0.1c0,0-0.1,0.1-0.1,0.1l-0.4,0.4l-3,2.9c-0.2,0.2-0.5,0.3-0.7,0s-0.1-0.5,0.1-0.7
		c2.4-2.3,4.8-4.6,7.2-7c0.5-0.4,0.5-1.1,0.1-1.6c-0.5-0.5-1.3-0.6-1.8-0.1c0,0-0.1,0.1-0.1,0.1l-4.5,4.4c-1.2,1.2-2.5,2.4-3.7,3.6
		c-0.2,0.1-0.4,0.2-0.6,0.2c-0.1,0-0.2-0.3-0.3-0.5c0-0.3-0.1-0.7-0.2-1c-0.3-1-1.1-1.9-2.1-2.3c-0.3-0.2-0.7,0-0.9,0.3
		c-0.1,0.1-0.1,0.3,0,0.5c0,0.1,0.1,0.2,0.1,0.4c0.2,1,0.4,2,0.5,3c0,1.1,0,2.1-0.2,3.2c0,0.2-0.1,0.5-0.2,0.7
		C26.5,38.8,26.3,39.8,26.3,40.8z"/>
	<path class="st0" d="M44.1,30.3l-0.5,0.3l-0.3-0.5l0.4-0.3L44.1,30.3z"/>
	<path class="st0" d="M38.3,20.2l0.2,0.5L38.1,21l-0.3-0.5L38.3,20.2z"/>
	<path class="st0" d="M36.9,21l0.4-0.3l0.3,0.5l-0.4,0.3L36.9,21z"/>
	<path class="st0" d="M35.5,22.5l0.3-0.4l0.5,0.3L36,22.8L35.5,22.5z"/>
	<path class="st0" d="M34.8,24.5l0.1-0.5l0.6,0.1l-0.1,0.4L34.8,24.5z"/>
	<path class="st0" d="M46.4,27l-0.2,0.5l-0.5-0.2C45.7,26.7,46,26.9,46.4,27z"/>
	<path class="st0" d="M45.5,27.7l0.5,0.2l-0.2,0.5l-0.5-0.3L45.5,27.7z"/>
	<path class="st0" d="M39,20.6l-0.1-0.5l0.5-0.1l0,0.6L39,20.6z"/>
	<path class="st0" d="M36.9,21.8l-0.3,0.3l-0.5-0.4l0.4-0.4L36.9,21.8z"/>
	<path class="st0" d="M35.8,23.2l-0.2,0.4L35,23.5l0.2-0.5L35.8,23.2z"/>
	<path class="st0" d="M44.8,28.9l0.3-0.4l0.5,0.3l-0.3,0.4L44.8,28.9z"/>
	<path class="st0" d="M44.9,29.7L44.5,30l-0.4-0.5l0.3-0.3L44.9,29.7z"/>
	<path class="st0" d="M42.6,31l-0.2-0.6l0.4-0.2l0.3,0.5L42.6,31z"/>
	<path class="st0" d="M46.5,25.9v0.4c-0.2,0-0.3,0-0.5,0s-0.1-0.2-0.2-0.4L46.5,25.9z"/>
	<path class="st0" d="M41.2,56.5l0.3-0.1c0,0.1,0.1,0.2,0,0.2c-0.1,0.1-0.2,0.1-0.3,0.1L41.2,56.5l0.2,0.2l0.1-0.2L41.2,56.5z"/>
	<path class="st0" d="M42.3,56.7h-0.2c-0.1,0-0.1,0-0.2-0.1L42.3,56.7L42.3,56.7z"/>
	<path class="st0" d="M79,35.8c-5.6,0-8.5-3-8.4-8.9c0-3,0.8-5.2,2.3-6.8c1.8-1.7,4.2-2.5,6.6-2.3c1.9,0,3.8,0.4,5.6,1.2l-1.4,3.7
		c-0.8-0.3-1.5-0.5-2.2-0.7c-0.7-0.2-1.3-0.3-2-0.3c-2.6,0-3.8,1.8-3.8,5.3c0,3.4,1.3,5.1,3.8,5.1c0.9,0,1.8-0.1,2.6-0.4
		c0.9-0.3,1.7-0.6,2.4-1.1v4.1c-0.7,0.5-1.6,0.8-2.4,1C81,35.7,80,35.8,79,35.8z"/>
	<path class="st0" d="M93.6,35.5h-4.9V11.3h4.9V35.5z"/>
	<path class="st0" d="M98.5,13.6c0-1.6,0.9-2.3,2.7-2.3s2.7,0.8,2.7,2.3c0,0.6-0.2,1.3-0.7,1.7c-0.6,0.4-1.3,0.7-2,0.6
		C99.4,16,98.5,15.2,98.5,13.6z M103.7,35.5h-4.9V18.1h4.9V35.5z"/>
	<path class="st0" d="M116.2,35.8c-5.6,0-8.4-3-8.4-8.9c0-3,0.8-5.2,2.3-6.8c1.8-1.7,4.2-2.5,6.6-2.3c1.9,0,3.9,0.4,5.6,1.2
		l-1.5,3.7c-0.8-0.3-1.5-0.5-2.2-0.7c-0.7-0.2-1.3-0.3-2-0.3c-2.6,0-3.9,1.8-3.9,5.3c0,3.4,1.3,5.1,3.9,5.1c0.9,0,1.8-0.1,2.6-0.4
		c0.9-0.3,1.7-0.6,2.4-1.1v4.1c-0.7,0.5-1.6,0.8-2.4,1C118.3,35.8,117.3,35.8,116.2,35.8z"/>
	<path class="st0" d="M130.7,26l2.1-2.6l5.1-5.3h5.6l-7.2,7.5l7.6,9.8h-5.7l-5.2-7l-2.1,1.6v5.4h-4.9V11.3h4.9v10.8L130.7,26
		L130.7,26z"/>
	<path class="st0" d="M154.1,32c1.1,0,2.1-0.2,3.1-0.5V35c-1.4,0.6-3,0.8-4.5,0.8c-1.6,0.1-3.1-0.4-4.3-1.4c-1-1.2-1.5-2.7-1.3-4.3
		v-8.4h-2.4v-2l2.7-1.6l1.4-3.7h3.2v3.7h5.1v3.6h-5.1v8.4c0,0.6,0.2,1.1,0.6,1.5C153,31.9,153.5,32,154.1,32z"/>
	<path class="st0" d="M173.7,35.5l-0.7-2.2h-0.3c-0.6,0.8-1.3,1.5-2.3,1.9c-1,0.5-2.2,0.7-3.3,0.7c-1.8,0.1-3.5-0.5-4.8-1.6
		c-1.2-1.3-1.7-3-1.6-4.7V18.1h4.9v10.2c-0.1,1,0.2,2,0.7,2.8c0.5,0.7,1.4,1,2.2,0.9c1.2,0.1,2.3-0.4,3-1.3c0.7-1.3,1.1-2.9,0.9-4.4
		v-8.2h4.9v17.4H173.7z"/>
	<path class="st0" d="M187.6,35.5h-4.9V11.3h4.9V35.5z"/>
	<path class="st0" d="M205.6,35.5l-0.7-2.2h-0.3c-0.5,0.8-1.3,1.5-2.3,1.9c-1,0.5-2.2,0.7-3.3,0.7c-1.8,0.1-3.5-0.5-4.8-1.6
		c-1.2-1.3-1.7-3-1.6-4.7V18.1h4.9v10.2c-0.1,1,0.2,2,0.7,2.8c0.5,0.7,1.4,1,2.2,0.9c1.2,0.1,2.3-0.4,3-1.3c0.7-1.3,1.1-2.9,0.9-4.4
		v-8.2h4.9v17.4H205.6z"/>
	<path class="st0" d="M230.7,35.5h-4.9V25.3c0.1-1-0.2-2-0.7-2.8c-0.5-0.6-1.3-1-2.1-0.9c-1.1-0.1-2.1,0.4-2.8,1.3
		c-0.7,1.4-1,2.9-0.9,4.4v8.2h-4.9V18.1h3.8l0.7,2.2h0.3c0.5-0.8,1.2-1.5,2.1-1.9c1-0.5,2.1-0.7,3.1-0.7c2.7,0,4.5,0.9,5.5,2.5h0.4
		c0.5-0.8,1.3-1.5,2.1-1.9c1-0.5,2.1-0.7,3.2-0.7c1.7-0.1,3.4,0.4,4.7,1.5c1,1,1.5,2.6,1.5,4.9v11.3h-5V25.3c0.1-1-0.2-2-0.6-2.8
		c-0.5-0.6-1.3-1-2.1-0.9c-1.1-0.1-2.1,0.4-2.7,1.3c-0.7,1.2-1,2.6-0.9,4L230.7,35.5z"/>
	<path class="st0" d="M70.7,55.5c0-0.4,0.1-0.8,0.3-1.1c0.3-0.3,0.6-0.4,1-0.4c0.4,0,0.7,0.1,1,0.4c0.5,0.6,0.5,1.5,0,2.2
		c-0.3,0.3-0.6,0.4-1,0.4c-0.3,0-0.7-0.1-0.9-0.3C70.8,56.4,70.6,55.9,70.7,55.5z"/>
	<path class="st0" d="M81.8,56.9c-1.5,0.1-3-0.5-4.1-1.6c-1-1.2-1.5-2.8-1.4-4.4c-0.1-1.6,0.4-3.3,1.5-4.5c1.1-1.1,2.6-1.7,4.2-1.6
		c0.6,0,1.2,0.1,1.8,0.2c0.5,0.1,0.9,0.2,1.4,0.4l-0.6,1.5c-0.4-0.2-0.9-0.3-1.3-0.4c-0.4-0.1-0.8-0.1-1.3-0.2
		c-2.5,0-3.7,1.5-3.7,4.5c-0.1,1.2,0.2,2.3,0.9,3.3c0.7,0.8,1.6,1.2,2.7,1.2c1.1,0,2.1-0.2,3.1-0.6v1.6C84,56.7,82.9,56.9,81.8,56.9
		z"/>
	<path class="st0" d="M98.3,50.8c0.1,1.6-0.4,3.2-1.5,4.5c-1.1,1.1-2.6,1.7-4.1,1.6c-1,0-2-0.2-2.9-0.7c-0.8-0.5-1.5-1.2-1.9-2.1
		c-0.5-1-0.7-2.1-0.7-3.2c-0.1-1.6,0.4-3.2,1.5-4.5c1.1-1.1,2.6-1.7,4.1-1.6c1.5-0.1,3,0.5,4,1.6C97.8,47.6,98.4,49.2,98.3,50.8z
		 M89,50.8c-0.1,1.2,0.2,2.4,0.9,3.4c1.5,1.5,3.9,1.6,5.4,0.1c0,0,0.1-0.1,0.1-0.1c0.7-1,1-2.2,0.9-3.4c0.1-1.2-0.2-2.4-0.9-3.4
		c-1.5-1.5-3.9-1.5-5.4,0c0,0,0,0,0,0C89.3,48.4,88.9,49.6,89,50.8L89,50.8z"/>
	<path class="st0" d="M117,56.7v-7.6c0.1-0.7-0.2-1.5-0.6-2.1c-0.5-0.5-1.2-0.8-1.9-0.7c-0.9-0.1-1.9,0.3-2.5,1
		c-0.6,0.8-0.9,1.9-0.8,2.9v6.5h-1.8v-7.6c0.1-0.7-0.2-1.5-0.6-2.1c-0.5-0.5-1.2-0.8-1.9-0.7c-1-0.1-1.9,0.3-2.5,1
		c-0.6,1-0.9,2.1-0.8,3.3v6.1h-1.9V45h1.5l0.3,1.6h0.1c0.4-0.6,0.9-1,1.5-1.3c0.7-0.3,1.4-0.5,2.1-0.5c1.9,0,3.1,0.7,3.7,2h0.1
		c0.4-0.6,0.9-1.1,1.6-1.5c0.7-0.4,1.5-0.5,2.3-0.5c1.1-0.1,2.2,0.3,3.1,1c0.8,0.9,1.1,2.1,1,3.3v7.6H117z"/>
	<path class="st0" d="M149.9,56.7v-7.6c0.1-0.7-0.2-1.5-0.6-2.1c-0.5-0.5-1.2-0.8-1.9-0.7c-0.9-0.1-1.9,0.3-2.5,1
		c-0.6,0.8-0.9,1.9-0.8,2.9v6.5h-1.8v-7.6c0.1-0.7-0.2-1.5-0.6-2.1c-0.5-0.5-1.2-0.8-1.9-0.7c-1-0.1-1.9,0.3-2.5,1
		c-0.6,1-0.9,2.1-0.8,3.3v6.1h-1.8V45h1.5l0.3,1.6h0.1c0.4-0.6,0.9-1,1.5-1.3c0.7-0.3,1.4-0.5,2.1-0.5c1.9,0,3.1,0.7,3.7,2h0.1
		c0.4-0.6,0.9-1.1,1.6-1.5c0.7-0.4,1.5-0.5,2.4-0.5c1.1-0.1,2.2,0.3,3.1,1c0.8,0.9,1.1,2.1,1,3.3v7.6H149.9z"/>
	<path class="st0" d="M157.3,50.7c0.5-0.6,0.9-1.2,1.4-1.7l3.9-4h2.2l-4.9,5l5.3,6.7H163l-4.3-5.5l-1.4,1.1v4.4h-1.8V40.1h1.8v8.8
		C157.3,49.3,157.3,49.9,157.3,50.7L157.3,50.7z"/>
	<path class="st0" d="M171.3,55.4c0.3,0,0.6,0,0.9-0.1c0.2,0,0.5-0.1,0.7-0.2v1.3c-0.3,0.1-0.6,0.2-0.9,0.2c-0.3,0.1-0.7,0.1-1,0.1
		c-2.4,0-3.5-1.2-3.5-3.6v-6.9h-1.7v-0.8l1.7-0.7l0.8-2.5h1.1V45h3.5v1.4h-3.5v6.9c0,0.6,0.1,1.2,0.5,1.6
		C170.3,55.2,170.8,55.4,171.3,55.4z"/>
	<path class="st0" d="M189.6,55.1L189.6,55.1c-1,1.2-2.4,1.9-3.9,1.8c-1.4,0.1-2.8-0.5-3.7-1.6c-1-1.3-1.4-2.9-1.3-4.5
		c-0.1-1.6,0.4-3.2,1.3-4.5c0.9-1.1,2.3-1.7,3.7-1.6c1.5-0.1,2.9,0.6,3.8,1.7h0.1l-0.1-0.8v-0.8v-4.8h1.8v16.6h-1.5L189.6,55.1z
		 M185.9,55.4c1,0.1,2-0.3,2.7-1c0.6-0.9,0.9-2.1,0.9-3.2v-0.4c0.1-1.2-0.2-2.5-0.9-3.5c-0.7-0.8-1.7-1.2-2.8-1.1
		c-1,0-1.9,0.4-2.5,1.2c-0.6,1-0.9,2.2-0.9,3.4c-0.1,1.2,0.2,2.4,0.9,3.4C184,55,184.9,55.4,185.9,55.4z"/>
	<path class="st0" d="M195,41.8c0-0.3,0.1-0.7,0.3-0.9c0.2-0.2,0.5-0.3,0.8-0.3c0.6,0,1.1,0.4,1.1,1c0,0.1,0,0.1,0,0.2
		c0,0.3-0.1,0.7-0.3,0.9c-0.2,0.2-0.5,0.3-0.8,0.3c-0.3,0-0.6-0.1-0.8-0.3C195.1,42.5,195,42.2,195,41.8z M197,56.7h-1.8V45h1.8
		V56.7z"/>
	<path class="st0" d="M210.9,45v1.1l-2.3,0.3c0.2,0.3,0.4,0.6,0.6,1c0.2,0.4,0.3,0.9,0.3,1.4c0,1-0.4,2.1-1.2,2.7
		c-1,0.7-2.1,1.1-3.4,1c-0.3,0-0.7,0-1-0.1c-0.8,0.4-1.2,0.9-1.2,1.5c0,0.3,0.1,0.6,0.4,0.7c0.4,0.2,0.9,0.3,1.4,0.2h2.1
		c1.1-0.1,2.1,0.2,3,0.8c0.7,0.5,1.1,1.4,1.1,2.3c0.1,1.2-0.6,2.4-1.6,3c-1.4,0.8-3.1,1.1-4.7,1c-1.3,0.1-2.6-0.2-3.7-0.8
		c-0.8-0.5-1.3-1.4-1.3-2.4c0-0.7,0.2-1.3,0.7-1.8c0.5-0.5,1.2-0.9,2-1c-0.3-0.1-0.6-0.4-0.8-0.6c-0.2-0.3-0.3-0.6-0.3-1
		c0-0.4,0.1-0.8,0.4-1.1c0.3-0.4,0.7-0.7,1.1-0.9c-0.6-0.3-1.1-0.7-1.5-1.3c-0.4-0.6-0.6-1.3-0.6-2c-0.1-1.1,0.4-2.2,1.2-3
		c1-0.7,2.2-1.1,3.4-1c0.6,0,1.2,0.1,1.7,0.2L210.9,45z M201.2,58.6c0,0.6,0.3,1.2,0.8,1.4c0.7,0.4,1.6,0.5,2.4,0.5
		c1.2,0.1,2.4-0.2,3.4-0.7c0.7-0.3,1.1-1,1.1-1.8c0.1-0.5-0.2-1-0.6-1.3c-0.7-0.3-1.5-0.4-2.3-0.4h-2.2c-0.7-0.1-1.4,0.1-2,0.6
		C201.3,57.4,201.1,58,201.2,58.6z M202.2,48.7c0,0.7,0.2,1.4,0.7,1.8c0.6,0.4,1.3,0.7,2,0.6c1.8,0,2.7-0.8,2.7-2.5
		s-0.9-2.6-2.7-2.6c-0.7-0.1-1.4,0.2-2,0.7C202.4,47.3,202.1,48,202.2,48.7L202.2,48.7z"/>
	<path class="st0" d="M213.2,41.8c0-0.3,0.1-0.6,0.3-0.9c0.2-0.2,0.5-0.3,0.8-0.3c0.7,0.1,1.2,0.7,1.1,1.4c0,0.3-0.1,0.5-0.3,0.7
		c-0.2,0.2-0.5,0.3-0.8,0.3c-0.3,0-0.6-0.1-0.8-0.3C213.3,42.5,213.2,42.2,213.2,41.8z M215.2,56.7h-1.8V45h1.8V56.7z"/>
	<path class="st0" d="M223,55.4c0.3,0,0.6,0,0.9-0.1c0.2,0,0.5-0.1,0.7-0.2v1.3c-0.3,0.1-0.6,0.2-0.9,0.2c-0.3,0.1-0.7,0.1-1.1,0.1
		c-2.4,0-3.5-1.2-3.5-3.6v-6.9h-1.7v-0.8l1.7-0.7l0.8-2.5h1.1V45h3.5v1.4h-3.5v6.9c0,0.6,0.1,1.2,0.5,1.6
		C221.9,55.2,222.5,55.4,223,55.4z"/>
	<path class="st0" d="M234.6,56.7l-0.4-1.7h-0.1c-0.5,0.6-1.1,1.1-1.8,1.5c-0.7,0.3-1.5,0.4-2.3,0.4c-1,0.1-2-0.3-2.8-0.9
		c-0.7-0.7-1.1-1.6-1-2.5c0-2.4,2-3.6,5.9-3.7l2.1-0.1v-0.7c0.1-0.7-0.2-1.4-0.6-2c-0.5-0.5-1.3-0.7-2-0.7c-1.2,0-2.4,0.4-3.4,0.9
		l-0.6-1.4c0.6-0.3,1.3-0.6,2-0.7c0.7-0.2,1.4-0.3,2.1-0.3c1.2-0.1,2.3,0.2,3.2,0.9c0.8,0.8,1.1,1.9,1,3v8L234.6,56.7z M230.4,55.4
		c1,0.1,1.9-0.3,2.7-0.9c0.7-0.7,1.1-1.6,1-2.5v-1.1l-1.8,0.1c-1.1,0-2.2,0.2-3.2,0.7c-0.6,0.4-1,1.1-1,1.8c0,0.6,0.2,1.1,0.6,1.5
		C229.2,55.3,229.8,55.5,230.4,55.4L230.4,55.4z"/>
	<path class="st0" d="M241.6,56.7h-1.8V40.1h1.8V56.7z"/>
	<circle class="st0" cx="126.5" cy="51" r="3"/>
</g>
</svg>
