<?xml version="1.0" encoding="utf-8"?>
<!-- Generator: Adobe Illustrator 22.0.0, SVG Export Plug-In . SVG Version: 6.00 Build 0)  -->
<svg version="1.1" id="Capa_1" xmlns="http://www.w3.org/2000/svg" xmlns:xlink="http://www.w3.org/1999/xlink" x="0px" y="0px"
	 viewBox="0 0 750 957" style="enable-background:new 0 0 750 957;" xml:space="preserve">
<style type="text/css">
	.st0{display:none;}
	.st1{display:inline;}
	.st2{fill:#FF6188;}
	.st3{opacity:0.83;fill:#C7EBF2;enable-background:new    ;}
	.st4{fill:#005C80;}
	.st5{fill:#FDC3AD;}
	.st6{fill:#FF3B6B;}
	.st7{fill:#FF7575;}
	.st8{fill:#401F43;}
	.st9{fill:#FF8686;}
	.st10{fill:#008DC3;}
	.st11{opacity:0.43;fill:url(#SVGID_1_);enable-background:new    ;}
	.st12{fill:#FDD3C3;}
	.st13{fill:#291018;}
	.st14{fill:#130604;}
	.st15{fill:#EB0A55;}
	.st16{fill:#AD3E49;}
	.st17{fill:#160B17;}
	.st18{fill:#5C6A82;}
	.st19{fill:#7B8EAE;}
	.st20{fill:#A8C2ED;}
	.st21{opacity:0.43;fill:url(#SVGID_2_);enable-background:new    ;}
	.st22{fill:#F6F6F6;}
</style>
<g id="BACKGROUND" class="st0">
	<g class="st1">
		<g>
			<g>
				<g>
					<g>
						<g>
							<g>
								<rect y="457" class="st2" width="750" height="500"/>
							</g>
						</g>
					</g>
				</g>
			</g>
		</g>
	</g>
</g>
<g>
	<g>
		<g>
			<path class="st3" d="M688.1,779.6c0,5.1-140.6,9.1-314.3,9.1s-314.3-4-314.3-9.1c0-5.1,140.6-9.1,314.3-9.1
				S688.1,774.6,688.1,779.6z"/>
			<g>
				<g>
					<g>
						<path class="st4" d="M423,487.2c-39-19.2-174-70.6-198.4-69.8c-36.3,1.3-132-4.8-174.5-6.1l-4.3,36.5
							c35,18.9,113.5,62.1,157.3,37.9l0.3-0.5l-0.5,1.6l121,93.3c32.8,32.5,73.9,32,73.9,32c52.2-17.3,44.1-30.9,44.1-30.9
							S505.8,527.7,423,487.2z"/>
						<path class="st5" d="M50.1,411.3l-4.3,36.5c11.8,6.4,28.5,15.5,47.1,23.7c4.3-25.9,11.6-45,17.7-57.8
							C86.9,412.9,65.1,411.8,50.1,411.3z"/>
						<g>
							<g>
								<path class="st2" d="M52.5,452.3c1.6,0.3,2.7-2.1,1.3-3.5c-2.2-2.1-4.3-4.5-4.6-8c-1.6-10.9,12.4-10.7,17.5-19.5
									s-18-19.5-18-19.5c0-0.8,0.3-1.6,0.3-2.4c0,0,0,0-0.3,0c4.8-16.5,13.2-41.6-4.6-58.6c-6.5-6.1-19.4-9.9-31.7-8.5
									c0,0-5.9,7.2-8.1,40.5C3,391.3,0.6,424.3,12.9,451c1.3,2.9,4,5.1,7,5.6L52.5,452.3z"/>
							</g>
						</g>
					</g>
					<g>
						<g>
							<g>
								<path class="st5" d="M498.3,361.4l-77.7,5.6c-11.6-0.5-22.3-6.1-29.3-15.2L341,287l-28.2,4.8l44.4,106.4
									c8.1,13.6,22.3,22.9,38.2,25.3l118.3,9.1L498.3,361.4z"/>
								<path class="st6" d="M513.6,432.3l-15.3-70.9l-77.7,5.6c-2.2,0-4.3-0.5-6.5-1.1c1.6,12.3,1.1,32-9.7,57.8L513.6,432.3z"/>
							</g>
							<g>
								<path class="st5" d="M312.2,271.6c0,0-29.3-18.7-33.6-5.9c-0.3,1.1,0,2.1,0.5,3.2c-17.2-6.4-33.3-12.3-37.6-12.5
									c-10.5-0.8-5.1,7.2-3.8,8.5c10.8,10.4,52.2,27.7,78,34.1c4.8,1.1,9.9,1.1,14.5-0.5c3.5-1.3,6.2-2.9,8.6-5.1
									c3.2-2.9,4.3-7.5,2.7-11.5l0,0C334.5,262.8,312.2,271.6,312.2,271.6z"/>
								<path class="st7" d="M278.6,265.5l0.5,3.2l25.8,8c0,0,2.4-2.4,7.3-5.3C311.4,271,282.9,252.9,278.6,265.5z"/>
							</g>
						</g>
						<path class="st8" d="M677.1,239.9c-4-25.9-22-43.4-43-45.8c-6.7-26.9-25.3-41.3-48.4-45c-106.8-18.9-132.8,30.1-129.6,43.7
							c1.9,8.3,7,15.7,13.4,22.9c-13.4,1.9-25.8,8.8-23.7,23.2c0.8,4.8,4.6,9.3,8.9,13.1l0,0c6.5,5.6,7,9.1,6.2,11.2
							c-1.1,1.1-2.2,1.9-3,2.7l0,0l0,0c-6.2,5.9-8.1,10.7-8.1,14.7c-13.4-0.3-26.9,11.2-28.2,24.8c-1.3,16.3,12.9,31.7,29.3,33.1
							c-7.5,2.9-7.3,14.4-1.3,19.7c5.9,5.3,14.5,6.1,22.3,6.9c-4.8,14.1,8.3,27.7,21.5,34.7c18.6,9.6,42.5,13.3,59.7,1.6
							c3.5-2.4,6.2-5.1,8.9-8.3c2.7,4,5.6,7.7,9.7,10.7c11,7.7,26.6,5.3,38.5-1.1c8.6-4.5,17.2-13.3,14-22.4
							c5.1-0.3,10.8-0.8,14.5-4.5c3.8-3.5,4-10.9-0.8-12.8c10.5-0.8,19.9-10.9,18.8-21.3c-0.5-5.3-3.8-10.1-8.3-13.1
							c6.7-8.3,7.5-23.5-0.8-32C668.8,287.6,681.4,266.8,677.1,239.9z"/>
						<g>
							<g>
								<path class="st2" d="M588.9,446.4l-55.1,49c-11.6,10.1-16.1,18.4-15.3,30.4c0.3,4.3,1.3,8.3,2.7,12.3
									c1.1,3.5,3.2,9.6,4,16.5c2.7,27.7-11.3,48.2-11.3,48.2s-8.3,7.2-70.5-4.5c-49.2-9.3-51.9-35.5-51.9-35.5s-3-11.7,12.6-37.1
									c7.8-12.8,13.2-25.9,14.8-40.5l1.9-18.7c0.5-5.1,0.3-9.9-0.8-14.9l-2.4-12c-3-15.7,3.5-32,17.5-40c0.8-0.5,1.3-0.8,2.2-1.1
									l1.3-0.8c8.9-4.5,16.4-11.5,21.5-20l0,0c5.4-9.1,15.1-15.7,26.1-17.1c15.3-2.1,37.6-3.2,54.6,4.8
									c19.6,9.1,37.6,24.3,50.8,37.1C604,414.7,602.9,434.2,588.9,446.4z"/>
							</g>
							<path class="st6" d="M554.5,419.3L540,444.6c-12.6,26.4-42.2,40.5-70.7,33.9c-21.5-5.1-37.4-12.3-48.4-18.9
								c0,2.1,0,4.5-0.3,6.7l-1.9,18.7c-1.6,14.9-7,27.7-14.8,40.5c-15.6,25.3-12.6,37.1-12.6,37.1s2.7,26.4,51.9,35.5
								c62.1,11.7,70.5,4.5,70.5,4.5s11.6-16.8,11.6-41l0,0l0,0c0-1.1,0-2.1,0-2.9c0-1.3,0-2.7-0.3-4c-0.5-6.9-2.7-13.1-4-16.5
								c-1.3-4-2.2-8-2.7-12.3c-0.8-12,3.8-20.3,15.3-30.4l55.1-49c1.1-1.1,2.2-2.1,3.2-3.5L554.5,419.3z"/>
							<path class="st9" d="M487.8,360.3c5.1-0.5,16.4-1.3,16.1-1.3l19.9-40.2l43.3,8.3l-11.8,46.4c-0.3,0,7.8,5.3,11.8,8.3
								c-46-3.5-67,32.5-87.9,13.3C467.9,384.9,477.3,370.7,487.8,360.3z"/>
						</g>
						<path class="st10" d="M486.2,549.9l-44.4-42.1c0,0-136.1-105-188.2-110.9c-4.3-0.5-9.7-0.3-15.9,0.5l8.6,97.6
							c0,0,123.4,138.9,176.9,149.3c47.3,9.3,76.6-20.8,90.6-41.3C509.3,574.7,492.1,555.5,486.2,549.9z"/>
						<g>
							<g>
								<path class="st7" d="M510.1,285.2c3,16.8-5.6,32-18.8,34.4c-13.4,2.1-26.4-9.3-29.3-26.1c-3-16.8,5.6-32,18.8-34.4
									C494,256.7,507.2,268.4,510.1,285.2z"/>
								<g>
									<g>
										<g>
											<path class="st5" d="M595.1,222.3c-16.1,46.9,14,77,23.1,84.8l-0.8,4.5c-12.6,68.8-75.3,72-102.4,62.9
												c-48.4-16.3-59.2-55.2-37.4-96c6.2-11.5,5.6-45.6,5.6-45.6C483.8,231.1,537.6,251.9,595.1,222.3z"/>
											
												<linearGradient id="SVGID_1_" gradientUnits="userSpaceOnUse" x1="587.2847" y1="1258.0975" x2="536.2813" y2="1095.598" gradientTransform="matrix(1 0 0 -1 0 1414)">
												<stop  offset="0.4372" style="stop-color:#8B156D;stop-opacity:0.53"/>
												<stop  offset="0.9596" style="stop-color:#8B156D;stop-opacity:0"/>
											</linearGradient>
											<path class="st11" d="M595.1,222.3c-16.1,46.9,14,77,23.1,84.8l-0.8,4.5c-12.6,68.8-75.3,72-102.4,62.9
												c-48.4-16.3-59.2-55.2-37.4-96c6.2-11.5,5.6-45.6,5.6-45.6C483.8,231.1,537.6,251.9,595.1,222.3z"/>
											<path class="st12" d="M518.2,366.5c-33.6-11.2-50-32.3-50.8-57.3c-3.5,28.5,11.8,53,47.6,65c20.7,6.9,62.1,6.7,86.3-24.5
												C576,373.9,538.1,373.1,518.2,366.5z"/>
											<g>
												<g>
													<g>
														<path class="st13" d="M495.3,275.8c-1.1,5.6,0,10.4,2.4,10.9c2.4,0.5,5.4-3.5,6.5-9.1c1.1-5.6,0-10.4-2.4-10.9
															S496.4,270.5,495.3,275.8z"/>
													</g>
													<path class="st8" d="M485.7,261.5c0,0,15.1-9.6,29.6-5.6c0,0-2.2-12-15.9-9.1C485.7,249.7,485.7,261.5,485.7,261.5z"/>
												</g>
												<g>
													<g>
														<path class="st13" d="M560.9,289.2c-1.1,5.6-4,9.6-6.5,9.1s-3.5-5.3-2.4-10.9c1.1-5.6,4-9.6,6.5-9.1
															C560.9,278.8,562,283.6,560.9,289.2z"/>
													</g>
													<path class="st8" d="M580.8,280.9c0,0-20.2-16.8-32-20.5c0,0,7.3-12,20.2-4.3C584.3,265.2,580.8,280.9,580.8,280.9z"/>
												</g>
												<g>
													<path class="st7" d="M508.5,303.8c-1.1,5.1,2.4,10.1,7.5,11.2c5.1,1.1,10.2-2.1,11.3-7.5c1.1-5.1-0.3-19.5-5.6-20.5
														C516.6,286,509.6,298.8,508.5,303.8z"/>
													<g>
														<path class="st14" d="M541.9,318.2c0.5,2.1,0.5,4.5,0.3,6.9c-1.1,10.7-9.1,18.4-18,17.6c-7.8-0.8-13.4-8-14-17.1
															L541.9,318.2z"/>
														<path class="st15" d="M524.1,342.8c-2.7-0.3-5.1-1.3-7.3-3.2c2.4-8.3,9.7-13.9,17.7-13.1c2.4,0.3,4.8,1.1,6.7,2.4
															C538.9,337.7,531.6,343.6,524.1,342.8z"/>
													</g>
													<g>
														<g>
															<path class="st7" d="M560.1,324.4c0.3,0,0.5,0,0.8,0c1.1-0.3,1.6-1.3,1.3-2.4l-3.8-13.3c-0.3-1.1-1.3-1.6-2.4-1.3
																s-1.6,1.3-1.3,2.4l3.8,13.3C558.8,323.8,559.3,324.4,560.1,324.4z"/>
															<path class="st7" d="M572.5,327c0.3,0,0.5,0,0.8,0c1.1-0.3,1.6-1.3,1.3-2.4l-3.8-13.3c-0.3-1.1-1.3-1.6-2.4-1.3
																c-1.1,0.3-1.6,1.3-1.3,2.4l3.8,13.3C571.2,326.2,571.7,326.8,572.5,327z"/>
														</g>
														<g>
															<g>
																<g>
																	<path class="st7" d="M485.9,309.4c0.8,0.3,1.6,0,1.9-0.8l8.6-10.9c0.5-0.8,0.5-2.1-0.5-2.7
																		c-0.8-0.5-2.2-0.5-2.7,0.3l-8.6,10.9c-0.5,0.8-0.5,2.1,0.5,2.7C485.4,309.4,485.7,309.4,485.9,309.4z"/>
																</g>
															</g>
															<g>
																<g>
																	<path class="st7" d="M476.5,306.5c0.8,0.3,1.6,0,1.9-0.8l8.6-10.9c0.5-0.8,0.5-2.1-0.3-2.7
																		c-0.8-0.5-2.2-0.5-2.7,0.3l-8.6,10.9c-0.5,0.8-0.5,2.1,0.3,2.7C476,306.2,476.2,306.5,476.5,306.5z"/>
																</g>
															</g>
														</g>
													</g>
												</g>
											</g>
										</g>
										<g>
											<path class="st5" d="M601.8,298.8c-14.3,13.9-16.7,34.1-5.6,45.3c11,11.2,31.5,9.1,45.7-4.8s16.7-34.1,5.6-45.3
												C636.8,282.8,616.1,284.9,601.8,298.8z"/>
											<path class="st7" d="M599.4,333.2c0.3-0.5,0.5-1.3,0.8-1.9c-0.3,0.5-0.5,0.8-0.5,1.1c1.1-3.5,2.7-5.9,4-8
												c16.1-25.9,43.6-20.3,43.6-20.3c-16.1,3.7-27.4,9.9-35,15.7c10.8-0.8,22.9,12,22.9,12c-16.1-10.1-25.3-9.1-30.4-5.6
												C601,330.2,599.4,333.2,599.4,333.2z"/>
										</g>
									</g>
								</g>
							</g>
						</g>
					</g>
				</g>
				<g>
					<path class="st2" d="M656.7,461.9h-75.6v-24.3h75.6c6.7,0,12.1,5.3,12.1,12l0,0C669,456.6,663.4,461.9,656.7,461.9z"/>
					<path class="st16" d="M644.8,449.9c0-6.7,5.4-12,12.1-12c6.7,0,12.1,5.3,12.1,12c0,6.7-5.4,12-12.1,12
						C650.2,461.9,644.8,456.6,644.8,449.9z"/>
					<g>
						<path class="st17" d="M294.2,762.6c-1.6,14.7-15.1,25.1-29.6,23.5c-14.8-1.6-25.3-14.9-23.7-29.3
							c1.6-14.7,15.1-25.1,29.6-23.5C285.3,734.9,295.8,747.9,294.2,762.6z"/>
						<path class="st18" d="M266.8,766.8L266.8,766.8c-9.4,0-16.9-7.5-16.9-16.8v-16.8H284V750C284,759.4,276.2,766.8,266.8,766.8z"
							/>
						<path class="st17" d="M463.6,762.6c-1.6,14.7-15.1,25.1-29.6,23.5c-14.8-1.6-25.3-14.9-23.7-29.3
							c1.6-14.7,15.1-25.1,29.6-23.5C454.7,734.9,465.2,747.9,463.6,762.6z"/>
						<path class="st18" d="M436.2,766.8L436.2,766.8c-9.4,0-16.9-7.5-16.9-16.8v-16.8h34.1V750
							C453.1,759.4,445.6,766.8,436.2,766.8z"/>
						<path class="st18" d="M354.4,670.3v2.9l79.3,0.3c-0.5,11.7-2.7,23.2-6.7,33.6c-4.3,11.5-15.6,19.2-28,19.2h-44.9v8.3h44.9
							c16.1,0,30.4-9.9,35.8-24.5c4.6-12.3,7-25.6,7.3-39.2c0.3-0.3,0.5-0.5,0.8-0.8h-88.5V670.3z"/>
						<path class="st8" d="M368.7,762.6c-1.6,14.7-15.1,25.1-29.6,23.5c-14.8-1.6-25.3-14.9-23.7-29.3c1.6-14.7,15.1-25.1,29.6-23.5
							C359.8,734.9,370.3,747.9,368.7,762.6z"/>
						<path class="st8" d="M538.1,762.6c-1.6,14.7-15.1,25.1-29.6,23.5c-14.8-1.6-25.3-14.9-23.7-29.3c1.6-14.7,15.1-25.1,29.6-23.5
							C529,734.9,539.7,747.9,538.1,762.6z"/>
					</g>
					<path class="st19" d="M656.1,446.2h-32.3c-11.6,0-21.8,7.7-24.7,18.9l-4.6,17.1H265.2l37.1,187.4h-41.4
						c3.2,1.3,6.7,2.1,10.2,2.7c1.9,0.3,4,0.5,6.2,0.5h25.5l0.5,2.4h238.2c-0.5,11.2-2.7,22.1-6.5,32.3c-4.3,11.5-15.6,19.2-28,19.2
						l-262.7,0.5c-2.4,0-4.3,1.9-4.3,4.3c0,2.4,1.9,4.3,4.3,4.3h79.9v14.9c0,9.3,7.5,16.8,16.9,16.8l0,0c9.4,0,16.9-7.5,16.9-16.8
						v-14.9l135.3-0.3v15.2c0,9.3,7.5,16.8,16.9,16.8l0,0c9.4,0,16.9-7.5,16.9-16.8v-21.1c7-4.3,12.6-10.9,15.6-18.7
						c4-11.2,6.5-22.9,7-35.2h0.5l52.7-193h-0.8l4-15.2c2.2-7.7,9.1-12.8,16.9-12.8h32.3c2.2,0,4-1.9,4-4
						C660.2,447.8,658.3,446.2,656.1,446.2z M561.5,604.8l-42.8-1.9l11.8-67.4l48.7,1.3l-16.1,58.9c-0.3,0.8-0.3,1.6,0,2.4
						L561.5,604.8z M434.3,667.1l1.3-60l73.7,3.2l-9.9,56.8H434.3z M435.9,599.2l1.6-66.1l85,2.1l-11.8,67.2L435.9,599.2z
						 M437.8,525.1l0.8-35.2h92l-6.7,37.3L437.8,525.1z M429.7,524.8l-87.1-2.4l-4.3-32.5h92L429.7,524.8z M429.5,532.8l-1.6,65.8
						l-75.8-3.5l-8.3-64.8L429.5,532.8z M344,594.9l-48.4-2.1l-12.6-64l52.7,1.3L344,594.9z M344.8,603.2l8.3,64h-43L296.9,601
						L344.8,603.2z M353.1,603.4l74.8,3.2l-1.3,60.2h-65.1L353.1,603.4z M507.4,667.1l9.9-56.2l41.9,1.9l-14.8,54.4H507.4z
						 M581.4,528.8l-49.2-1.3l6.7-37.6h53.2L581.4,528.8z M330.2,490.2l4,32.3l-53.2-1.3l-6.2-30.9H330.2z"/>
					<path class="st20" d="M273.5,482.2h-64.8l-0.3-1.1l-3.8,1.1h-50.6c-4,0-7.8,1.9-10.2,5.3c-2.4,3.2-3,7.5-1.6,11.5l11.6,32.5
						v1.9h0.5l45.7,127.9c3,8.5,11,14.1,20.2,14.1h90.9L273.5,482.2z M288.8,601l13.2,66.1h-43.6l-16.9-63.4L288.8,601z
						 M239.1,595.7l-17.5-65l52.7-1.9l12.6,64L239.1,595.7z M266.8,490.2l6.2,30.9l-53.2,1.9l-8.9-32.8L266.8,490.2L266.8,490.2z
						 M150.6,492c0.8-1.1,2.2-1.9,3.8-1.9h48.1l8.9,33.1l-50.8,1.6L150.3,496C149.8,494.7,149.8,493.1,150.6,492z M213.5,530.9
						l17.5,65.3l-44.1,2.4l-23.7-65.8L213.5,530.9z M208.2,658.4l-18.6-52l43.3-2.4l16.9,63.2h-29
						C215.2,667.1,210,663.7,208.2,658.4z"/>
				</g>
				<g>
					<g>
						<g>
							<path class="st10" d="M207.4,417.7c-30.1,44-12.1,221.8-12.1,221.8l26.9,1.6c0,0,47.9-70.4,39.5-146.1
								c-2.7-24.8-19.9-98.1-19.9-98.1C224.6,397.9,214.9,406.7,207.4,417.7z"/>
						</g>
					</g>
					<path class="st5" d="M195.3,639.4l26.9,1.6c0,0,15.1-22.1,26.9-54.9c-22.3,0.3-42.2-4.3-58.1-10.1
						C192.6,612,195.3,639.4,195.3,639.4z"/>
					<g>
						<g>
							<path class="st2" d="M232.6,627.4c0-1.6-2.7-2.1-3.5-0.5c-1.6,2.4-3.5,4.8-6.7,5.9c-10.2,3.7-12.6-9.9-22.3-12.8
								c-9.7-3.2-15.3,20.8-15.3,20.8c-0.8,0-1.6,0.3-2.4,0.3c0,0,0,0,0,0.3c-16.9-1.3-42.8-4.3-55.7,16c-4.8,7.5-5.6,20.3-2.2,32
								c0,0,8.1,4,40.6-0.3c18-2.4,50.6-6.4,73.7-23.7c2.7-1.9,4.3-4.8,4-7.7L232.6,627.4z"/>
						</g>
					</g>
				</g>
				<g>
					<g>
						<g>
							<path class="st5" d="M472.8,484.3c0,0,43.6,10.4,79.3,21.3c-2.4-8.8-0.8-47.4-1.3-68.8c-0.3-14.7,7.5-28.8,21-35.2
								c4.3-2.1,9.4-3.5,15.1-3.5c33.9,22.1,22.6,151.7,17.2,162.9c-3.8,7.7-23.9,12-32.5,11.2c-33.6-4-114-71.7-114-71.7
								L472.8,484.3z"/>
						</g>
					</g>
					<g>
						<path class="st5" d="M468.5,450.7l5.9-0.5c2.7-0.3,5.4,0.8,7,3.2l14,21.3l9.9-2.4c3.2-0.8,6.5,1.3,7,4.5l0.8,8.5
							c0.5,5.3-1.9,10.4-6.2,13.9l-10.2,8c-1.9,1.3-4,2.7-6.2,3.7l-19.6,9.3c-4.6,2.1-9.9,1.9-14.3-1.1l-13.4-8.8
							c-2.2-1.3-3.5-3.7-3.8-6.4l-1.1-11.7c-0.3-3.2,1.3-6.4,4-8.3l16.1-10.9l3.8-16.5C462.5,453.4,465.2,451,468.5,450.7z"/>
					</g>
					<path class="st2" d="M610.2,482.2c-0.8-36-6.7-73-23.4-84c-5.6,0-10.8,1.3-15.1,3.5c-13.4,6.4-21.2,20.3-21,35.2
						c0.3,15.5-0.3,40,0,55.4C562.3,487,583.5,479.8,610.2,482.2z"/>
				</g>
			</g>
		</g>
		<g>
			<path class="st3" d="M753.2,804.7c0,11.2-56.2,20-125.6,20s-125.6-9.1-125.6-20c0-11.2,56.2-20,125.6-20
				C697,784.7,753.2,793.8,753.2,804.7z"/>
			<g>
				<polygon class="st2" points="723.4,622.9 579.2,607.2 559.1,614.4 536.7,611.4 539.2,800.2 583.5,814.6 728.7,800.4 				"/>
				
					<linearGradient id="SVGID_2_" gradientUnits="userSpaceOnUse" x1="641.9164" y1="864.7043" x2="635.5984" y2="695.692" gradientTransform="matrix(1.0244 3.440000e-02 0 -1 -18.6727 1387.8417)">
					<stop  offset="0.4372" style="stop-color:#E3CFDE;stop-opacity:0.53"/>
					<stop  offset="0.9596" style="stop-color:#E3CFDE;stop-opacity:0"/>
				</linearGradient>
				<polygon class="st21" points="723.4,622.9 579.2,607.2 559.1,614.4 536.7,611.4 539.2,800.2 583.5,814.6 728.7,800.4 				"/>
				<polygon class="st6" points="536.7,611.4 559.1,614.4 579.2,607.2 579.2,765.8 583.5,814.6 539.2,800.2 				"/>
				<polygon class="st2" points="559.1,614.4 560.1,788.2 539.2,800.2 536.7,611.4 				"/>
				<g>
					<path class="st6" d="M691.1,635.4c0,4,3,7.2,6.5,7.5c3.5,0,6.5-2.9,6.5-6.9s-3-7.2-6.5-7.5
						C694.1,628.5,691.1,631.7,691.1,635.4z"/>
					<path class="st6" d="M607.7,628.5c0,4,3,7.2,6.5,7.5c3.5,0,6.5-2.9,6.5-6.9s-3-7.2-6.5-7.5
						C610.7,621.6,607.7,624.8,607.7,628.5z"/>
					<path class="st22" d="M653.7,746c0.5,0,1.1,0,1.6,0c12.4,0,22.3-5.1,29.8-14.7c23.4-29.9,14.5-94.4,14-97.3
						c-0.3-1.6-1.6-2.7-3-2.1c-1.3,0.3-2.4,1.9-2.2,3.5c0,0.5,8.9,64.8-12.6,92.2c-6.5,8.3-15.1,12.3-25.8,12.3
						c-10.2,0-18.8-4-25.3-12.3c-22.6-28.8-13.7-98.4-13.7-99.2c0.3-1.6-0.8-2.9-2.2-3.2c-1.3-0.3-2.7,1.1-3,2.7
						c-0.3,2.9-9.4,72.8,14.8,103.4C633.3,741,642.7,745.8,653.7,746z"/>
				</g>
			</g>
		</g>
	</g>
</g>
</svg>
