<svg xmlns="http://www.w3.org/2000/svg" viewBox="0 0 459.75 354.58"><defs><style>.cls-1{isolation:isolate;}.cls-2{fill:#fff;}.cls-10,.cls-2,.cls-3,.cls-9{stroke:#bec8d2;}.cls-12,.cls-18,.cls-2,.cls-20,.cls-23,.cls-25,.cls-27,.cls-3,.cls-7,.cls-9{stroke-miterlimit:10;}.cls-10,.cls-11,.cls-12,.cls-18,.cls-20,.cls-23,.cls-25,.cls-27,.cls-3,.cls-7,.cls-9{fill:none;}.cls-4{fill:#e5e9ed;}.cls-5{fill:#bec8d2;}.cls-6{fill:#174159;}.cls-11,.cls-12,.cls-18,.cls-7{stroke:#174159;}.cls-10,.cls-11,.cls-7,.cls-9{stroke-linecap:round;}.cls-8{fill:#f2f2f2;}.cls-10,.cls-11{stroke-linejoin:round;}.cls-12{stroke-width:0.75px;}.cls-13{fill:#fae54e;}.cls-14{fill:#2d80ea;}.cls-15{fill:#e148be;}.cls-16{fill:#5620d8;}.cls-17{fill:#bba6ef;}.cls-19{opacity:0.2;mix-blend-mode:multiply;}.cls-20{stroke:#f2f2f2;}.cls-20,.cls-23,.cls-25,.cls-27{stroke-width:0.5px;}.cls-21{fill:#2e546a;}.cls-22{fill:#428dec;}.cls-23{stroke:#000;}.cls-24{fill:#784de0;}.cls-25{stroke:#5620d8;}.cls-26{fill:#5799ee;}.cls-27{stroke:#2d80ea;}</style></defs><title>lan</title><g class="cls-1"><g id="OBJECTS"><path class="cls-2" d="M435.4,383.09c-8.43-17.76-41.68-33.91-21.71-56.34S370,279.24,399.21,258.21C431.38,235.05,414.75,202,435.4,202Z" transform="translate(-20.13 -30.88)"/><path class="cls-2" d="M435.4,383.09c8.42-17.76,41.68-33.91,21.7-56.34s43.67-47.51,14.48-68.54C439.42,235.05,456.05,202,435.4,202Z" transform="translate(-20.13 -30.88)"/><path class="cls-3" d="M435.4,370.59c0-24.95-28-29.79-28-29.79" transform="translate(-20.13 -30.88)"/><path class="cls-3" d="M435.4,316.42c0-27.22-26.67-48-44-46.54" transform="translate(-20.13 -30.88)"/><path class="cls-3" d="M435.4,264.81c0-28.15-14.06-42.14-14.06-42.14" transform="translate(-20.13 -30.88)"/><path class="cls-3" d="M435.4,370.59c0-24.95,28-29.79,28-29.79" transform="translate(-20.13 -30.88)"/><path class="cls-3" d="M435.4,316.42c0-27.22,26.67-48,44-46.54" transform="translate(-20.13 -30.88)"/><path class="cls-3" d="M435.4,264.81c0-28.15,14.05-42.14,14.05-42.14" transform="translate(-20.13 -30.88)"/><path class="cls-2" d="M64.6,383.09c8.43-17.76,41.68-33.91,21.71-56.34s43.67-47.51,14.48-68.54C68.62,235.05,85.25,202,64.6,202Z" transform="translate(-20.13 -30.88)"/><path class="cls-2" d="M64.6,383.09c-8.42-17.76-41.68-33.91-21.7-56.34S-.77,279.24,28.42,258.21C60.58,235.05,44,202,64.6,202Z" transform="translate(-20.13 -30.88)"/><path class="cls-3" d="M64.6,370.59c0-24.95,28-29.79,28-29.79" transform="translate(-20.13 -30.88)"/><path class="cls-3" d="M64.6,316.42c0-27.22,26.67-48,44-46.54" transform="translate(-20.13 -30.88)"/><path class="cls-3" d="M64.6,264.81c0-28.15,14.06-42.14,14.06-42.14" transform="translate(-20.13 -30.88)"/><path class="cls-3" d="M64.6,370.59c0-24.95-28-29.79-28-29.79" transform="translate(-20.13 -30.88)"/><path class="cls-3" d="M64.6,316.42c0-27.22-26.67-48-44-46.54" transform="translate(-20.13 -30.88)"/><path class="cls-3" d="M64.6,264.81c0-28.15-14-42.14-14-42.14" transform="translate(-20.13 -30.88)"/><path class="cls-2" d="M128.67,150.11a31.05,31.05,0,0,0-.5-5.49,2.67,2.67,0,0,1,1.29-2.75l4.3-2.48a2.67,2.67,0,0,0,1-3.64l-6.05-10.47a2.66,2.66,0,0,0-3.64-1l-4.3,2.49a2.64,2.64,0,0,1-3-.26,31,31,0,0,0-9.5-5.5,2.64,2.64,0,0,1-1.74-2.49v-5a2.66,2.66,0,0,0-2.67-2.66H91.73a2.67,2.67,0,0,0-2.67,2.66v5A2.64,2.64,0,0,1,87.33,121a30.73,30.73,0,0,0-9.5,5.5,2.64,2.64,0,0,1-3,.26l-4.31-2.49a2.67,2.67,0,0,0-3.64,1l-6,10.47a2.67,2.67,0,0,0,1,3.64l4.3,2.48a2.64,2.64,0,0,1,1.29,2.75,31,31,0,0,0,0,11,2.64,2.64,0,0,1-1.29,2.75l-4.3,2.48a2.67,2.67,0,0,0-1,3.64l6,10.47a2.68,2.68,0,0,0,3.64,1l4.31-2.49a2.64,2.64,0,0,1,3,.26,30.7,30.7,0,0,0,9.5,5.49,2.65,2.65,0,0,1,1.73,2.5v5a2.67,2.67,0,0,0,2.67,2.66h12.08a2.66,2.66,0,0,0,2.67-2.66v-5a2.65,2.65,0,0,1,1.74-2.5,30.93,30.93,0,0,0,9.5-5.49,2.64,2.64,0,0,1,3-.26l4.3,2.49a2.67,2.67,0,0,0,3.64-1l6.05-10.47a2.67,2.67,0,0,0-1-3.64l-4.3-2.48a2.67,2.67,0,0,1-1.29-2.75A31.05,31.05,0,0,0,128.67,150.11ZM99.94,166.62a16.65,16.65,0,1,1,14.35-14.35A16.66,16.66,0,0,1,99.94,166.62Z" transform="translate(-20.13 -30.88)"/><path class="cls-2" d="M172.48,95a36.56,36.56,0,0,0,2.84-5.93,3.17,3.17,0,0,1,3-2l5.92.08A3.18,3.18,0,0,0,187.47,84l.2-14.42a3.19,3.19,0,0,0-3.14-3.23l-5.93-.08a3.16,3.16,0,0,1-2.95-2.11,36.5,36.5,0,0,0-6.39-11.44,3.15,3.15,0,0,1-.25-3.61L172,44a3.18,3.18,0,0,0-1.11-4.36l-12.39-7.38a3.18,3.18,0,0,0-4.36,1.1l-3,5.09a3.14,3.14,0,0,1-3.3,1.49,37.23,37.23,0,0,0-13.1-.17,3.16,3.16,0,0,1-3.27-1.58L128.59,33a3.18,3.18,0,0,0-4.33-1.23l-12.59,7a3.18,3.18,0,0,0-1.22,4.33l2.89,5.17a3.16,3.16,0,0,1-.36,3.61,37.2,37.2,0,0,0-3.86,5.33,36.17,36.17,0,0,0-2.84,5.93,3.17,3.17,0,0,1-3,2l-5.92-.08a3.18,3.18,0,0,0-3.22,3.14l-.2,14.42a3.19,3.19,0,0,0,3.14,3.23L103,86a3.16,3.16,0,0,1,3,2.11,36.5,36.5,0,0,0,6.39,11.44,3.15,3.15,0,0,1,.25,3.61l-3,5.09a3.18,3.18,0,0,0,1.11,4.36L123.06,120a3.18,3.18,0,0,0,4.36-1.1l3-5.09a3.16,3.16,0,0,1,3.3-1.5,36.76,36.76,0,0,0,13.1.17,3.17,3.17,0,0,1,3.27,1.59l2.89,5.17a3.19,3.19,0,0,0,4.33,1.23l12.59-7a3.19,3.19,0,0,0,1.22-4.34l-2.89-5.16a3.16,3.16,0,0,1,.36-3.61A37.2,37.2,0,0,0,172.48,95Zm-39.55-.61a19.88,19.88,0,1,1,23.48-5.95A19.89,19.89,0,0,1,132.93,94.38Z" transform="translate(-20.13 -30.88)"/><path class="cls-2" d="M444.46,124.32a42.1,42.1,0,0,0-.67-7.5,3.6,3.6,0,0,1,1.76-3.76l5.87-3.39a3.64,3.64,0,0,0,1.34-5L444.5,90.38a3.65,3.65,0,0,0-5-1.34l-5.88,3.4a3.62,3.62,0,0,1-4.15-.36,42.21,42.21,0,0,0-13-7.5,3.62,3.62,0,0,1-2.38-3.41V74.39a3.64,3.64,0,0,0-3.64-3.65H394a3.64,3.64,0,0,0-3.65,3.65v6.78A3.62,3.62,0,0,1,388,84.58a42.25,42.25,0,0,0-13,7.5,3.61,3.61,0,0,1-4.14.36L364.94,89a3.64,3.64,0,0,0-5,1.34l-8.26,14.31a3.65,3.65,0,0,0,1.33,5l5.88,3.39a3.62,3.62,0,0,1,1.76,3.76,41.7,41.7,0,0,0,0,15,3.64,3.64,0,0,1-1.76,3.77L353,139a3.64,3.64,0,0,0-1.33,5l8.26,14.3a3.64,3.64,0,0,0,5,1.34l5.88-3.4a3.61,3.61,0,0,1,4.14.36,42.28,42.28,0,0,0,13,7.51,3.6,3.6,0,0,1,2.37,3.4v6.79A3.64,3.64,0,0,0,394,177.9h16.52a3.64,3.64,0,0,0,3.64-3.64v-6.79a3.59,3.59,0,0,1,2.38-3.4,42.23,42.23,0,0,0,13-7.51,3.62,3.62,0,0,1,4.15-.36l5.88,3.4a3.64,3.64,0,0,0,5-1.34l8.26-14.3a3.64,3.64,0,0,0-1.34-5l-5.87-3.39a3.63,3.63,0,0,1-1.76-3.77A42.1,42.1,0,0,0,444.46,124.32ZM405.19,146.9a22.77,22.77,0,1,1,19.61-19.62A22.79,22.79,0,0,1,405.19,146.9Z" transform="translate(-20.13 -30.88)"/><rect class="cls-4" x="77.65" y="119.21" width="304.46" height="195.16"/><rect class="cls-5" x="77.65" y="127.03" width="304.46" height="17.11"/><path class="cls-6" d="M115.89,164.45l1.71,1.8v2.42h-3.42v-2.42l1.71-1.8m0-1.2a.54.54,0,0,0-.41.19l-2.08,2.18a.88.88,0,0,0-.22.59v2.68a.72.72,0,0,0,.63.78H118a.72.72,0,0,0,.64-.78v-2.68a.88.88,0,0,0-.22-.59l-2.08-2.18a.54.54,0,0,0-.41-.19Z" transform="translate(-20.13 -30.88)"/><path class="cls-7" d="M123.94,168.31l2.39-1.54a.33.33,0,0,0,0-.62l-2.39-1.54" transform="translate(-20.13 -30.88)"/><path class="cls-7" d="M107.84,168.31l-2.4-1.54a.34.34,0,0,1,0-.62l2.4-1.54" transform="translate(-20.13 -30.88)"/><rect class="cls-8" x="114" y="130.27" width="235.48" height="10.63" rx="2.6"/><rect class="cls-5" x="192.95" y="133.98" width="77.59" height="3.21"/><path class="cls-3" d="M142.41,164.85a2.28,2.28,0,1,1-3.22,0A2.29,2.29,0,0,1,142.41,164.85Z" transform="translate(-20.13 -30.88)"/><line class="cls-9" x1="122.28" y1="137.19" x2="123.64" y2="138.55"/><path class="cls-9" d="M366.08,166.46a2.27,2.27,0,1,1-2.27-2.27" transform="translate(-20.13 -30.88)"/><polygon class="cls-10" points="343.69 132.68 344.9 133.5 343.69 134.31 343.69 132.68"/><polygon class="cls-11" points="359.27 132.36 360.06 134.82 362.65 134.82 360.56 136.34 361.36 138.81 359.27 137.28 357.17 138.81 357.97 136.34 355.88 134.82 358.47 134.82 359.27 132.36"/><line class="cls-11" x1="368.12" y1="132.89" x2="376.57" y2="132.89"/><line class="cls-11" x1="368.12" y1="135.58" x2="376.57" y2="135.58"/><line class="cls-11" x1="368.12" y1="138.28" x2="376.57" y2="138.28"/><polyline class="cls-12" points="382.1 119.21 382.1 314.37 77.65 314.37"/><rect class="cls-6" x="77.65" y="119.21" width="304.46" height="7.82"/><circle class="cls-13" cx="83.75" cy="123.12" r="1.83"/><circle class="cls-14" cx="88.77" cy="123.12" r="1.83"/><path class="cls-15" d="M115.76,154a1.83,1.83,0,1,1-1.83-1.83A1.83,1.83,0,0,1,115.76,154Z" transform="translate(-20.13 -30.88)"/><rect class="cls-16" x="253.4" y="290.93" width="105.25" height="11.9"/><circle class="cls-16" cx="114.69" cy="166.29" r="13.87"/><rect class="cls-17" x="135.47" y="160.47" width="54.24" height="4.71"/><rect class="cls-17" x="135.47" y="167.41" width="39.87" height="4.71"/><rect class="cls-5" x="263.83" y="160.47" width="27.12" height="4.71"/><rect class="cls-5" x="297.68" y="160.47" width="27.12" height="4.71"/><line class="cls-18" x1="101.35" y1="185.38" x2="358.4" y2="185.38"/><rect class="cls-17" x="101.35" y="245.03" width="88.36" height="7.11"/><rect class="cls-5" x="101.35" y="258.95" width="122.95" height="3.15"/><rect class="cls-5" x="101.35" y="265.04" width="112.22" height="3.15"/><rect class="cls-5" x="101.35" y="271.13" width="103.14" height="3.15"/><rect class="cls-5" x="101.35" y="277.22" width="122.95" height="3.15"/><g class="cls-19"><rect x="102.35" y="291.93" width="42.57" height="11.9" rx="5.95"/></g><rect class="cls-13" x="101.35" y="290.93" width="42.57" height="11.9" rx="5.95"/><g class="cls-19"><rect x="151.38" y="291.93" width="42.57" height="11.9" rx="5.95"/></g><rect class="cls-6" x="150.38" y="290.93" width="42.57" height="11.9" rx="5.95"/><rect class="cls-16" x="101.35" y="197.17" width="17.95" height="17.95"/><line class="cls-20" x1="101.35" y1="197.17" x2="119.3" y2="215.12"/><line class="cls-20" x1="119.3" y1="197.17" x2="101.35" y2="215.12"/><rect class="cls-16" x="126.49" y="197.17" width="17.95" height="17.95"/><line class="cls-20" x1="126.49" y1="197.17" x2="144.44" y2="215.12"/><line class="cls-20" x1="144.44" y1="197.17" x2="126.49" y2="215.12"/><rect class="cls-16" x="151.63" y="197.17" width="17.95" height="17.95"/><line class="cls-20" x1="151.63" y1="197.17" x2="169.58" y2="215.12"/><line class="cls-20" x1="169.58" y1="197.17" x2="151.63" y2="215.12"/><g class="cls-19"><rect x="165.02" y="213.53" width="15.85" height="93.36" transform="translate(-110.12 398.12) rotate(-89.09)"/></g><rect class="cls-16" x="163.02" y="212.53" width="15.85" height="93.36" transform="translate(-111.08 395.13) rotate(-89.09)"/><line class="cls-9" x1="297.33" y1="11.94" x2="297.33" y2="90.04"/><path class="cls-5" d="M322.16,138.25a1.31,1.31,0,0,0-1.26,1.35,3.51,3.51,0,0,1-4.13,3.45,3,3,0,0,1-1.14-.41,3.52,3.52,0,0,1-1.55-1.87,3.32,3.32,0,0,1,0-2.48c1.85-3.72,5.54-6.1,5.54-9.83a6.8,6.8,0,1,0-4.67-.09c-.23,2.61-3.28,5-4.56,8.48a7.17,7.17,0,0,0,.16,5.1,7.09,7.09,0,0,0,3.29,3.63,6.93,6.93,0,0,0,4.67.59,6.49,6.49,0,0,0,3.76-2.46,6.22,6.22,0,0,0,1.21-4.11v-.12A1.31,1.31,0,0,0,322.16,138.25Zm-4.71-19a2.81,2.81,0,0,1,1.62,5.11,2.38,2.38,0,0,0-1.84-.63,2.33,2.33,0,0,0-1.4.63,2.81,2.81,0,0,1,1.62-5.11Z" transform="translate(-20.13 -30.88)"/><g class="cls-19"><rect x="239.98" y="215.82" width="174.32" height="102.84" transform="translate(-53.47 16.16) rotate(-7.83)"/><polygon points="348.33 215.13 304.38 273.08 266.38 244.26 227.22 295.91 227.67 299.18 400.37 275.44 397.17 252.17 348.33 215.13"/><path d="M403.08,208.94l12.91,94L251.22,325.54l-12.92-94,164.78-22.65m3.42-4.5L233.79,228.17l14,101.88,172.7-23.73-14-101.88Z" transform="translate(-20.13 -30.88)"/><circle cx="316.82" cy="247.98" r="14.51" transform="translate(-95.41 307.22) rotate(-50.99)"/></g><rect class="cls-17" x="229.98" y="198.82" width="174.32" height="102.84" transform="translate(-51.24 14.64) rotate(-7.83)"/><polygon class="cls-16" points="338.33 198.13 294.38 256.08 256.38 227.26 217.22 278.91 217.67 282.18 390.37 258.44 387.17 235.17 338.33 198.13"/><path class="cls-16" d="M393.08,191.94l12.91,94L241.22,308.54l-12.92-94,164.78-22.65m3.42-4.5L223.79,211.17l14,101.88,172.7-23.73-14-101.88Z" transform="translate(-20.13 -30.88)"/><circle class="cls-8" cx="306.82" cy="230.98" r="14.51" transform="translate(-85.59 294.44) rotate(-51.19)"/><polyline class="cls-10" points="214.9 178.75 207.09 205.17 216.66 178.51"/><polyline class="cls-10" points="359.59 158.48 380.01 183.03 357.83 158.24"/><path class="cls-10" d="M378,189.11l-57.74-44.72a3.51,3.51,0,0,0-5.67-.1l-77.76,65.1" transform="translate(-20.13 -30.88)"/><circle class="cls-9" cx="308.93" cy="42.81" r="8.52" transform="translate(40.08 200.11) rotate(-45)"/><circle class="cls-9" cx="288.81" cy="11.94" r="3.15"/><path class="cls-6" d="M373.18,307.83c-3.26,14.86-2,34,5.22,45.11,5.7,8.8,15.85,11.52,24.89,18.48l-.42,4.35,4-4.75s-5-5-19.57-20c-3.57-3.67-1-18.22-.09-21.85,4.52-6,0-12.35-3-21.32Z" transform="translate(-20.13 -30.88)"/><path class="cls-14" d="M403.29,371.42l-.42,4.35,4-4.75-1.69-1.69A1.92,1.92,0,0,1,403.29,371.42Z" transform="translate(-20.13 -30.88)"/><path class="cls-21" d="M369,307.83c-9.55,18.84-9.16,30.91,4.66,74.89l-4.41,2.74H376s-.29-46.49,2.41-57.08c4.53-6,4.6-11.58,1.6-20.55Z" transform="translate(-20.13 -30.88)"/><path class="cls-14" d="M369.26,385.46H376v-2.74s-1.45.85-2.32,0Z" transform="translate(-20.13 -30.88)"/><path class="cls-8" d="M379.35,264.44c-1.68,5.14-6.41,7.65-8.87,7.18s-3.75-4.66-2.86-9.38,3.58-7.4,6.07-7.71C377.25,254.09,381.68,257.31,379.35,264.44Z" transform="translate(-20.13 -30.88)"/><rect class="cls-8" x="353.54" y="234.99" width="4.63" height="11.63"/><path class="cls-14" d="M374.58,274.75c-6.08,1.1-10.17,11.08-10.77,14.65-.36,2.12-.12,4.18,2.23,8.3,3.27,5.74,3,10.13,3,10.13h15.23c0-4.56,2.93-9.67,4.66-16.77S384.9,272.87,374.58,274.75Z" transform="translate(-20.13 -30.88)"/><path class="cls-22" d="M379.79,275s8.84,1.06,12.48-.23c8.58-3.06,12.3-10.44,12.6-18h2.32s3.11,22.45-18.12,30.46Z" transform="translate(-20.13 -30.88)"/><path class="cls-8" d="M404.87,256.71c-1.55-1.7-.57-3.11-1.18-4.45s.13-2.88,1.81.78l-.69-5.14s2,1,2.38,8.81Z" transform="translate(-20.13 -30.88)"/><path class="cls-22" d="M374.19,275.93c4.55.9,4,9.14-1.21,13.91-4.91,4.5-18.77,8.44-37.42,10.85l-.61-2a65.56,65.56,0,0,0,19.51-7.43C363.55,285.7,367.62,274.64,374.19,275.93Z" transform="translate(-20.13 -30.88)"/><path class="cls-8" d="M335,298.65c-2-.95-3.06.26-4.47.05s-2.12.75,1.75,1.34l-5.32.76s1.26,1.48,8.65-.11Z" transform="translate(-20.13 -30.88)"/><path class="cls-13" d="M368.32,255.15c-2.34,4.1,5.35,3.1,5.35,7.12s-8.43,4.76-10,10c-1.8,6,10.42,4.39,8.58,10.61-2.7,9.13-20.58,9.89-13.77,19.57,5,7.05,17.05,3,15.69,14.55-1.33,11.17,19.07,8.92,20.83-.24,1.17-6.1-10.21-9.8-3.84-14.4,7.8-5.63,17.66-13.17,9.22-19.56-4.26-3.23-15.8-5.23-17-10.41S389.07,259.25,381,254C372.66,248.51,368.32,255.15,368.32,255.15Z" transform="translate(-20.13 -30.88)"/><path class="cls-6" d="M163.73,133.86s4,16.21,12.45,16.21c19.41,0,24.95-7.43,32.72-6.91,4.12.27,14.44,6.91,14.44,6.91h5.83l-4.1-2.55S213.9,132.89,206.42,132c-9.48-1.15-22,8.25-28.77,1.87Z" transform="translate(-20.13 -30.88)"/><path class="cls-14" d="M223.34,150.07l-1.3-.81s2.28.13,3-1.74l4.1,2.55Z" transform="translate(-20.13 -30.88)"/><polyline class="cls-9" points="284.41 4.65 194.31 61.48 181.35 73.82 181.35 116.65"/><path class="cls-5" d="M199.2,106.4c.8-1.37,2.66-4,3.58-2.27.59,1.12.35,3.1-.18,3.3a11.11,11.11,0,0,1-1.92.32Z" transform="translate(-20.13 -30.88)"/><path class="cls-14" d="M161.29,103.73c7.38-4.17,19.33,9.16,23,9.85,5.85,1.11,14.2-6.58,14.95-7.18l1.48,1.35s-9.14,13.12-17.79,13.37S151.87,109,161.29,103.73Z" transform="translate(-20.13 -30.88)"/><path class="cls-8" d="M199.2,106.4A3,3,0,0,1,201,104c1.4-.75,1.11-1.48,1.58-1.48s1,1.36-.23,1.84c0,0,.06,2.42-2,3Z" transform="translate(-20.13 -30.88)"/><path class="cls-8" d="M202.78,104.13c.06.52-.5.44-1.05.42-.74,0-1.49-.15-1.36.82.19,1.52,0,2.38.7,2.42s1.24.2,1.71-.06S203.51,105.29,202.78,104.13Z" transform="translate(-20.13 -30.88)"/><path class="cls-21" d="M178.37,129.68c9.53,18.8,16.9,38.09,34.55,54.78l5-1.45-4.5,5s-36.92-21.6-46.93-34.84c-4.52-6-5.66-10.36-2.67-19.31Z" transform="translate(-20.13 -30.88)"/><path class="cls-14" d="M213.4,188l4.5-5-5,1.45a2.18,2.18,0,0,1-1.55,2.33Z" transform="translate(-20.13 -30.88)"/><path class="cls-8" d="M157.27,94.49c2.75,4.1,7.53,5.13,9.58,4.11s2.14-5,.19-9-5-5.62-7.25-5.27C156.55,84.87,153.45,88.8,157.27,94.49Z" transform="translate(-20.13 -30.88)"/><polygon class="cls-8" points="138.85 75.52 145.38 73.68 142.49 63.45 135.43 59.38 138.85 75.52"/><path class="cls-22" d="M163.93,102.37c-6.91.87-12.86,2.83-9.92,26,2.75,21.75,9.92,21.67,9.92,21.67s21.77,1.54,26.17-14.89a34.12,34.12,0,0,1-12.26-18.29C174.94,105.11,169.27,101.69,163.93,102.37Z" transform="translate(-20.13 -30.88)"/><path class="cls-22" d="M163.93,102.37l47.85-10,1.13,2.59S180,116.3,168.45,117,155.6,104.87,163.93,102.37Z" transform="translate(-20.13 -30.88)"/><path class="cls-8" d="M211.78,92.33s2-2.72,3.14-2.53,2.66,2.79,2,3.8-4,1.32-4,1.32Z" transform="translate(-20.13 -30.88)"/><path class="cls-6" d="M157.89,101.25a5.5,5.5,0,0,0,3.39-5.41s-1.68.87-2.17-2.77c-.22-1.67,1.42-2,2.17-.17,1.06.39,2.48-.33,2.26-2.27-.35-3.13,3.56-2.6,3.7-6.3.18-4.8-9.39-11.11-11.21-6.73-1.48,3.57-1.05,5.72-5.58,5.77C142.11,83.45,150.65,102.92,157.89,101.25Z" transform="translate(-20.13 -30.88)"/><path class="cls-6" d="M130.09,307.83c3.27,14.86,2,34-5.22,45.11-5.7,8.8-15.84,11.52-24.88,18.48l.42,4.35-4-4.75s5-5,19.57-20c3.56-3.67,1-18.22.09-21.85-4.53-6,0-12.35,3-21.32Z" transform="translate(-20.13 -30.88)"/><path class="cls-14" d="M100,371.42l.42,4.35-4-4.75,1.68-1.69A1.93,1.93,0,0,0,100,371.42Z" transform="translate(-20.13 -30.88)"/><path class="cls-21" d="M134.27,307.83c9.55,18.84,9.15,30.91-4.66,74.89l4.41,2.74h-6.73s.29-46.49-2.42-57.08c-4.52-6-4.59-11.58-1.59-20.55Z" transform="translate(-20.13 -30.88)"/><path class="cls-14" d="M134,385.46h-6.73v-2.74s1.45.85,2.32,0Z" transform="translate(-20.13 -30.88)"/><path class="cls-8" d="M123.92,264.44c1.68,5.14,6.41,7.65,8.88,7.18s3.74-4.66,2.86-9.38-3.58-7.4-6.07-7.71C126,254.09,121.59,257.31,123.92,264.44Z" transform="translate(-20.13 -30.88)"/><rect class="cls-8" x="121.47" y="265.86" width="8.13" height="11.63" transform="translate(230.96 512.48) rotate(180)"/><path class="cls-22" d="M123.48,275s-8.84,1.06-12.48-.23c-8.58-3.06-12.3-10.44-12.59-18H96.09S93,279.16,114.21,287.17Z" transform="translate(-20.13 -30.88)"/><path class="cls-8" d="M98.41,256.71c1.55-1.7.57-3.11,1.18-4.45s-.14-2.88-1.82.78V247.9s-1.31,1-1.68,8.81Z" transform="translate(-20.13 -30.88)"/><path class="cls-22" d="M133,276.61c-5.66-2.81-8-1.64-17.46-1.24s-1.42,23.2-1.42,48.85c0,0,8.21,4.76,28.65,0C142.76,324.22,142,281.06,133,276.61Z" transform="translate(-20.13 -30.88)"/><path class="cls-15" d="M129,267.64c1.4,2.47-6.66,4.63-8.8,2.14s-9.38-4.42-4.07-14.1c2.32-4.21,3.19-10.39,6.62-11,8.23-1.42,12.19,4.9,12,8.62-.25,5.14-2.26,8.23-4.33,9.25C129,263.25,126.85,263.8,129,267.64Z" transform="translate(-20.13 -30.88)"/><path class="cls-22" d="M128.32,275c9.8-.05,17.06,5.33,24.21,6,8.33.78,16.62-4.87,18.28-9.33l3.74-.65s-5.67,12-21.65,17.23c-8,2.64-17.86,3.05-23.82.31S121.45,275,128.32,275Z" transform="translate(-20.13 -30.88)"/><path class="cls-8" d="M170.81,271.68c-1.18-1.76.62-3.56.86-4.87s.93-2.28,1.58-2.42c1.11-.24.78,1.31.42,2.8a.19.19,0,0,0,.27.22,11,11,0,0,1,4.8-1.14c.59.06.95.7-1.42,1.88a5.15,5.15,0,0,0-2.77,2.88Z" transform="translate(-20.13 -30.88)"/><g class="cls-19"><rect x="150.75" y="310.2" width="111.25" height="29.63"/><rect x="158.23" y="316.03" width="17.95" height="17.95"/><line class="cls-23" x1="158.23" y1="316.03" x2="176.18" y2="333.98"/><line class="cls-23" x1="176.18" y1="316.03" x2="158.23" y2="333.98"/><rect x="182.43" y="320" width="67.05" height="2.11"/><rect x="182.43" y="327.9" width="67.05" height="2.11"/><rect x="182.43" y="323.95" width="59.82" height="2.11"/></g><rect class="cls-16" x="149.75" y="309.2" width="111.25" height="29.63"/><rect class="cls-24" x="157.23" y="315.03" width="17.95" height="17.95"/><line class="cls-25" x1="157.23" y1="315.03" x2="175.18" y2="332.98"/><line class="cls-25" x1="175.18" y1="315.03" x2="157.23" y2="332.98"/><rect class="cls-26" x="181.43" y="319" width="67.05" height="2.11"/><rect class="cls-26" x="181.43" y="326.9" width="67.05" height="2.11"/><rect class="cls-26" x="181.43" y="322.95" width="59.82" height="2.11"/><g class="cls-19"><rect x="132.08" y="322.95" width="111.25" height="29.63"/><rect x="139.55" y="328.79" width="17.95" height="17.95"/><line class="cls-23" x1="139.55" y1="328.79" x2="157.5" y2="346.74"/><line class="cls-23" x1="157.5" y1="328.79" x2="139.55" y2="346.74"/><rect x="163.75" y="332.76" width="67.05" height="2.11"/><rect x="163.75" y="340.66" width="67.05" height="2.11"/><rect x="163.75" y="336.71" width="59.82" height="2.11"/></g><rect class="cls-14" x="131.08" y="321.95" width="111.25" height="29.63"/><rect class="cls-16" x="138.55" y="327.79" width="17.95" height="17.95"/><line class="cls-27" x1="138.55" y1="327.79" x2="156.5" y2="345.74"/><line class="cls-27" x1="156.5" y1="327.79" x2="138.55" y2="345.74"/><rect class="cls-26" x="162.75" y="331.76" width="67.05" height="2.11"/><rect class="cls-26" x="162.75" y="339.66" width="67.05" height="2.11"/><rect class="cls-26" x="162.75" y="335.71" width="59.82" height="2.11"/><circle class="cls-2" cx="233.51" cy="101.85" r="2.92"/><circle class="cls-2" cx="222.95" cy="82.73" r="5.73"/><circle class="cls-2" cx="251.76" cy="87.74" r="3.28"/><circle class="cls-2" cx="39.1" cy="68.39" r="4.62"/><circle class="cls-2" cx="50.5" cy="53.99" r="3.97"/><circle class="cls-2" cx="411.76" cy="147.65" r="3.51"/><circle class="cls-2" cx="456.86" cy="174.4" r="7.64" transform="translate(-9.64 343.25) rotate(-45)"/></g></g></svg>