<svg id="Layer_1" data-name="Layer 1" xmlns="http://www.w3.org/2000/svg" viewBox="0 0 236.5 58"><defs><style>.cls-1{fill:#fff;}</style></defs><title>logo-lan-03-white</title><g id="Capa_1" data-name="Capa 1"><path class="cls-1" d="M34.5,52.82a16.82,16.82,0,0,1,0-33.64V7a29,29,0,1,0,29,29H51.32A16.84,16.84,0,0,1,34.5,52.82Z" transform="translate(-5.5 -7)"/><path class="cls-1" d="M30.73,32.38,35,28.23l3.48-3.39a2.09,2.09,0,0,1,2.2-.57A2.14,2.14,0,0,1,42.18,26a1.86,1.86,0,0,1-.6,1.79c-.76.76-1.54,1.5-2.32,2.25L39,30.3a2.2,2.2,0,0,1,1.72,2.59,2,2,0,0,1-.18.54,2.55,2.55,0,0,1,1.65,1.25,2,2,0,0,1-.14,2l.42.13a2,2,0,0,1,.81,3.43C41.64,41.82,40,43.4,38.4,45a9.14,9.14,0,0,1-5.69,2.6,5.41,5.41,0,0,1-4.26-1.38c-.52-.48-1-1-1.54-1.49A5.6,5.6,0,0,1,25.67,39a4.64,4.64,0,0,1,.16-.53,10.4,10.4,0,0,0,.08-7.23,1.59,1.59,0,0,1,.43-1.81,1.54,1.54,0,0,1,1.75-.19A4.57,4.57,0,0,1,30.62,32C30.65,32.09,30.67,32.18,30.73,32.38Zm-4.46,8.38a4.37,4.37,0,0,0,1.41,3.48c.42.39.82.79,1.23,1.19a4.66,4.66,0,0,0,3.94,1.25,8.4,8.4,0,0,0,5.07-2.46c1.56-1.49,3.1-3,4.64-4.51a1.15,1.15,0,0,0,.23-1.61l-.15-.16a1.22,1.22,0,0,0-1.74-.09l-.09.09-1.6,1.56c-.23.23-.49.34-.75.07s-.14-.51.1-.73l.86-.83c.62-.63,1.29-1.22,1.85-1.9A1.09,1.09,0,0,0,41,34.59a.89.89,0,0,0-.27-.15c-.7-.3-1.09-.17-1.73.49s-1.54,1.5-2.31,2.25a.45.45,0,0,1-.63,0l-.05,0a.43.43,0,0,1,0-.69l.31-.3c1-1,2-2,3.06-3a1.14,1.14,0,0,0,.18-1.6.86.86,0,0,0-.13-.14,1.21,1.21,0,0,0-1.71-.08.6.6,0,0,0-.08.08l-.38.36-3,2.91c-.23.21-.47.3-.7,0s-.13-.5.11-.73q3.6-3.47,7.18-7A1.16,1.16,0,0,0,41,25.41a1.25,1.25,0,0,0-1.78-.09l-.09.09-4.55,4.4c-1.24,1.21-2.47,2.42-3.73,3.61a.74.74,0,0,1-.57.19c-.13,0-.23-.29-.28-.47-.05-.34-.12-.67-.2-1a3.55,3.55,0,0,0-2.13-2.28.67.67,0,0,0-.94.77,2.11,2.11,0,0,0,.09.36,23.62,23.62,0,0,1,.5,3,26.54,26.54,0,0,1-.16,3.21,2.26,2.26,0,0,1-.19.72A6.64,6.64,0,0,0,26.27,40.76Z" transform="translate(-5.5 -7)"/><path class="cls-1" d="M44.07,30.33l-.46.27-.29-.51.39-.25Z" transform="translate(-5.5 -7)"/><path class="cls-1" d="M38.34,20.22l.21.54-.43.2-.27-.52Z" transform="translate(-5.5 -7)"/><path class="cls-1" d="M36.93,21l.43-.31.32.49-.38.27Z" transform="translate(-5.5 -7)"/><path class="cls-1" d="M35.48,22.5l.31-.42.46.33L36,22.8Z" transform="translate(-5.5 -7)"/><path class="cls-1" d="M34.77,24.49l.09-.53.57.13-.06.43Z" transform="translate(-5.5 -7)"/><path class="cls-1" d="M46.4,27l-.16.48-.51-.16C45.69,26.71,46,26.85,46.4,27Z" transform="translate(-5.5 -7)"/><path class="cls-1" d="M45.54,27.71l.53.23-.22.46-.54-.27Z" transform="translate(-5.5 -7)"/><path class="cls-1" d="M39,20.62l-.14-.55L39.4,20l.05.56Z" transform="translate(-5.5 -7)"/><path class="cls-1" d="M36.93,21.76l-.35.3-.47-.42.37-.37Z" transform="translate(-5.5 -7)"/><path class="cls-1" d="M35.77,23.22l-.17.42-.6-.19.19-.47Z" transform="translate(-5.5 -7)"/><path class="cls-1" d="M44.79,28.9l.28-.36.5.32-.32.41Z" transform="translate(-5.5 -7)"/><path class="cls-1" d="M44.9,29.67l-.36.38-.44-.49.33-.32Z" transform="translate(-5.5 -7)"/><path class="cls-1" d="M42.62,31l-.19-.56.42-.17.27.52Z" transform="translate(-5.5 -7)"/><path class="cls-1" d="M46.47,25.93v.44a1.41,1.41,0,0,1-.46,0c-.11-.05-.1-.24-.17-.42Z" transform="translate(-5.5 -7)"/><path class="cls-1" d="M41.21,56.49l.32-.11c0,.08.09.19,0,.23a.75.75,0,0,1-.25.13l-.11-.28.2.18.06-.18Z" transform="translate(-5.5 -7)"/><path class="cls-1" d="M42.31,56.7h-.15a.19.19,0,0,1-.17-.1h.3Z" transform="translate(-5.5 -7)"/><path class="cls-1" d="M79,35.81q-8.46,0-8.45-8.91c0-3,.76-5.21,2.29-6.77a8.85,8.85,0,0,1,6.59-2.34A12.91,12.91,0,0,1,85,19l-1.45,3.67c-.78-.3-1.5-.55-2.17-.74a7.11,7.11,0,0,0-2-.29q-3.85,0-3.85,5.26,0,5.1,3.85,5.1A9,9,0,0,0,82,31.6a9.47,9.47,0,0,0,2.43-1.14v4.06a8.15,8.15,0,0,1-2.42,1A13.84,13.84,0,0,1,79,35.81Z" transform="translate(-5.5 -7)"/><path class="cls-1" d="M93.58,35.5H88.64V11.3h4.94Z" transform="translate(-5.5 -7)"/><path class="cls-1" d="M98.54,13.62c0-1.55.9-2.32,2.69-2.32s2.69.77,2.69,2.32a2.26,2.26,0,0,1-.67,1.72,2.94,2.94,0,0,1-2,.61C99.44,16,98.54,15.17,98.54,13.62Zm5.15,21.88H98.76V18.11h4.93Z" transform="translate(-5.5 -7)"/><path class="cls-1" d="M116.22,35.81q-8.44,0-8.45-8.91c0-3,.77-5.21,2.3-6.77a8.84,8.84,0,0,1,6.59-2.34A13,13,0,0,1,122.29,19l-1.46,3.67c-.78-.3-1.5-.55-2.17-.74a7.11,7.11,0,0,0-2-.29c-2.57,0-3.85,1.75-3.86,5.26s1.29,5.1,3.86,5.1a9,9,0,0,0,2.63-.37,9.47,9.47,0,0,0,2.43-1.14v4.06a7.79,7.79,0,0,1-2.42,1A13.84,13.84,0,0,1,116.22,35.81Z" transform="translate(-5.5 -7)"/><path class="cls-1" d="M130.66,26l2.15-2.64,5.06-5.29h5.57l-7.18,7.55,7.62,9.84h-5.7l-5.21-7-2.12,1.63V35.5h-4.94V11.3h4.94V22.09L130.59,26Z" transform="translate(-5.5 -7)"/><path class="cls-1" d="M154.09,32a11,11,0,0,0,3.11-.54V35a11.31,11.31,0,0,1-4.53.79,5.7,5.7,0,0,1-4.32-1.44A6.12,6.12,0,0,1,147,30.06V21.67h-2.36v-2l2.72-1.59,1.42-3.67h3.16v3.7H157v3.56h-5.06v8.39a1.83,1.83,0,0,0,.59,1.49A2.35,2.35,0,0,0,154.09,32Z" transform="translate(-5.5 -7)"/><path class="cls-1" d="M173.68,35.5,173,33.28h-.26a5.07,5.07,0,0,1-2.25,1.87,7.84,7.84,0,0,1-3.31.66,6.47,6.47,0,0,1-4.81-1.64,6.43,6.43,0,0,1-1.62-4.72V18.11h4.94V28.27a4.75,4.75,0,0,0,.69,2.82,2.59,2.59,0,0,0,2.22.94,3.37,3.37,0,0,0,3-1.33,8,8,0,0,0,.93-4.41V18.11h4.93V35.5Z" transform="translate(-5.5 -7)"/><path class="cls-1" d="M187.58,35.5h-4.94V11.3h4.94Z" transform="translate(-5.5 -7)"/><path class="cls-1" d="M205.58,35.5l-.67-2.22h-.26a5.07,5.07,0,0,1-2.25,1.87,7.84,7.84,0,0,1-3.31.66,6.47,6.47,0,0,1-4.81-1.64,6.43,6.43,0,0,1-1.62-4.72V18.11h4.94V28.27a4.75,4.75,0,0,0,.69,2.82,2.59,2.59,0,0,0,2.22.94,3.37,3.37,0,0,0,3-1.33,8,8,0,0,0,.93-4.41V18.11h4.93V35.5Z" transform="translate(-5.5 -7)"/><path class="cls-1" d="M230.74,35.5h-4.93V25.34a4.89,4.89,0,0,0-.66-2.82,2.34,2.34,0,0,0-2.06-.94,3,3,0,0,0-2.75,1.34,8.37,8.37,0,0,0-.86,4.4V35.5h-4.94V18.11h3.77l.67,2.23h.27a5,5,0,0,1,2.11-1.88,7,7,0,0,1,3.15-.67q4.06,0,5.5,2.55h.44a4.87,4.87,0,0,1,2.15-1.89,7.45,7.45,0,0,1,3.19-.66,6.53,6.53,0,0,1,4.66,1.51Q242,20.82,242,24.16V35.5h-5V25.34a5,5,0,0,0-.65-2.82,2.35,2.35,0,0,0-2.07-.94,3.11,3.11,0,0,0-2.71,1.25,6.76,6.76,0,0,0-.9,4Z" transform="translate(-5.5 -7)"/><path class="cls-1" d="M70.69,55.53A1.5,1.5,0,0,1,71,54.45a1.28,1.28,0,0,1,1-.37,1.33,1.33,0,0,1,1,.37,1.79,1.79,0,0,1,0,2.15,1.46,1.46,0,0,1-1.94.06A1.43,1.43,0,0,1,70.69,55.53Z" transform="translate(-5.5 -7)"/><path class="cls-1" d="M81.85,56.87a5.34,5.34,0,0,1-4.09-1.56,6.26,6.26,0,0,1-1.44-4.41,6.4,6.4,0,0,1,1.47-4.52A5.35,5.35,0,0,1,82,44.78a8.59,8.59,0,0,1,1.75.18,6.05,6.05,0,0,1,1.37.43l-.56,1.5a7.79,7.79,0,0,0-1.33-.39A6.88,6.88,0,0,0,82,46.35c-2.46,0-3.7,1.51-3.7,4.53a5.18,5.18,0,0,0,.91,3.3,3.18,3.18,0,0,0,2.67,1.15,8.3,8.3,0,0,0,3.11-.63v1.57A6.85,6.85,0,0,1,81.85,56.87Z" transform="translate(-5.5 -7)"/><path class="cls-1" d="M98.27,50.82a6.33,6.33,0,0,1-1.49,4.45,5.4,5.4,0,0,1-4.13,1.6,5.66,5.66,0,0,1-2.9-.73A4.84,4.84,0,0,1,87.81,54a7,7,0,0,1-.69-3.21,6.28,6.28,0,0,1,1.48-4.45,5.33,5.33,0,0,1,4.12-1.59,5.27,5.27,0,0,1,4,1.63A6.22,6.22,0,0,1,98.27,50.82Zm-9.25,0a5.4,5.4,0,0,0,.93,3.4,3.8,3.8,0,0,0,5.37.11,1.14,1.14,0,0,0,.11-.11,5.38,5.38,0,0,0,.94-3.41,5.21,5.21,0,0,0-.94-3.38,3.84,3.84,0,0,0-5.44,0l0,0A5.32,5.32,0,0,0,89,50.82Z" transform="translate(-5.5 -7)"/><path class="cls-1" d="M117,56.66V49.07a3,3,0,0,0-.62-2.09,2.47,2.47,0,0,0-1.93-.7,3.16,3.16,0,0,0-2.53.95,4.35,4.35,0,0,0-.82,2.92v6.51h-1.84V49.07a3,3,0,0,0-.62-2.09,2.5,2.5,0,0,0-1.94-.7,3,3,0,0,0-2.53,1,5.21,5.21,0,0,0-.81,3.26v6.12H101.5V45H103l.3,1.59h.09a3.44,3.44,0,0,1,1.47-1.33,4.6,4.6,0,0,1,2.12-.48c1.9,0,3.14.67,3.72,2h.09a3.79,3.79,0,0,1,1.57-1.45,5.18,5.18,0,0,1,2.35-.53,4.21,4.21,0,0,1,3.08,1,4.37,4.37,0,0,1,1,3.25v7.61Z" transform="translate(-5.5 -7)"/><path class="cls-1" d="M149.86,56.66V49.07a3,3,0,0,0-.62-2.09,2.47,2.47,0,0,0-1.93-.7,3.17,3.17,0,0,0-2.54.95,4.42,4.42,0,0,0-.82,2.92v6.51h-1.84V49.07a3,3,0,0,0-.62-2.09,2.48,2.48,0,0,0-1.94-.7,3,3,0,0,0-2.53,1,5.22,5.22,0,0,0-.8,3.26v6.12h-1.84V45h1.5l.3,1.59h.08a3.63,3.63,0,0,1,1.47-1.33,4.6,4.6,0,0,1,2.12-.48c1.9,0,3.14.66,3.73,2h.08a3.94,3.94,0,0,1,1.58-1.45,5.18,5.18,0,0,1,2.35-.53,4.21,4.21,0,0,1,3.08,1,4.46,4.46,0,0,1,1,3.25v7.61Z" transform="translate(-5.5 -7)"/><path class="cls-1" d="M157.3,50.69a21.32,21.32,0,0,1,1.45-1.7l3.92-4h2.18l-4.91,5,5.26,6.69H163l-4.29-5.51L157.3,52.3v4.36h-1.82V40.1h1.82v8.78a15.38,15.38,0,0,1-.09,1.81Z" transform="translate(-5.5 -7)"/><path class="cls-1" d="M171.31,55.42a7.43,7.43,0,0,0,.94-.07q.36-.06.72-.15v1.35a3,3,0,0,1-.88.23,8.26,8.26,0,0,1-1,.09c-2.35,0-3.53-1.18-3.53-3.56V46.37h-1.73v-.85l1.73-.74.78-2.49h1.06V45h3.52v1.37H169.4v6.86a2.31,2.31,0,0,0,.52,1.62A1.83,1.83,0,0,0,171.31,55.42Z" transform="translate(-5.5 -7)"/><path class="cls-1" d="M189.55,55.1h-.09a4.4,4.4,0,0,1-3.82,1.77,4.58,4.58,0,0,1-3.7-1.56,6.71,6.71,0,0,1-1.32-4.45,6.85,6.85,0,0,1,1.32-4.48,4.55,4.55,0,0,1,3.7-1.6,4.5,4.5,0,0,1,3.79,1.73h.15l-.08-.84V40.1h1.83V56.66H189.8Zm-3.67.29a3.44,3.44,0,0,0,2.73-1,4.91,4.91,0,0,0,.85-3.18v-.37a5.66,5.66,0,0,0-.86-3.54,3.35,3.35,0,0,0-2.75-1.06,2.84,2.84,0,0,0-2.47,1.21,5.84,5.84,0,0,0-.86,3.41,5.59,5.59,0,0,0,.85,3.38A3,3,0,0,0,185.88,55.39Z" transform="translate(-5.5 -7)"/><path class="cls-1" d="M195,41.83a1.13,1.13,0,0,1,.31-.89,1.1,1.1,0,0,1,.77-.28,1.05,1.05,0,0,1,1.1,1,1,1,0,0,1,0,.17,1.14,1.14,0,0,1-.32.89,1.1,1.1,0,0,1-.77.29,1,1,0,0,1-.77-.29A1.13,1.13,0,0,1,195,41.83Zm2,14.83h-1.84V45H197Z" transform="translate(-5.5 -7)"/><path class="cls-1" d="M210.87,45v1.11l-2.25.26a3.49,3.49,0,0,1,.55,1,3.69,3.69,0,0,1,.25,1.36,3.38,3.38,0,0,1-1.22,2.73,5,5,0,0,1-3.35,1,5.55,5.55,0,0,1-1-.09q-1.17.6-1.17,1.5a.77.77,0,0,0,.41.71,3.25,3.25,0,0,0,1.41.23h2.14a5,5,0,0,1,3,.8,2.7,2.7,0,0,1,1.06,2.32,3.29,3.29,0,0,1-1.62,3,8.87,8.87,0,0,1-4.71,1,6.76,6.76,0,0,1-3.68-.85,2.73,2.73,0,0,1-1.29-2.41,2.67,2.67,0,0,1,.71-1.84,3.54,3.54,0,0,1,2-1,2.11,2.11,0,0,1-.79-.63,1.69,1.69,0,0,1-.31-1,1.88,1.88,0,0,1,.35-1.12,3.71,3.71,0,0,1,1.12-.93A3.24,3.24,0,0,1,201,50.82a3.63,3.63,0,0,1-.59-2,3.69,3.69,0,0,1,1.19-3,5,5,0,0,1,3.39-1,5.89,5.89,0,0,1,1.72.22Zm-9.68,13.62a1.57,1.57,0,0,0,.83,1.44,4.79,4.79,0,0,0,2.38.49,7,7,0,0,0,3.43-.67,2,2,0,0,0,1.11-1.8,1.42,1.42,0,0,0-.61-1.32A5,5,0,0,0,206,56.4h-2.21a3,3,0,0,0-2,.57A2,2,0,0,0,201.19,58.62Zm1-9.89a2.31,2.31,0,0,0,.72,1.85,3,3,0,0,0,2,.63c1.79,0,2.69-.84,2.69-2.51a2.4,2.4,0,0,0-2.73-2.63,2.75,2.75,0,0,0-2,.67,2.69,2.69,0,0,0-.69,2Z" transform="translate(-5.5 -7)"/><path class="cls-1" d="M213.2,41.83a1.2,1.2,0,0,1,.31-.89,1.12,1.12,0,0,1,.78-.28,1.23,1.23,0,0,1,.76,2.06,1.17,1.17,0,0,1-1.54,0A1.2,1.2,0,0,1,213.2,41.83Zm2,14.83h-1.84V45h1.84Z" transform="translate(-5.5 -7)"/><path class="cls-1" d="M223,55.42a7.43,7.43,0,0,0,.94-.07q.36-.06.72-.15v1.35a3,3,0,0,1-.88.23,6.2,6.2,0,0,1-1.05.09c-2.35,0-3.52-1.18-3.52-3.56V46.37h-1.74v-.85l1.74-.74.77-2.49h1.07V45h3.52v1.37h-3.52v6.86a2.26,2.26,0,0,0,.52,1.62A1.83,1.83,0,0,0,223,55.42Z" transform="translate(-5.5 -7)"/><path class="cls-1" d="M234.57,56.66,234.21,55h-.09a5.12,5.12,0,0,1-1.81,1.49,6,6,0,0,1-2.26.38,4.14,4.14,0,0,1-2.83-.89,3.19,3.19,0,0,1-1-2.54q0-3.54,5.88-3.71l2.06-.06v-.73a2.88,2.88,0,0,0-.62-2,2.54,2.54,0,0,0-2-.66,8.25,8.25,0,0,0-3.44.9l-.56-1.36a9.06,9.06,0,0,1,2-.73,8.6,8.6,0,0,1,2.14-.27,4.76,4.76,0,0,1,3.22.93,3.81,3.81,0,0,1,1,3v8Zm-4.15-1.24a3.83,3.83,0,0,0,2.69-.91,3.25,3.25,0,0,0,1-2.53V50.92l-1.83.08a7.07,7.07,0,0,0-3.17.65,2,2,0,0,0-1,1.81,1.81,1.81,0,0,0,.61,1.46,2.58,2.58,0,0,0,1.7.5Z" transform="translate(-5.5 -7)"/><path class="cls-1" d="M241.56,56.66h-1.84V40.1h1.84Z" transform="translate(-5.5 -7)"/><circle class="cls-1" cx="121" cy="44" r="3"/></g></svg>