<?xml version="1.0" encoding="utf-8"?>
<!-- Generator: Adobe Illustrator 22.0.0, SVG Export Plug-In . SVG Version: 6.00 Build 0)  -->
<svg version="1.1" xmlns="http://www.w3.org/2000/svg" xmlns:xlink="http://www.w3.org/1999/xlink" x="0px" y="0px"
	 viewBox="0 0 250 76" style="enable-background:new 0 0 250 76;" xml:space="preserve">
<style type="text/css">
	.st0{fill:#EFEFEF;}
	.st1{fill:#E3B138;}
	.st2{fill:#541976;}
	.st3{fill:#20235F;}
	.st4{clip-path:url(#SVGID_2_);}
	.st5{fill:#BE7DAD;}
	.st6{fill:#A6438D;}
	.st7{fill:#651674;}
	.st8{fill:#83007E;}
	.st9{fill:#B0003B;}
	.st10{fill:#9E3889;}
	.st11{fill:#84B692;}
	.st12{fill:url(#XMLID_2_);}
	.st13{fill:#BF1B34;}
	.st14{fill:#A6448E;}
	.st15{fill:#C54A33;}
	.st16{fill:#C96124;}
	.st17{fill:#BE1E42;}
	.st18{fill:#C54D53;}
	.st19{fill:#771631;}
	.st20{fill:#D17920;}
	.st21{fill:#C55047;}
	.st22{fill:url(#XMLID_3_);}
	.st23{fill:url(#XMLID_4_);}
	.st24{fill:url(#XMLID_5_);}
	.st25{fill:#AA5A98;}
	.st26{fill:#78106F;}
	.st27{fill:#B3649D;}
	.st28{fill:#741268;}
	.st29{fill:#040006;}
	.st30{fill:#61A13D;}
	.st31{fill-rule:evenodd;clip-rule:evenodd;fill:#61A13D;}
	.st32{fill:#3A3939;}
	.st33{fill:#2E9CCC;}
	.st34{fill:#229FD8;}
	.st35{fill:#BF3773;}
	.st36{fill:#283786;}
	.st37{fill:none;stroke:#283786;stroke-width:1.9221;stroke-linecap:round;stroke-linejoin:round;stroke-miterlimit:10;}
	.st38{fill:#2F9DA6;}
	.st39{fill:none;stroke:#2F9DA6;stroke-width:2.6617;stroke-linecap:round;stroke-linejoin:round;stroke-miterlimit:10;}
	.st40{fill:none;stroke:#BF3773;stroke-width:1.4416;stroke-linecap:round;stroke-linejoin:round;stroke-miterlimit:10;}
	.st41{fill:#E7B83D;}
	.st42{fill:#23225E;}
	.st43{fill:#FFFFFF;}
	.st44{fill:none;stroke:#E7B83D;stroke-width:2.6617;stroke-linecap:round;stroke-linejoin:round;stroke-miterlimit:10;}
	.st45{opacity:0.24;}
	.st46{fill:#00FFAE;}
	.st47{fill:none;}
	.st48{fill:#229FD8;stroke:#229FD8;stroke-width:0.5;stroke-miterlimit:10;}
	.st49{fill:#18C100;}
</style>
<g id="Capa_2">
</g>
<g id="Capa_3">
</g>
<g id="Capa_1">
	<g>
		<g>
			<g>
				<path class="st36" d="M-19.1,6c-0.1,0-0.2,0-0.3-0.1c-0.2-0.2-0.2-0.4,0-0.6l78-80c0.2-0.2,0.4-0.2,0.6,0c0.2,0.2,0.2,0.4,0,0.6
					l-78,80C-18.8,6-18.9,6-19.1,6z"/>
			</g>
		</g>
		<g>
			<path class="st35" d="M286.8,1c-0.6,0-1.2-0.3-1.5-0.8l-45.9-72.8c-0.3-0.5-0.3-1.1,0-1.7l45.9-72.8c0.3-0.5,0.9-0.8,1.5-0.8
				s1.2,0.3,1.5,0.8l45.9,72.8c0.3,0.5,0.3,1.1,0,1.7L288.3,0.2C288,0.7,287.4,1,286.8,1z M243-73.4l43.9,69.7l43.9-69.7l-43.9-69.7
				L243-73.4z"/>
		</g>
	</g>
	<g>
		<g>
			<g>
				<g>
					<path class="st43" d="M34.5,52.8c-9.3,0-16.8-7.5-16.8-16.8c0-9.3,7.5-16.8,16.8-16.8V7c-16,0-29,13-29,29c0,16,13,29,29,29
						c16,0,29-13,29-29H51.3C51.3,45.3,43.8,52.8,34.5,52.8z"/>
				</g>
			</g>
		</g>
		<g>
			<g>
				<path class="st43" d="M30.7,32.4c1.5-1.4,2.9-2.8,4.3-4.2c1.2-1.1,2.3-2.3,3.5-3.4c0.6-0.6,1.4-0.8,2.2-0.6
					c0.8,0.3,1.3,0.8,1.5,1.7c0.1,0.7-0.1,1.3-0.6,1.8c-0.8,0.8-1.5,1.5-2.3,2.3c-0.1,0.1-0.2,0.2-0.3,0.3c1.6,0.6,2.1,1.8,1.5,3.1
					c0.7,0.2,1.3,0.6,1.6,1.2c0.3,0.7,0.3,1.3-0.1,2c0.1,0,0.3,0.1,0.4,0.1c1.5,0.5,1.9,2.3,0.8,3.4c-1.6,1.6-3.2,3.2-4.9,4.7
					c-1.6,1.5-3.5,2.4-5.7,2.6c-1.6,0.1-3.1-0.3-4.3-1.4c-0.5-0.5-1-1-1.5-1.5c-1.6-1.7-1.8-3.6-1.2-5.7c0-0.2,0.1-0.4,0.2-0.5
					c0.9-2.4,0.9-4.8,0.1-7.2c-0.2-0.7-0.1-1.3,0.4-1.8c0.5-0.5,1.1-0.5,1.8-0.2c1.3,0.5,2,1.6,2.5,2.8
					C30.7,32.1,30.7,32.2,30.7,32.4z M26.3,40.8c0,1.4,0.4,2.6,1.4,3.5c0.4,0.4,0.8,0.8,1.2,1.2c1.1,1.1,2.4,1.4,3.9,1.3
					c2-0.2,3.7-1.1,5.1-2.5c1.6-1.5,3.1-3,4.6-4.5c0.6-0.6,0.6-1.2,0.1-1.8c-0.5-0.5-1.2-0.5-1.8,0c-0.5,0.5-1.1,1-1.6,1.6
					c-0.2,0.2-0.5,0.3-0.7,0.1c-0.3-0.3-0.1-0.5,0.1-0.7c0.3-0.3,0.6-0.5,0.9-0.8c0.6-0.6,1.3-1.2,1.9-1.9c0.5-0.5,0.2-1.4-0.5-1.7
					c-0.7-0.3-1.1-0.2-1.7,0.5c-0.8,0.8-1.5,1.5-2.3,2.3c-0.2,0.2-0.5,0.2-0.7,0c-0.3-0.2-0.2-0.5,0-0.7c0.1-0.1,0.2-0.2,0.3-0.3
					c1-1,2-2,3.1-3c0.6-0.5,0.6-1.2,0-1.7c-0.5-0.5-1.2-0.5-1.8,0c-0.1,0.1-0.3,0.2-0.4,0.4c-1,1-2,1.9-3,2.9
					c-0.2,0.2-0.5,0.3-0.7,0c-0.2-0.3-0.1-0.5,0.1-0.7c2.4-2.3,4.8-4.6,7.2-6.9c0.6-0.6,0.6-1.3,0.1-1.8c-0.6-0.5-1.3-0.5-1.9,0
					c-1.5,1.5-3,2.9-4.5,4.4c-1.2,1.2-2.5,2.4-3.7,3.6c-0.1,0.1-0.4,0.2-0.6,0.2c-0.1,0-0.2-0.3-0.3-0.5c-0.1-0.3-0.1-0.7-0.2-1
					c-0.4-1-1-1.9-2.1-2.3c-0.6-0.2-1,0.2-0.9,0.8c0,0.1,0.1,0.2,0.1,0.4c0.2,1,0.5,1.9,0.5,2.9c0.1,1.1-0.1,2.1-0.2,3.2
					c0,0.2-0.1,0.5-0.2,0.7C26.6,38.9,26.3,39.8,26.3,40.8z"/>
				<path class="st43" d="M44.1,30.3c-0.2,0.1-0.3,0.2-0.5,0.3c-0.1-0.2-0.2-0.3-0.3-0.5c0.1-0.1,0.3-0.2,0.4-0.2
					C43.8,30,43.9,30.1,44.1,30.3z"/>
				<path class="st43" d="M38.3,20.2c0.1,0.2,0.1,0.4,0.2,0.5c-0.1,0.1-0.3,0.1-0.4,0.2c-0.1-0.2-0.2-0.3-0.3-0.5
					C38,20.4,38.2,20.3,38.3,20.2z"/>
				<path class="st43" d="M36.9,21c0.1-0.1,0.3-0.2,0.4-0.3c0.1,0.2,0.2,0.3,0.3,0.5c-0.1,0.1-0.2,0.2-0.4,0.3
					C37.2,21.3,37.1,21.1,36.9,21z"/>
				<path class="st43" d="M35.5,22.5c0.1-0.2,0.2-0.3,0.3-0.4c0.2,0.1,0.3,0.2,0.5,0.3c-0.1,0.1-0.1,0.2-0.2,0.4
					C35.8,22.7,35.7,22.6,35.5,22.5z"/>
				<path class="st43" d="M34.8,24.5c0-0.2,0.1-0.3,0.1-0.5c0.2,0,0.4,0.1,0.6,0.1c0,0.1,0,0.3-0.1,0.4C35.2,24.5,35,24.5,34.8,24.5
					z"/>
				<path class="st43" d="M46.4,26.9c-0.1,0.2-0.1,0.3-0.2,0.5c-0.2-0.1-0.3-0.1-0.5-0.2C45.7,26.7,46,26.8,46.4,26.9z"/>
				<path class="st43" d="M45.5,27.7c0.2,0.1,0.3,0.2,0.5,0.2c-0.1,0.2-0.1,0.3-0.2,0.5c-0.2-0.1-0.4-0.2-0.5-0.3
					C45.4,28,45.5,27.8,45.5,27.7z"/>
				<path class="st43" d="M39,20.6c0-0.2-0.1-0.3-0.1-0.6c0.2,0,0.3,0,0.5-0.1c0,0.2,0,0.4,0,0.6C39.3,20.6,39.2,20.6,39,20.6z"/>
				<path class="st43" d="M36.9,21.8c-0.1,0.1-0.2,0.2-0.3,0.3c-0.2-0.1-0.3-0.3-0.5-0.4c0.1-0.1,0.2-0.2,0.4-0.4
					C36.6,21.5,36.8,21.6,36.9,21.8z"/>
				<path class="st43" d="M35.8,23.2c-0.1,0.1-0.1,0.3-0.2,0.4c-0.2-0.1-0.4-0.1-0.6-0.2c0.1-0.2,0.1-0.3,0.2-0.5
					C35.4,23.1,35.6,23.1,35.8,23.2z"/>
				<path class="st43" d="M44.8,28.9c0.1-0.1,0.2-0.2,0.3-0.4c0.2,0.1,0.3,0.2,0.5,0.3c-0.1,0.1-0.2,0.3-0.3,0.4
					C45.1,29.1,44.9,29,44.8,28.9z"/>
				<path class="st43" d="M44.9,29.7c-0.1,0.1-0.2,0.2-0.4,0.4c-0.2-0.2-0.3-0.3-0.4-0.5c0.1-0.1,0.2-0.2,0.3-0.3
					C44.6,29.4,44.7,29.5,44.9,29.7z"/>
				<path class="st43" d="M42.6,31c-0.1-0.2-0.1-0.4-0.2-0.6c0.1-0.1,0.3-0.1,0.4-0.2c0.1,0.2,0.2,0.3,0.3,0.5
					C43,30.9,42.8,30.9,42.6,31z"/>
				<path class="st43" d="M46.5,25.9c0,0.2,0,0.3,0,0.4c-0.2,0-0.4,0.1-0.5,0c-0.1-0.1-0.1-0.2-0.2-0.4
					C46.1,25.9,46.3,25.9,46.5,25.9z"/>
				<path class="st43" d="M41.2,56.5c0.1,0,0.2-0.1,0.3-0.1c0,0.1,0.1,0.2,0.1,0.2c-0.1,0.1-0.2,0.1-0.3,0.1
					C41.3,56.6,41.3,56.6,41.2,56.5c0.1,0,0.1,0.1,0.2,0.1c0-0.1,0-0.1,0.1-0.2C41.4,56.5,41.3,56.5,41.2,56.5z"/>
				<path class="st43" d="M42.3,56.7c0,0-0.1,0-0.1,0.1c-0.1,0-0.1,0-0.2-0.1C42.1,56.6,42.2,56.6,42.3,56.7
					C42.3,56.6,42.3,56.7,42.3,56.7z"/>
			</g>
		</g>
	</g>
	<g>
		<g>
			<path class="st43" d="M78.9,38.8c-5.6,0-8.4-3-8.4-8.9c0-3,0.8-5.2,2.3-6.8c1.5-1.6,3.7-2.3,6.6-2.3c2.1,0,4,0.4,5.6,1.2
				l-1.5,3.7c-0.8-0.3-1.5-0.5-2.2-0.7c-0.7-0.2-1.3-0.3-2-0.3c-2.6,0-3.9,1.8-3.9,5.3c0,3.4,1.3,5.1,3.9,5.1c1,0,1.8-0.1,2.6-0.4
				c0.8-0.2,1.6-0.6,2.4-1.1v4.1c-0.8,0.5-1.6,0.8-2.4,1S80.2,38.8,78.9,38.8z"/>
			<path class="st43" d="M93.6,38.5h-4.9V14.3h4.9V38.5z"/>
			<path class="st43" d="M98.5,16.6c0-1.5,0.9-2.3,2.7-2.3s2.7,0.8,2.7,2.3c0,0.7-0.2,1.3-0.7,1.7c-0.4,0.4-1.1,0.6-2,0.6
				C99.4,19,98.5,18.2,98.5,16.6z M103.7,38.5h-4.9V21.1h4.9V38.5z"/>
			<path class="st43" d="M116.2,38.8c-5.6,0-8.4-3-8.4-8.9c0-3,0.8-5.2,2.3-6.8c1.5-1.6,3.7-2.3,6.6-2.3c2.1,0,4,0.4,5.6,1.2
				l-1.5,3.7c-0.8-0.3-1.5-0.5-2.2-0.7c-0.7-0.2-1.3-0.3-2-0.3c-2.6,0-3.9,1.8-3.9,5.3c0,3.4,1.3,5.1,3.9,5.1c1,0,1.8-0.1,2.6-0.4
				c0.8-0.2,1.6-0.6,2.4-1.1v4.1c-0.8,0.5-1.6,0.8-2.4,1S117.5,38.8,116.2,38.8z"/>
			<path class="st43" d="M130.7,29l2.2-2.6l5.1-5.3h5.6l-7.2,7.5l7.6,9.8h-5.7l-5.2-7l-2.1,1.6v5.4h-4.9V14.3h4.9v10.8L130.7,29
				L130.7,29z"/>
			<path class="st43" d="M154.1,35c0.9,0,1.9-0.2,3.1-0.5V38c-1.2,0.5-2.7,0.8-4.5,0.8c-2,0-3.4-0.5-4.3-1.4c-0.9-1-1.4-2.4-1.4-4.3
				v-8.4h-2.4v-2l2.7-1.6l1.4-3.7h3.2v3.7h5.1v3.6h-5.1v8.4c0,0.7,0.2,1.2,0.6,1.5C152.9,34.9,153.4,35,154.1,35z"/>
			<path class="st43" d="M173.7,38.5l-0.7-2.2h-0.3c-0.5,0.8-1.3,1.4-2.3,1.9c-1,0.4-2.1,0.7-3.3,0.7c-2.1,0-3.7-0.5-4.8-1.6
				c-1.1-1.1-1.6-2.7-1.6-4.7V21.1h4.9v10.2c0,1.3,0.2,2.2,0.7,2.8c0.5,0.6,1.2,0.9,2.2,0.9c1.4,0,2.4-0.4,3-1.3
				c0.6-0.9,0.9-2.4,0.9-4.4v-8.2h4.9v17.4H173.7z"/>
			<path class="st43" d="M187.6,38.5h-4.9V14.3h4.9V38.5z"/>
			<path class="st43" d="M205.6,38.5l-0.7-2.2h-0.3c-0.5,0.8-1.3,1.4-2.3,1.9c-1,0.4-2.1,0.7-3.3,0.7c-2.1,0-3.7-0.5-4.8-1.6
				c-1.1-1.1-1.6-2.7-1.6-4.7V21.1h4.9v10.2c0,1.3,0.2,2.2,0.7,2.8c0.5,0.6,1.2,0.9,2.2,0.9c1.4,0,2.4-0.4,3-1.3
				c0.6-0.9,0.9-2.4,0.9-4.4v-8.2h4.9v17.4H205.6z"/>
			<path class="st43" d="M230.7,38.5h-4.9V28.3c0-1.3-0.2-2.2-0.7-2.8c-0.4-0.6-1.1-0.9-2.1-0.9c-1.3,0-2.2,0.4-2.8,1.3
				c-0.6,0.9-0.9,2.4-0.9,4.4v8.2h-4.9V21.1h3.8l0.7,2.2h0.3c0.5-0.8,1.2-1.4,2.1-1.9s2-0.7,3.2-0.7c2.7,0,4.5,0.9,5.5,2.6h0.4
				c0.5-0.8,1.2-1.4,2.1-1.9c0.9-0.4,2-0.7,3.2-0.7c2,0,3.6,0.5,4.7,1.5c1.1,1,1.6,2.6,1.6,4.9v11.3h-5V28.3c0-1.3-0.2-2.2-0.7-2.8
				c-0.4-0.6-1.1-0.9-2.1-0.9c-1.2,0-2.1,0.4-2.7,1.2c-0.6,0.8-0.9,2.1-0.9,4V38.5z"/>
		</g>
		<g>
			<path class="st43" d="M85.1,59.5v-7.3c0-0.9-0.2-1.6-0.6-2c-0.4-0.4-1-0.7-1.8-0.7c-1.1,0-1.8,0.3-2.3,0.9s-0.8,1.5-0.8,2.8v6.3
				H78v-7.3c0-0.9-0.2-1.6-0.6-2c-0.4-0.4-1-0.7-1.8-0.7c-1.1,0-1.8,0.3-2.3,1c-0.5,0.6-0.7,1.7-0.7,3.1v5.9h-1.7V48.3h1.4l0.3,1.5
				h0.1c0.3-0.5,0.8-1,1.4-1.3c0.6-0.3,1.2-0.5,2-0.5c1.8,0,2.9,0.6,3.4,1.9h0.1c0.3-0.6,0.8-1.1,1.5-1.4s1.4-0.5,2.2-0.5
				c1.3,0,2.2,0.3,2.9,1c0.6,0.7,0.9,1.7,0.9,3.1v7.3H85.1z"/>
			<path class="st43" d="M97.9,59.5l-0.3-1.6h-0.1c-0.6,0.7-1.1,1.2-1.7,1.4c-0.6,0.2-1.3,0.4-2.1,0.4c-1.1,0-2-0.3-2.6-0.9
				c-0.6-0.6-0.9-1.4-0.9-2.5c0-2.3,1.8-3.5,5.4-3.6l1.9-0.1v-0.7c0-0.9-0.2-1.5-0.6-2c-0.4-0.4-1-0.6-1.8-0.6c-0.9,0-2,0.3-3.2,0.9
				L91.4,49c0.6-0.3,1.2-0.5,1.8-0.7c0.7-0.2,1.3-0.3,2-0.3c1.3,0,2.3,0.3,3,0.9c0.6,0.6,1,1.5,1,2.9v7.7H97.9z M94.1,58.3
				c1.1,0,1.9-0.3,2.5-0.9c0.6-0.6,0.9-1.4,0.9-2.4v-1L95.8,54c-1.4,0-2.3,0.3-2.9,0.6c-0.6,0.4-0.9,1-0.9,1.7
				c0,0.6,0.2,1.1,0.6,1.4C92.9,58.1,93.4,58.3,94.1,58.3z"/>
			<path class="st43" d="M108.5,48.1c0.5,0,0.9,0,1.3,0.1l-0.2,1.6c-0.5-0.1-0.9-0.2-1.2-0.2c-0.9,0-1.7,0.4-2.3,1.1
				c-0.6,0.7-1,1.7-1,2.8v6h-1.7V48.3h1.4l0.2,2.1h0.1c0.4-0.7,0.9-1.3,1.5-1.7C107.1,48.3,107.8,48.1,108.5,48.1z"/>
			<path class="st43" d="M114.3,53.7c0.3-0.4,0.7-1,1.3-1.6l3.6-3.8h2l-4.6,4.8l4.9,6.4h-2.1l-4-5.3l-1.3,1.1v4.2h-1.7v-16h1.7V52
				C114.3,52.4,114.3,53,114.3,53.7L114.3,53.7z"/>
			<path class="st43" d="M129.1,59.7c-1.7,0-3-0.5-3.9-1.5c-1-1-1.4-2.4-1.4-4.2c0-1.8,0.4-3.3,1.3-4.3c0.9-1.1,2.1-1.6,3.6-1.6
				c1.4,0,2.5,0.5,3.3,1.4c0.8,0.9,1.2,2.1,1.2,3.7v1.1h-7.7c0,1.3,0.4,2.3,1,3c0.6,0.7,1.5,1,2.7,1c1.2,0,2.4-0.3,3.6-0.8V59
				c-0.6,0.3-1.2,0.4-1.7,0.6C130.5,59.6,129.8,59.7,129.1,59.7z M128.6,49.5c-0.9,0-1.6,0.3-2.2,0.9c-0.5,0.6-0.9,1.4-0.9,2.4h5.9
				c0-1.1-0.2-1.9-0.7-2.5C130.2,49.8,129.5,49.5,128.6,49.5z"/>
			<path class="st43" d="M140.4,58.3c0.3,0,0.6,0,0.9-0.1c0.3,0,0.5-0.1,0.7-0.1v1.3c-0.2,0.1-0.5,0.2-0.8,0.2
				c-0.4,0.1-0.7,0.1-1,0.1c-2.2,0-3.3-1.1-3.3-3.4v-6.7h-1.6v-0.8l1.6-0.7l0.7-2.4h1v2.6h3.3v1.3h-3.3v6.6c0,0.7,0.2,1.2,0.5,1.6
				S139.8,58.3,140.4,58.3z"/>
			<path class="st43" d="M144.7,45.2c0-0.4,0.1-0.7,0.3-0.9c0.2-0.2,0.4-0.3,0.7-0.3c0.3,0,0.5,0.1,0.7,0.3s0.3,0.5,0.3,0.9
				s-0.1,0.7-0.3,0.9c-0.2,0.2-0.4,0.3-0.7,0.3c-0.3,0-0.5-0.1-0.7-0.3C144.8,45.9,144.7,45.6,144.7,45.2z M146.5,59.5h-1.7V48.3
				h1.7V59.5z"/>
			<path class="st43" d="M158.5,59.5v-7.3c0-0.9-0.2-1.6-0.6-2.1s-1.1-0.7-2-0.7c-1.2,0-2,0.3-2.6,1s-0.8,1.7-0.8,3.1v5.9h-1.7V48.3
				h1.4l0.3,1.5h0.1c0.3-0.6,0.8-1,1.5-1.3c0.6-0.3,1.3-0.5,2.1-0.5c1.4,0,2.4,0.3,3.1,1c0.7,0.7,1,1.7,1,3.1v7.3H158.5z"/>
			<path class="st43" d="M173.6,48.3v1.1l-2.1,0.2c0.2,0.2,0.4,0.6,0.5,0.9c0.2,0.4,0.2,0.8,0.2,1.3c0,1.1-0.4,2-1.1,2.6
				s-1.8,1-3.1,1c-0.3,0-0.6,0-0.9-0.1c-0.7,0.4-1.1,0.9-1.1,1.4c0,0.3,0.1,0.5,0.4,0.7c0.3,0.1,0.7,0.2,1.3,0.2h2
				c1.2,0,2.2,0.3,2.8,0.8c0.7,0.5,1,1.3,1,2.2c0,1.2-0.5,2.2-1.5,2.8c-1,0.7-2.5,1-4.4,1c-1.5,0-2.6-0.3-3.4-0.8
				c-0.8-0.5-1.2-1.3-1.2-2.3c0-0.7,0.2-1.3,0.7-1.8c0.4-0.5,1.1-0.8,1.8-1c-0.3-0.1-0.5-0.3-0.7-0.6c-0.2-0.3-0.3-0.6-0.3-1
				c0-0.4,0.1-0.8,0.3-1.1c0.2-0.3,0.6-0.6,1-0.9c-0.6-0.2-1.1-0.6-1.4-1.2c-0.4-0.6-0.5-1.2-0.5-2c0-1.2,0.4-2.2,1.1-2.8
				c0.7-0.7,1.8-1,3.1-1c0.6,0,1.1,0.1,1.6,0.2H173.6z M164.6,61.4c0,0.6,0.3,1.1,0.8,1.4c0.5,0.3,1.2,0.5,2.2,0.5
				c1.4,0,2.5-0.2,3.2-0.6c0.7-0.4,1-1,1-1.7c0-0.6-0.2-1-0.6-1.3c-0.4-0.2-1.1-0.4-2.1-0.4h-2c-0.8,0-1.4,0.2-1.8,0.6
				S164.6,60.7,164.6,61.4z M165.6,51.9c0,0.8,0.2,1.4,0.7,1.8c0.4,0.4,1.1,0.6,1.9,0.6c1.7,0,2.5-0.8,2.5-2.4
				c0-1.7-0.8-2.5-2.5-2.5c-0.8,0-1.4,0.2-1.8,0.6S165.6,51,165.6,51.9z"/>
			<path class="st43" d="M190.3,58L190.3,58c-0.9,1.1-2.1,1.7-3.6,1.7c-1.5,0-2.6-0.5-3.4-1.5c-0.8-1-1.2-2.4-1.2-4.3
				s0.4-3.3,1.2-4.3s2-1.5,3.4-1.5c1.5,0,2.7,0.6,3.5,1.7h0.1l-0.1-0.8l0-0.8v-4.6h1.7v16h-1.4L190.3,58z M186.9,58.3
				c1.2,0,2-0.3,2.5-0.9c0.5-0.6,0.8-1.7,0.8-3.1v-0.4c0-1.6-0.3-2.7-0.8-3.4c-0.5-0.7-1.4-1-2.5-1c-1,0-1.8,0.4-2.3,1.2
				c-0.5,0.8-0.8,1.9-0.8,3.3c0,1.4,0.3,2.5,0.8,3.3S185.9,58.3,186.9,58.3z"/>
			<path class="st43" d="M196.1,45.2c0-0.4,0.1-0.7,0.3-0.9c0.2-0.2,0.4-0.3,0.7-0.3c0.3,0,0.5,0.1,0.7,0.3s0.3,0.5,0.3,0.9
				s-0.1,0.7-0.3,0.9c-0.2,0.2-0.4,0.3-0.7,0.3c-0.3,0-0.5-0.1-0.7-0.3C196.2,45.9,196.1,45.6,196.1,45.2z M197.9,59.5h-1.7V48.3
				h1.7V59.5z"/>
			<path class="st43" d="M211.4,48.3v1.1l-2.1,0.2c0.2,0.2,0.4,0.6,0.5,0.9c0.2,0.4,0.2,0.8,0.2,1.3c0,1.1-0.4,2-1.1,2.6
				s-1.8,1-3.1,1c-0.3,0-0.6,0-0.9-0.1c-0.7,0.4-1.1,0.9-1.1,1.4c0,0.3,0.1,0.5,0.4,0.7c0.3,0.1,0.7,0.2,1.3,0.2h2
				c1.2,0,2.2,0.3,2.8,0.8c0.7,0.5,1,1.3,1,2.2c0,1.2-0.5,2.2-1.5,2.8c-1,0.7-2.5,1-4.4,1c-1.5,0-2.6-0.3-3.4-0.8
				c-0.8-0.5-1.2-1.3-1.2-2.3c0-0.7,0.2-1.3,0.7-1.8c0.4-0.5,1.1-0.8,1.8-1c-0.3-0.1-0.5-0.3-0.7-0.6c-0.2-0.3-0.3-0.6-0.3-1
				c0-0.4,0.1-0.8,0.3-1.1c0.2-0.3,0.6-0.6,1-0.9c-0.6-0.2-1.1-0.6-1.4-1.2c-0.4-0.6-0.5-1.2-0.5-2c0-1.2,0.4-2.2,1.1-2.8
				c0.7-0.7,1.8-1,3.1-1c0.6,0,1.1,0.1,1.6,0.2H211.4z M202.5,61.4c0,0.6,0.3,1.1,0.8,1.4c0.5,0.3,1.2,0.5,2.2,0.5
				c1.4,0,2.5-0.2,3.2-0.6c0.7-0.4,1-1,1-1.7c0-0.6-0.2-1-0.6-1.3c-0.4-0.2-1.1-0.4-2.1-0.4h-2c-0.8,0-1.4,0.2-1.8,0.6
				S202.5,60.7,202.5,61.4z M203.4,51.9c0,0.8,0.2,1.4,0.7,1.8c0.4,0.4,1.1,0.6,1.9,0.6c1.7,0,2.5-0.8,2.5-2.4
				c0-1.7-0.8-2.5-2.5-2.5c-0.8,0-1.4,0.2-1.8,0.6S203.4,51,203.4,51.9z"/>
			<path class="st43" d="M214.3,45.2c0-0.4,0.1-0.7,0.3-0.9c0.2-0.2,0.4-0.3,0.7-0.3c0.3,0,0.5,0.1,0.7,0.3s0.3,0.5,0.3,0.9
				s-0.1,0.7-0.3,0.9c-0.2,0.2-0.4,0.3-0.7,0.3c-0.3,0-0.5-0.1-0.7-0.3C214.3,45.9,214.3,45.6,214.3,45.2z M216.1,59.5h-1.7V48.3
				h1.7V59.5z"/>
			<path class="st43" d="M224,58.3c0.3,0,0.6,0,0.9-0.1c0.3,0,0.5-0.1,0.7-0.1v1.3c-0.2,0.1-0.5,0.2-0.8,0.2c-0.4,0.1-0.7,0.1-1,0.1
				c-2.2,0-3.3-1.1-3.3-3.4v-6.7h-1.6v-0.8l1.6-0.7l0.7-2.4h1v2.6h3.3v1.3h-3.3v6.6c0,0.7,0.2,1.2,0.5,1.6S223.5,58.3,224,58.3z"/>
			<path class="st43" d="M235.4,59.5l-0.3-1.6H235c-0.6,0.7-1.1,1.2-1.7,1.4c-0.6,0.2-1.3,0.4-2.1,0.4c-1.1,0-2-0.3-2.6-0.9
				c-0.6-0.6-0.9-1.4-0.9-2.5c0-2.3,1.8-3.5,5.4-3.6l1.9-0.1v-0.7c0-0.9-0.2-1.5-0.6-2c-0.4-0.4-1-0.6-1.8-0.6c-0.9,0-2,0.3-3.2,0.9
				l-0.5-1.3c0.6-0.3,1.2-0.5,1.8-0.7c0.7-0.2,1.3-0.3,2-0.3c1.3,0,2.3,0.3,3,0.9c0.6,0.6,1,1.5,1,2.9v7.7H235.4z M231.5,58.3
				c1.1,0,1.9-0.3,2.5-0.9c0.6-0.6,0.9-1.4,0.9-2.4v-1l-1.7,0.1c-1.4,0-2.3,0.3-2.9,0.6c-0.6,0.4-0.9,1-0.9,1.7
				c0,0.6,0.2,1.1,0.6,1.4C230.3,58.1,230.9,58.3,231.5,58.3z"/>
			<path class="st43" d="M242.5,59.5h-1.7v-16h1.7V59.5z"/>
		</g>
	</g>
</g>
</svg>
