<svg id="Capa_1" data-name="Capa 1" xmlns="http://www.w3.org/2000/svg" viewBox="0 0 250.02 75.97"><defs><style>.cls-1{fill:#fff;}</style></defs><title>i7</title><path class="cls-1" d="M105,12.05V49.72h-3.56V45.05a15.54,15.54,0,0,1-5.1,4,14.13,14.13,0,0,1-6.18,1.35A14.32,14.32,0,0,1,75.79,36.06,13.56,13.56,0,0,1,80,26a14.11,14.11,0,0,1,10.24-4.17,13.6,13.6,0,0,1,6.26,1.43,14.06,14.06,0,0,1,4.92,4.27V12.05ZM90.58,25.21A11.11,11.11,0,0,0,85,26.65a11.09,11.09,0,0,0-5.57,9.52,11.25,11.25,0,0,0,5.6,9.57,11,11,0,0,0,5.51,1.46,11.5,11.5,0,0,0,5.61-1.45,10.3,10.3,0,0,0,4.09-3.92,10.91,10.91,0,0,0,1.43-5.56,10.65,10.65,0,0,0-3.21-7.89A10.81,10.81,0,0,0,90.58,25.21Z"/><path class="cls-1" d="M147.39,40.7l3.05,1.55a16.17,16.17,0,0,1-3.46,4.6,14,14,0,0,1-4.42,2.66,15.76,15.76,0,0,1-5.55.91q-6.87,0-10.74-4.36a14.44,14.44,0,0,1-3.88-9.85A14.28,14.28,0,0,1,125.67,27a13.59,13.59,0,0,1,11.13-5.15,14,14,0,0,1,11.47,5.27,14.45,14.45,0,0,1,3.1,9.3H126.11a10.87,10.87,0,0,0,3.13,7.76,10.11,10.11,0,0,0,7.46,3,12.36,12.36,0,0,0,4.17-.72,11.24,11.24,0,0,0,3.45-1.92A16.27,16.27,0,0,0,147.39,40.7Zm0-7.32a11.48,11.48,0,0,0-2.1-4.47,10,10,0,0,0-3.66-2.7,11.52,11.52,0,0,0-4.77-1,10.52,10.52,0,0,0-7.11,2.57,11.56,11.56,0,0,0-3.28,5.62Z"/><path class="cls-1" d="M166,22.54h3.84l9.43,19.81,9.3-19.81h3.87L179.61,49.72h-.68Z"/><path class="cls-1" d="M222.63,25.51l-2.32,2.33c-1.94-1.82-3.82-2.73-5.67-2.73a4.35,4.35,0,0,0-3,1.13,3.41,3.41,0,0,0-1.26,2.62,3.8,3.8,0,0,0,1,2.52,14.39,14.39,0,0,0,4.34,2.88,16.25,16.25,0,0,1,5.48,3.89,7,7,0,0,1,1.42,4.28,7.55,7.55,0,0,1-2.43,5.67,8.41,8.41,0,0,1-6.07,2.32,11,11,0,0,1-4.64-1,10.07,10.07,0,0,1-3.65-2.83l2.27-2.5q2.76,3,5.87,3a5.39,5.39,0,0,0,3.7-1.35,4.14,4.14,0,0,0,1.52-3.17,4,4,0,0,0-1-2.68A16.11,16.11,0,0,0,213.66,37a14.71,14.71,0,0,1-5.17-3.75A6.92,6.92,0,0,1,207.12,29a6.76,6.76,0,0,1,2.19-5.15,7.75,7.75,0,0,1,5.51-2.05C217.41,21.84,220,23.07,222.63,25.51Z"/><path class="cls-1" d="M28,59.36h1.27v.56A2.35,2.35,0,0,1,30,59.4a2.25,2.25,0,0,1,.87-.17,1.64,1.64,0,0,1,.85.23,1.6,1.6,0,0,1,.61.65,2.09,2.09,0,0,1,.74-.65,2.12,2.12,0,0,1,1-.23,1.75,1.75,0,0,1,1,.25,1.43,1.43,0,0,1,.59.63,3.25,3.25,0,0,1,.18,1.27v2.87H34.45V61.77a2.11,2.11,0,0,0-.21-1.13.77.77,0,0,0-.64-.29,1,1,0,0,0-.59.18,1,1,0,0,0-.38.49,3.16,3.16,0,0,0-.12,1v2.21H31.23V61.88a3.12,3.12,0,0,0-.1-1,.91.91,0,0,0-.3-.44.83.83,0,0,0-.48-.14,1,1,0,0,0-.58.18,1,1,0,0,0-.38.51,2.92,2.92,0,0,0-.13,1v2.18H28Z"/><path class="cls-1" d="M39.32,57.47h1.26v3.9l1.87-2H44L41.86,61.7l2.44,2.55H42.73L40.58,62v2.26H39.32Z"/><path class="cls-1" d="M47.35,57.56h1.26v1.8h.76v1h-.76v3.84H47.35V60.41H46.7v-1h.65Z"/><path class="cls-1" d="M61.18,57.47h1.26v6.78H61.18v-.52a2.47,2.47,0,0,1-.75.49,2.07,2.07,0,0,1-.8.15,2.29,2.29,0,0,1-1.7-.73,2.77,2.77,0,0,1,0-3.68,2.21,2.21,0,0,1,1.68-.73,2.19,2.19,0,0,1,.85.17,2.36,2.36,0,0,1,.74.5Zm-1.33,2.9a1.3,1.3,0,0,0-1,.4,1.55,1.55,0,0,0,0,2.07,1.39,1.39,0,0,0,2,0,1.46,1.46,0,0,0,.39-1.06,1.4,1.4,0,0,0-.39-1A1.34,1.34,0,0,0,59.85,60.37Z"/><path class="cls-1" d="M66.59,57.35a.78.78,0,0,1,.58.23.79.79,0,0,1,.23.57.75.75,0,0,1-.23.56.81.81,0,0,1-.57.23.82.82,0,0,1-.81-.81.72.72,0,0,1,.24-.55A.73.73,0,0,1,66.59,57.35Zm-.63,2h1.27v4.89H66Z"/><path class="cls-1" d="M74.48,59.36h1.27v4.19a2.73,2.73,0,0,1-.52,1.82,2.6,2.6,0,0,1-2.08.79A3.76,3.76,0,0,1,71.9,66a2.12,2.12,0,0,1-.85-.53,2,2,0,0,1-.52-.84h1.4a1.18,1.18,0,0,0,.48.31,2,2,0,0,0,.69.1,1.91,1.91,0,0,0,.82-.15,1,1,0,0,0,.44-.39,2.09,2.09,0,0,0,.12-.84,2.06,2.06,0,0,1-.7.47,2.37,2.37,0,0,1-.83.14,2.32,2.32,0,0,1-1.71-.71,2.47,2.47,0,0,1-.7-1.8,2.43,2.43,0,0,1,.74-1.87,2.27,2.27,0,0,1,1.6-.64,2.31,2.31,0,0,1,.83.16,2.57,2.57,0,0,1,.77.51Zm-1.31,1a1.34,1.34,0,0,0-1,.39,1.31,1.31,0,0,0-.39,1,1.35,1.35,0,0,0,1.4,1.4,1.35,1.35,0,0,0,1-.38,1.39,1.39,0,0,0,.38-1,1.32,1.32,0,0,0-1.38-1.37Z"/><path class="cls-1" d="M79.9,57.35a.8.8,0,0,1,.81.8.76.76,0,0,1-.24.56.81.81,0,0,1-.57.23.82.82,0,0,1-.81-.81.72.72,0,0,1,.24-.55A.74.74,0,0,1,79.9,57.35Zm-.64,2h1.27v4.89H79.26Z"/><path class="cls-1" d="M84.21,57.56h1.26v1.8h.76v1h-.76v3.84H84.21V60.41h-.65v-1h.65Z"/><path class="cls-1" d="M93,59.36h1.27v4.89H93v-.52a2.32,2.32,0,0,1-.74.49,2.16,2.16,0,0,1-.81.15,2.28,2.28,0,0,1-1.69-.73,2.5,2.5,0,0,1-.71-1.83A2.57,2.57,0,0,1,89.74,60a2.21,2.21,0,0,1,1.67-.73,2.24,2.24,0,0,1,.86.17,2.32,2.32,0,0,1,.73.5Zm-1.33,1a1.28,1.28,0,0,0-1,.4,1.42,1.42,0,0,0-.39,1,1.44,1.44,0,0,0,.39,1,1.33,1.33,0,0,0,1,.41,1.34,1.34,0,0,0,1-.4,1.46,1.46,0,0,0,.39-1.06,1.4,1.4,0,0,0-.39-1A1.38,1.38,0,0,0,91.67,60.37Z"/><path class="cls-1" d="M97.79,57.47h1.26v6.78H97.79Z"/><path class="cls-1" d="M112,61.65l.77.86-.35.31-.34.3,1.09,1.13h-1.57l-.45-.45a4.09,4.09,0,0,1-2,.61,1.82,1.82,0,0,1-1.27-.44,1.47,1.47,0,0,1-.49-1.14,1.92,1.92,0,0,1,.28-1,3.35,3.35,0,0,1,.94-1,2.62,2.62,0,0,1-.66-1.52,1.45,1.45,0,0,1,.44-1,1.6,1.6,0,0,1,1.22-.47,1.61,1.61,0,0,1,1.24.47,1.44,1.44,0,0,1,.43.95,1.49,1.49,0,0,1-.2.73,5.56,5.56,0,0,1-.91,1c.56.63.91,1,1.07,1.18C111.37,62.19,111.63,62,112,61.65Zm-1.69,1.27a11.44,11.44,0,0,1-1-1.13c-.46.37-.69.69-.69,1a.47.47,0,0,0,.19.36.72.72,0,0,0,.47.16A2.22,2.22,0,0,0,110.34,62.92Zm-.78-2.72c.34-.29.52-.54.52-.76a.36.36,0,0,0-.12-.28.45.45,0,0,0-.31-.11.41.41,0,0,0-.3.13.38.38,0,0,0-.12.28A1.28,1.28,0,0,0,109.56,60.2Z"/><path class="cls-1" d="M125.21,57.47h1.27v6.78h-1.27v-.52a2.56,2.56,0,0,1-.74.49,2.16,2.16,0,0,1-.81.15,2.26,2.26,0,0,1-1.69-.73,2.51,2.51,0,0,1-.72-1.83,2.57,2.57,0,0,1,.69-1.85,2.21,2.21,0,0,1,1.68-.73,2.19,2.19,0,0,1,.85.17,2.36,2.36,0,0,1,.74.5Zm-1.33,2.9a1.3,1.3,0,0,0-1,.4,1.42,1.42,0,0,0-.39,1,1.45,1.45,0,0,0,.4,1,1.39,1.39,0,0,0,2,0,1.47,1.47,0,0,0,.4-1.06,1.41,1.41,0,0,0-.4-1A1.34,1.34,0,0,0,123.88,60.37Z"/><path class="cls-1" d="M135.19,62.16h-4.07a1.34,1.34,0,0,0,.47.83,1.55,1.55,0,0,0,1,.3,1.72,1.72,0,0,0,1.22-.48l1.07.49a2.64,2.64,0,0,1-1,.81,3,3,0,0,1-1.32.26,2.69,2.69,0,0,1-1.94-.72,2.43,2.43,0,0,1-.74-1.82,2.5,2.5,0,0,1,.74-1.86,2.56,2.56,0,0,1,1.87-.74,2.66,2.66,0,0,1,1.94.74,2.63,2.63,0,0,1,.74,2Zm-1.27-1a1.23,1.23,0,0,0-.49-.66,1.48,1.48,0,0,0-.86-.26,1.58,1.58,0,0,0-.93.29,1.56,1.56,0,0,0-.46.63Z"/><path class="cls-1" d="M141.68,60l-.78.76a1.38,1.38,0,0,0-.87-.46.59.59,0,0,0-.34.09.26.26,0,0,0-.12.22.27.27,0,0,0,.08.18,1.43,1.43,0,0,0,.38.23l.46.22a2.7,2.7,0,0,1,1,.72,1.37,1.37,0,0,1,.27.85,1.4,1.4,0,0,1-.49,1.09,1.94,1.94,0,0,1-1.33.43,2.15,2.15,0,0,1-1.76-.83l.78-.83a1.72,1.72,0,0,0,.52.41,1.13,1.13,0,0,0,.53.16.65.65,0,0,0,.41-.12.34.34,0,0,0,.15-.27c0-.19-.18-.37-.55-.55l-.43-.21c-.81-.4-1.22-.9-1.22-1.49a1.29,1.29,0,0,1,.46-1,1.73,1.73,0,0,1,1.18-.41,2.06,2.06,0,0,1,1.66.81Z"/><path class="cls-1" d="M148.87,59.36h1.27v4.89h-1.27v-.52a2.43,2.43,0,0,1-.74.49,2.16,2.16,0,0,1-.81.15,2.26,2.26,0,0,1-1.69-.73,2.51,2.51,0,0,1-.72-1.83A2.57,2.57,0,0,1,145.6,60a2.21,2.21,0,0,1,1.68-.73,2.15,2.15,0,0,1,.85.17,2.25,2.25,0,0,1,.74.5Zm-1.33,1a1.3,1.3,0,0,0-1,.4,1.58,1.58,0,0,0,0,2.07,1.39,1.39,0,0,0,2,0,1.42,1.42,0,0,0,.4-1.06,1.37,1.37,0,0,0-.4-1A1.34,1.34,0,0,0,147.54,60.37Z"/><path class="cls-1" d="M153.5,59.36h1.08V60a1.42,1.42,0,0,1,.47-.55,1.23,1.23,0,0,1,.64-.19,1.33,1.33,0,0,1,.52.13l-.4,1a.89.89,0,0,0-.36-.1.58.58,0,0,0-.5.35,3.16,3.16,0,0,0-.2,1.37v2.22H153.5Z"/><path class="cls-1" d="M158.91,59.36H160V60a1.32,1.32,0,0,1,.46-.55,1.23,1.23,0,0,1,.65-.19,1.28,1.28,0,0,1,.51.13l-.39,1a.89.89,0,0,0-.37-.1.55.55,0,0,0-.49.35,3,3,0,0,0-.21,1.37v2.22h-1.26Z"/><path class="cls-1" d="M167,59.23a2.77,2.77,0,0,1,1.35.35,2.6,2.6,0,0,1,1,.94,2.56,2.56,0,0,1-1,3.51,2.71,2.71,0,0,1-1.35.34,2.57,2.57,0,0,1-1.86-.75,2.42,2.42,0,0,1-.76-1.81,2.45,2.45,0,0,1,.86-1.91A2.56,2.56,0,0,1,167,59.23Zm0,1.16a1.3,1.3,0,0,0-1,.4,1.37,1.37,0,0,0-.39,1,1.43,1.43,0,0,0,.39,1,1.43,1.43,0,0,0,2,0,1.56,1.56,0,0,0,0-2A1.35,1.35,0,0,0,167,60.39Z"/><path class="cls-1" d="M172.94,57.47h1.27v6.78h-1.27Z"/><path class="cls-1" d="M177.59,57.47h1.27v6.78h-1.27Z"/><path class="cls-1" d="M184.76,59.23a2.76,2.76,0,0,1,1.34.35,2.47,2.47,0,0,1,1,.94,2.4,2.4,0,0,1,.35,1.28,2.55,2.55,0,0,1-.35,1.29,2.5,2.5,0,0,1-1,.94,2.71,2.71,0,0,1-1.35.34,2.55,2.55,0,0,1-1.85-.75,2.52,2.52,0,0,1,.1-3.72A2.54,2.54,0,0,1,184.76,59.23Zm0,1.16a1.33,1.33,0,0,0-1,.4,1.37,1.37,0,0,0-.39,1,1.43,1.43,0,0,0,.39,1,1.33,1.33,0,0,0,1,.39,1.31,1.31,0,0,0,1-.4,1.53,1.53,0,0,0,0-2A1.34,1.34,0,0,0,184.78,60.39Z"/><path class="cls-1" d="M195.32,59.36h1.24l1,2.78,1.1-2.78h.75l1.08,2.75,1-2.75h1.25l-1.84,4.89h-.8L199,61.46l-1.11,2.79h-.79Z"/><path class="cls-1" d="M210.91,62.16h-4.07a1.34,1.34,0,0,0,.47.83,1.55,1.55,0,0,0,1,.3,1.72,1.72,0,0,0,1.22-.48l1.07.49a2.64,2.64,0,0,1-1,.81,3,3,0,0,1-1.32.26,2.67,2.67,0,0,1-1.94-.72,2.43,2.43,0,0,1-.74-1.82,2.5,2.5,0,0,1,.74-1.86,2.56,2.56,0,0,1,1.87-.74,2.66,2.66,0,0,1,1.94.74,2.63,2.63,0,0,1,.74,2Zm-1.27-1a1.23,1.23,0,0,0-.49-.66,1.48,1.48,0,0,0-.86-.26,1.58,1.58,0,0,0-.93.29,1.56,1.56,0,0,0-.46.63Z"/><path class="cls-1" d="M215.57,57.47V59.9a2.25,2.25,0,0,1,.74-.5,2.27,2.27,0,0,1,2.53.56,2.77,2.77,0,0,1,0,3.68,2.28,2.28,0,0,1-1.69.73,2.21,2.21,0,0,1-.82-.15,2.32,2.32,0,0,1-.74-.49v.52h-1.26V57.47Zm1.33,2.9a1.34,1.34,0,0,0-1,.39,1.37,1.37,0,0,0-.4,1,1.42,1.42,0,0,0,.4,1.06,1.31,1.31,0,0,0,1,.4,1.34,1.34,0,0,0,1-.41,1.44,1.44,0,0,0,.39-1,1.42,1.42,0,0,0-.39-1A1.3,1.3,0,0,0,216.9,60.37Z"/><path class="cls-1" d="M28.73,20.66l4.69,3.74V49.72H28.73Z"/><path class="cls-1" d="M70.35,9.46h.38l-18,40.26H47.81L63.64,13.91H46.9l-5-4.45Z"/><ellipse class="cls-1" cx="31.08" cy="12.05" rx="3.25" ry="3.15"/></svg>