<svg xmlns="http://www.w3.org/2000/svg" viewBox="0 0 403.81 397.71"><defs><style>.cls-1{fill:#660002;}.cls-2{fill:#ed343d;}.cls-3{fill:#d3172d;}.cls-4{fill:#ffe400;}.cls-5{fill:#c1dfab;}.cls-6{fill:#88c880;}.cls-7{fill:#abe0f9;}.cls-8{fill:#fdbf0f;}.cls-9{fill:#f58d78;}.cls-10{fill:#8c151b;}.cls-11{fill:#ffe600;}</style></defs><title>sandia</title><g id="OBJECTS"><path class="cls-1" d="M310.42,117.16c-.47-2.47-.55-5.82-2.69-7.55s-4.67-.53-6.8.63-5.81,2.35-6.24,5.09a1.68,1.68,0,0,0,.77,1.86c1.71.86,2.85.49,4.56-.28a13.41,13.41,0,0,0,3.33-1.57l.73-.35a55.51,55.51,0,0,0,1.26,5.75c.52,2.09,1,4.17,2.48,5.78a1.89,1.89,0,0,0,3.1-.81C311.9,123.11,310.93,119.82,310.42,117.16Z"/><path class="cls-2" d="M168,41.15c-12.51-1.33-88.79,214.5-67.15,257.07,6.71,13.22,50.67,40.24,115.38,28.83S317,274.8,322.47,265.19,190.61,43.55,168,41.15Z"/><path class="cls-3" d="M248.6,243.56C183.89,255,139.94,228,133.22,214.73c-11.89-23.4,5.81-99.17,26.23-162.43-23.39,44.58-77.19,209.31-58.58,245.92,6.71,13.22,50.67,40.24,115.38,28.83S317,274.8,322.47,265.19C323.88,262.73,315.92,247,303,225A183.89,183.89,0,0,1,248.6,243.56Z"/><path class="cls-4" d="M176.57,163.59s14-11,29.91-.88v8.78s-12.82-6.59-25.64,0Z"/><path class="cls-4" d="M141.16,129.44c-55,0-51.28,76.31-9.77,82.61s53.11-22.7,54.33-41.62S171.07,129.44,141.16,129.44Z"/><path class="cls-1" d="M141.66,141.46c-39.17,0-36.52,54.34-6.95,58.83s37.83-16.17,38.7-29.64S163,141.46,141.66,141.46Z"/><path class="cls-4" d="M239.45,124c-55,0-51.28,76.3-9.77,82.61S282.79,183.94,284,165,269.36,124,239.45,124Z"/><path class="cls-1" d="M240,136.05c-39.17,0-36.52,54.34-6.95,58.84s37.82-16.17,38.69-29.65S261.26,136.05,240,136.05Z"/><path class="cls-5" d="M204.65,281.4c-56.75,7.85-93.29-8.75-107.2-16.88-1,14.8-.17,26.64,3.42,33.7,6.71,13.22,50.67,40.24,115.38,28.83S317,274.8,322.47,265.19c1.29-2.25-5.24-15.57-16.29-34.68C287.7,248.2,252.8,274.75,204.65,281.4Z"/><path class="cls-6" d="M322.47,265.19c.81-1.42-1.48-7.22-6-16.09-18.49,15.5-56.56,46.13-115.44,52.73-55.29,6.19-88.1-9.42-103.65-18.47.51,6.1,1.64,11.15,3.53,14.86,6.71,13.22,50.67,40.24,115.38,28.83S317,274.8,322.47,265.19Z"/><path class="cls-7" d="M300.49,123.84c.69-5.06,24-6.81,28.9-4.41s8.14,47.25,9.36,52.86-22.79,10.81-26.86,8S299.68,129.84,300.49,123.84Z"/><path class="cls-8" d="M305.79,132.25s15-3.21,22.79-2.81c0,0,7.73,36.84,6.51,40.45s-17.91,8-21.57,5.2S305,138.25,305.79,132.25Z"/><path class="cls-1" d="M177.17,70.7a12.13,12.13,0,0,0-2.65-4.13,3.31,3.31,0,0,0-3.87-.49,3.25,3.25,0,0,0-1.47,3.45v0q0-.24,0,.06l-.3.61c-1.19,2.19-.6,4.35.88,6.2a4,4,0,0,0,4,1A5.11,5.11,0,0,0,177.17,70.7Z"/><path class="cls-1" d="M160.31,106.35c-1.29-3.56-6-2.71-6.41.85a13.89,13.89,0,0,1-.85,3.37A17.36,17.36,0,0,0,152,115c-.31,2.4,2.14,4.59,4.34,4.85s5.08-1.08,5.5-3.53C162.45,112.77,161.5,109.64,160.31,106.35Z"/><path class="cls-1" d="M211.21,114.43c-.27-2.17-1.7-4.05-4.12-4.05s-3.85,1.86-4.12,4.05c-.34,2.77-1,5.63-.25,8.39,1.19,4.25,7.55,4.25,8.75,0C212.24,120.07,211.55,117.2,211.21,114.43Z"/><path class="cls-1" d="M129,229.3h0l0,.09v0h0A.43.43,0,0,1,129,229.3Z"/><path class="cls-1" d="M136.4,226.65a4.59,4.59,0,0,0-4.82-.9,4.34,4.34,0,0,0-2.62,3.54c.14-.32.14-.32,0,0a2.84,2.84,0,0,0-.09.42l0-.3,0,.06,0-.07,0-.28a3.17,3.17,0,0,1-.12.44c0,.14-.06.19,0,.15a6.72,6.72,0,0,0-.39,1.28c0,.16-.24.68-.21.65a2,2,0,0,1-.14.3,13,13,0,0,0-.53,1.35,6.24,6.24,0,0,0,.52,4.85,5.46,5.46,0,0,0,4.73,2.67c4.27.1,6.59-4,6.65-7.66A7.85,7.85,0,0,0,136.4,226.65Z"/><path class="cls-1" d="M177,253.56c-1.25-1.6-3.1-2.54-5.14-1.66a4,4,0,0,0-2.38,4.78c1,2.76.53,5.07,1.06,8,.86,4.8,8.67,4.62,9.67,0C181.1,260.73,179.5,256.71,177,253.56Z"/><path class="cls-1" d="M239.91,223.09a4.86,4.86,0,0,0-4.57-3.43c-2,.09-4.17,1.37-4.58,3.43-.72,3.6-2,7.4,0,10.83a5.93,5.93,0,0,0,5.88,2.77,6,6,0,0,0,4.91-4.16C242.72,229.44,241,226,239.91,223.09Z"/><path class="cls-1" d="M287.9,228.56a23.09,23.09,0,0,0-2.12-3.8,4.65,4.65,0,0,1-.34-.56l-.06-.12c-.07-.3-.12-.4-.13-.28,0-.21,0-.43,0-.65a4.17,4.17,0,0,0-3.67-4.08,4.27,4.27,0,0,0-4.64,3c-1.37,4-1.71,8.62,1.51,11.93a5.8,5.8,0,0,0,6.85.87C287.24,233.62,288.86,230.87,287.9,228.56Z"/><path class="cls-2" d="M152,164.22c-2.09-3-5.1-5.31-8.91-5.42-8.94-.25-13,8-12.48,15.69.13,1.83,3.2,2.55,3.5.47.62-4.42,3.37-11.47,9.13-10.65s4.56,8,8.65,10.36a1.66,1.66,0,0,0,2-.25C156.45,171.35,154.06,167.12,152,164.22Z"/><path class="cls-2" d="M251.77,170.19c-1.09-7.16-6.54-19.24-15.57-16.8a15.69,15.69,0,0,0-11.34,17.47c.4,2.77,4.91,2,4.88-.65-.05-4.47,2.83-10.7,8-11.36s7.8,9.76,9.36,13.28C248.36,175,252.16,172.75,251.77,170.19Z"/><path class="cls-9" d="M131.39,224.74a12.62,12.62,0,1,1-12.62-12.41A12.52,12.52,0,0,1,131.39,224.74Z"/><path class="cls-9" d="M290.12,212.13a12.62,12.62,0,1,1-12.62-12.41A12.51,12.51,0,0,1,290.12,212.13Z"/><path class="cls-1" d="M198.81,195.71c-2.83,5-7.29,3.51-11.33,1.09a1.49,1.49,0,0,0-2.18,1.65c2.67,8.35,14.36,6,18-.17C205,195.44,200.44,192.86,198.81,195.71Z"/><path class="cls-10" d="M146.29,147.5A17.18,17.18,0,0,0,133,146.4c-3.72,1.12-8.49,3.77-9.22,7.86-.24,1.33.62,3.21,2.32,3,3-.37,5.65-2,8.6-2.75,3.27-.8,6.38-.42,9.7-.24C148.16,154.47,149.35,149.24,146.29,147.5Z"/><path class="cls-10" d="M160.55,152.89a14.83,14.83,0,0,1-4.66-2.22,2.57,2.57,0,0,0-3.14,4,12,12,0,0,0,6.18,4,3.09,3.09,0,0,0,3.74-2.09A3,3,0,0,0,160.55,152.89Z"/><path class="cls-10" d="M249.7,144.05c-6.52-7-25.54-4.93-27.48,5.64a2.54,2.54,0,0,0,3.11,3.05c4.91-1.12,9-4.16,14.29-3.58,2.83.3,8.91,3.65,10.7-.36A4.07,4.07,0,0,0,249.7,144.05Z"/><path class="cls-10" d="M261.52,153.63a7.12,7.12,0,0,0-3.09-2.68,18.07,18.07,0,0,1-2.53-1.26,2.28,2.28,0,0,0-3.15,3.09,14,14,0,0,1,.65,2.17,6.91,6.91,0,0,0,2,3.34,4,4,0,0,0,5.12.3A3.8,3.8,0,0,0,261.52,153.63Z"/><path class="cls-11" d="M313.92,140.28c-3.1,0-3.1,4.75,0,4.75S317,140.28,313.92,140.28Z"/><path class="cls-11" d="M329.94,147A4.36,4.36,0,0,0,324.7,144a4.21,4.21,0,0,0-3,5.08,4.3,4.3,0,0,0,4.7,3.08A4.19,4.19,0,0,0,329.94,147Z"/><path class="cls-11" d="M317,153.69c-5.21,0-5.21,8,0,8S322.19,153.69,317,153.69Z"/><path class="cls-11" d="M329,159.29l-.29,0a2.75,2.75,0,1,0,0,5.28l.29-.05C331.6,164,331.6,159.75,329,159.29Z"/><path class="cls-1" d="M307.21,174.65a2.82,2.82,0,0,0-1.41-.8,3.36,3.36,0,0,0-3.59,1.43c-2.35,3.37-4.28,6.88-7,9.95s-5.5,5.61-8.29,8.38c-1.92,1.91.5,4.47,2.74,3.5,8-3.48,15.32-11.35,18.41-19.41A3,3,0,0,0,307.21,174.65Z"/><path class="cls-1" d="M337.28,147.25a18.62,18.62,0,0,0-12.21-4.31c-3.82.06-5,6.24-.94,6.83,3.54.52,7,1.2,10.51,1.93C337.07,152.2,339.49,149.1,337.28,147.25Z"/><path class="cls-1" d="M339,156.43c-3.66-3.52-11.94-2.55-16.4-1.05s-2.6,7.48,1.92,6.84a62.94,62.94,0,0,1,7.38-.87c2.29,0,4.47.18,6.56-.85A2.58,2.58,0,0,0,339,156.43Z"/><path class="cls-1" d="M339.55,161.59c-5.13-.49-10.78,1.06-13.9,5.33-1.6,2.19,1.1,5.83,3.73,4.77,3.74-1.5,7-3.88,10.86-5.08C343.15,165.72,342.41,161.86,339.55,161.59Z"/><path class="cls-1" d="M103.21,200.75c-4.06-8.59-11.5-15.49-16-24-4-7.49-4.66-17.75-10.06-24.14-1.16-1.36-3-.38-3.6.94-3.56,8.53,2.8,21.2,6.66,28.91,4.3,8.62,10.72,18.34,20,22.16C102.59,205.6,104.06,202.55,103.21,200.75Z"/><path class="cls-1" d="M74,145.52a11.08,11.08,0,0,0-2.23-4.3,12.73,12.73,0,0,0-3.91-4c-2.94-1.56-7.08,1.05-5.93,4.48a12.08,12.08,0,0,0,3.36,4.77,12.7,12.7,0,0,0,4.54,3.17C72.54,150.48,74.31,147.85,74,145.52Z"/><path class="cls-1" d="M77.38,128.54a3.25,3.25,0,0,0-3.87.49c-3.34,3.26-.09,9.78.92,13.62.69,2.64,4.38,1.87,4.59-.61s.62-4.71.71-7.06C79.82,132.31,79.74,130.19,77.38,128.54Z"/><path class="cls-1" d="M88,133.92c-1.86,2.8-3.36,5.89-5,8.83s2.45,5,4.29,2.47c2-2.74,4.16-5.42,5.92-8.29C95.29,133.62,90.15,130.72,88,133.92Z"/><path class="cls-1" d="M205.1,346.51c-1.74-5.11-5.27-9.19-6.76-14.58a124.08,124.08,0,0,1-4-21.69c-.24-2.58-4.11-2.68-4.16,0-.15,8.56-.82,29.61,8.1,36.45a22.54,22.54,0,0,0-2,2c-1.47,1.68-2.9,3.09-3.15,5.37-.19,1.71,1.78,2.76,3.24,2.43,2.09-.48,3.46-2.31,4.81-3.82a18.11,18.11,0,0,0,2.78-4A1.87,1.87,0,0,0,205.1,346.51Z"/><path class="cls-1" d="M245.45,346.83c-1.46-1-3.1-1.82-4.55-2.88a19.81,19.81,0,0,1-1.77-1.53c2.79-2.89,4.18-7.83,4.58-11.35,1.08-9.46-3.71-18-8.36-25.93-1.12-1.91-4.6-.63-3.73,1.54,2.7,6.73,5.8,14,5.29,21.35-.4,5.79-4.74,9.53-5.35,14.91-.11,1,.95,1.77,1.86,1.83.15,0,.29,0,.44,0,2.24,3.33,5.33,6.42,9.19,7.67C246.62,353.57,248.15,348.73,245.45,346.83Z"/></g></svg>