<?xml version="1.0" encoding="utf-8"?>
<!-- Generator: Adobe Illustrator 21.0.0, SVG Export Plug-In . SVG Version: 6.00 Build 0)  -->
<svg version="1.1" xmlns="http://www.w3.org/2000/svg" xmlns:xlink="http://www.w3.org/1999/xlink" x="0px" y="0px"
	 viewBox="0 0 592.5 399" style="enable-background:new 0 0 592.5 399;" xml:space="preserve">
<style type="text/css">
	.st0{display:none;}
	.st1{display:inline;}
	.st2{fill:#84B0F7;}
	.st3{opacity:0.2;fill:#3D61D3;}
	.st4{fill:#35353D;}
	.st5{fill:#474751;}
	.st6{fill:#3D61D3;}
	.st7{opacity:0.5;fill:#6481DC;}
	.st8{fill:#E2E2E2;}
	.st9{fill:#6481DC;}
	.st10{fill:#FF7529;}
	.st11{opacity:0.5;fill:#E05212;}
	.st12{fill:#21125A;}
	.st13{opacity:0.5;fill:#190E44;}
	.st14{fill:#FFC2A4;}
	.st15{opacity:0.5;fill:#E8A182;}
	.st16{fill:#FFA1B5;}
	.st17{opacity:0.8;fill:#E8A182;}
	.st18{fill:#F47D9D;}
	.st19{opacity:0.5;fill:#B75E76;}
	.st20{fill:#EF997B;}
	.st21{fill:#19162D;}
	.st22{fill:#3D000B;}
	.st23{fill:#FFF7F3;}
	.st24{fill:#E8A182;}
	.st25{fill:#FFCD2E;}
	.st26{opacity:0.5;fill:#F47D9D;}
	.st27{opacity:0.5;fill:#E8B21A;}
	.st28{fill:#DB2828;}
	.st29{fill:#FFFFFF;}
	.st30{fill-rule:evenodd;clip-rule:evenodd;fill:#FEFEFE;}
	.st31{fill-rule:evenodd;clip-rule:evenodd;fill:#3D61D3;}
</style>
<g id="BACKGROUND" class="st0">
	<g class="st1">
		<rect x="-31.1" y="-37.1" class="st2" width="500" height="500"/>
		<path class="st3" d="M406.4,161.4l1.8,5c3.2,8.9-1.4,18.8-10.3,22.1l-74.5,27c-8.9,3.2-13.6,13.1-10.3,22.1l1.8,5
			c3.2,9,13.1,13.6,22.1,10.3l25.1-9.1c8.9-3.2,18.8,1.4,22.1,10.3l1.8,5c3.2,9-1.4,18.8-10.3,22.1l-201.9,73.2
			c-8.9,3.2-18.8-1.4-22.1-10.3l-1.8-5c-3.2-8.9,1.4-18.8,10.3-22.1l59.7-21.6c8.9-3.2,13.6-13.1,10.3-22.1l-1.8-5
			c-3.2-8.9-13.1-13.6-22.1-10.3l-109,39.5c-8.9,3.2-18.8-1.4-22.1-10.3l-1.8-5c-3.2-8.9,1.4-18.8,10.3-22.1l23.8-8.6
			c8.9-3.2,13.6-13.1,10.3-22.1l-1.8-5c-3.2-8.9-13.1-13.6-22.1-10.3l-40.5,14.7c-9,3.2-18.8-1.4-22.1-10.3l-1.8-5
			c-3.2-8.9,1.4-18.8,10.3-22.1l110.6-40.1c8.9-3.2,13.6-13.1,10.3-22.1l-1.8-5c-3.2-8.9-13.1-13.6-22.1-10.3l-37.2,13.5
			c-8.9,3.2-18.8-1.4-22.1-10.3l-1.8-5c-3.2-8.9,1.4-18.8,10.3-22.1L288,16.7c8.9-3.2,18.8,1.4,22.1,10.3l1.8,5
			c3.2,9-1.4,18.8-10.3,22.1l-33.5,12.1c-8.9,3.2-13.6,13.1-10.3,22.1l1.8,5c3.2,8.9,13.1,13.6,22.1,10.3l63.2-22.9
			c8.9-3.2,18.8,1.4,22.1,10.3l1.8,5c3.2,8.9-1.4,18.8-10.3,22.1l-76.6,27.8c-8.9,3.2-13.6,13.1-10.3,22.1l1.8,5
			c3.2,8.9,13.1,13.6,22.1,10.3l89.1-32.3C393.3,147.8,403.2,152.4,406.4,161.4z"/>
	</g>
</g>
<g id="OBJECTS">
	<g>
		<g>
			<path class="st4" d="M132.4,15.7V224c0,4.2-2.6,7.9-6.6,9.3l-71,29.9c-1,0.4-12-0.4-13-0.4c-4.2-0.1-7.9-3.5-7.9-7.9V43.3
				c0-4.2,2.7-7.9,6.7-9.3l78.4-27.5c3.3-1.2,14.7-0.5,17.2,1.2C138.7,9.4,132.4,12.3,132.4,15.7z"/>
			<path class="st5" d="M143.8,17v208.3c0,4.2-2.6,7.9-6.6,9.3l-78.4,28c-6.6,2.3-13.5-2.4-13.5-9.3V44.5c0-4.2,2.7-7.9,6.7-9.3
				l78.4-27.5C136.9,5.3,143.8,10.1,143.8,17z"/>
			<path class="st6" d="M139.3,29.9v177c0,2.3-1.6,4.3-4,5.1l-76.5,25c-3.9,1.3-8.1-1.3-8.1-5.1V54.4c0-0.8,0.2-1.5,0.5-2.2
				c0.6-1.3,1.9-2.4,3.5-2.9l17.5-5.6l58.9-18.9C135.2,23.5,139.3,26.1,139.3,29.9z"/>
			<path class="st7" d="M139.3,29.9v151c-57.4-10.8-84-95-88-128.6c0.6-1.3,1.9-2.4,3.5-2.9l17.5-5.6l58.9-18.9
				C135.2,23.5,139.3,26.1,139.3,29.9z"/>
			<path class="st4" d="M85.3,235.7v6.6c0,2,2,3.4,4,2.7l22.6-8.1c1.2-0.4,1.9-1.5,1.9-2.7v-6c0-2-2-3.4-3.9-2.8l-22.6,7.5
				C86.1,233.3,85.3,234.4,85.3,235.7z"/>
			<path class="st4" d="M80.8,35.9l29.7-10.1c0.8-0.3,1.4-1.1,1.4-1.9l0,0c0-1.3-1.4-2.3-2.7-1.9l-29.7,9.7
				c-0.8,0.3-1.4,1.1-1.4,1.9l0,0.3C78.2,35.4,79.5,36.3,80.8,35.9z"/>
		</g>
		<g>
			<path class="st8" d="M255.8,76.6c-2.2,1.5-3.8,1-6-0.2c-1.5-0.8-3.1-1.5-4.8-1.2c-3.9,0.6-4.6,4-6.3,6.9c-0.6,1-1.5,1.8-2.4,2.3
				c-1.4,0.8-3.2-0.5-4.4-1.1c-1.9-0.9-3.8-1.3-5.8-0.9c-1.8,0.3-3.3,1.6-4.2,3.1c-1.1,1.8-0.7,4.2-3.2,4.7
				c-1.1,0.2-0.6,1.9,0.5,1.7c1.6-0.3,2.8-1.3,3.4-2.8c0.9-2.3,1.3-4.2,4-5c2.7-0.7,4.7,1.1,7.1,2c2,0.7,3.5,0.1,5.1-1.2
				c2.8-2.3,2.7-7.8,7-8.1c1.9-0.1,3.6,1.5,5.4,2.1c2.1,0.7,3.8,0.3,5.6-0.9C257.6,77.5,256.7,76,255.8,76.6z"/>
			<path class="st8" d="M219.1,115.4c2.7-0.3,3.8,0.8,5.2,2.9c0.9,1.4,2,2.7,3.7,3.3c3.8,1.2,5.9-1.5,8.8-3.3c1-0.6,2.1-0.9,3.3-1
				c1.7-0.1,2.6,1.9,3.4,3c1.2,1.7,2.7,2.8,4.8,3.4c1.8,0.5,3.7,0,5.2-0.9c1.8-1.1,2.5-3.4,5.1-2.7c1.1,0.3,1.5-1.4,0.4-1.7
				c-1.6-0.4-3.1-0.1-4.3,1c-1.9,1.6-3.1,3.2-5.9,2.6c-2.7-0.6-3.7-3.1-5.4-4.9c-1.4-1.5-3.1-1.7-5-1.2c-3.5,0.8-6.1,5.7-10,4
				c-1.8-0.8-2.5-2.9-3.8-4.3c-1.5-1.6-3.2-2-5.4-1.8C217.9,113.8,217.9,115.6,219.1,115.4z"/>
			<path class="st8" d="M260.3,102.5c-2.6,0.6-3.9-0.4-5.5-2.3c-1.1-1.2-2.3-2.5-4-2.9c-3.9-0.8-5.7,2.1-8.4,4.3
				c-0.9,0.7-2,1.1-3.1,1.3c-1.6,0.3-2.8-1.6-3.7-2.6c-1.4-1.5-3-2.5-5.1-2.9c-1.8-0.3-3.6,0.3-5,1.4c-1.7,1.3-2.2,3.6-4.7,3.2
				c-1.1-0.2-1.3,1.6-0.2,1.7c1.6,0.3,3.1-0.2,4.2-1.4c1.7-1.8,2.8-3.5,5.6-3.2c2.8,0.3,4,2.7,5.9,4.3c1.6,1.3,3.2,1.4,5.1,0.7
				c3.4-1.2,5.4-6.3,9.5-5c1.8,0.6,2.8,2.7,4.2,3.8c1.7,1.4,3.5,1.7,5.6,1.2C261.7,103.9,261.4,102.2,260.3,102.5z"/>
			<g>
				<g>
					<path class="st9" d="M108.3,181.5c2.6-0.6,5-1,7.2-1.6c2.2-0.6,4.4-1.3,6.3-2.2c1.9-0.9,3.7-2,5.4-3.5c1.7-1.4,3.3-3.2,5.1-5.2
						c0.2,2.7-0.6,5.4-2.1,7.7c-1.5,2.4-3.7,4.3-6.3,5.5c-2.6,1.2-5.4,1.7-8,1.6C113.2,183.6,110.6,183,108.3,181.5z"/>
				</g>
				<g>
					<path class="st9" d="M105.2,138.6c2.4-1.4,5.1-2,7.9-2c2.8,0,5.7,0.6,8.2,2.1c2.6,1.4,4.7,3.6,6,6.1c1.3,2.5,2,5.3,1.9,8
						c-1.5-2.3-2.9-4.4-4.4-6.2c-1.6-1.8-3.4-3.3-5.4-4.4c-2-1.1-4.2-1.9-6.6-2.4C110.4,139.2,107.9,138.9,105.2,138.6z"/>
				</g>
				<g>
					<path class="st9" d="M86.6,157.6c0.3,2.6,0.8,5,1.5,7.2c0.7,2.2,1.6,4.3,2.8,6.2c0.2,0.5,0.6,0.9,0.9,1.4l0.5,0.7
						c0.2,0.2,0.4,0.4,0.6,0.6l1.1,1.3c0.4,0.4,0.8,0.8,1.2,1.2l0.6,0.6l0.7,0.6c0.5,0.4,0.9,0.8,1.4,1.2c0.9,0.8,2,1.5,2.9,2.4
						c-1.3-0.1-2.6-0.3-3.9-0.7c-0.6-0.2-1.2-0.5-1.8-0.7l-0.9-0.4c-0.3-0.2-0.6-0.3-0.9-0.5c-0.6-0.3-1.1-0.7-1.7-1.1
						c-0.5-0.4-1-0.9-1.5-1.3c-0.5-0.4-1-1-1.4-1.5c-0.4-0.6-0.9-1.1-1.2-1.7c-1.5-2.3-2.3-5.1-2.5-7.8
						C84.8,162.6,85.3,159.9,86.6,157.6z"/>
				</g>
				<g>
					<polygon class="st10" points="172.4,114.5 172.4,123.2 178.5,123.2 178.5,109.8 172.4,109.8 					"/>
					<rect x="175.4" y="109.8" class="st11" width="3.1" height="13.4"/>
					<path class="st12" d="M167,68.3c0,0,7.4-19.8-12.4-20.9c0,0-9.4-12.9-26.8-9.2c-17.5,3.7-17.1,12.1-27,14
						c-9.9,1.9-29.8-3.7-44,12.1c-14.6,16.3-7.5,32.5-0.4,37.4c7.1,5,18.7,3.9,21.3,9.3c3.1,6.5-12.2,22.7-2.3,29.2
						c12.9,8.5,26.6-11.4,33.4-12.9C117.1,125.5,163.5,138.9,167,68.3z"/>
					<path class="st13" d="M167,68.3c-3.5,70.5-50,57.2-58.3,59c-6.9,1.5-20.6,21.5-33.4,12.9c-2.3-1.5-3.2-3.6-3.4-5.9
						c0.1,0,0.1,0.1,0.2,0.1c12,8,24.8-10.7,31.2-12.1c7.8-1.7,53.4-7.5,52.7-52.8c0,0,8.6-20.9-9.9-21.9c0,0-6.9-9.6-20-9.2
						c0.5-0.1,1-0.2,1.5-0.4c17.5-3.7,26.8,9.2,26.8,9.2C174.4,48.5,167,68.3,167,68.3z"/>
					<path class="st14" d="M168.1,86.2c-0.1,1.7-0.4,3.3-0.7,4.9c-1.5,7.3-5,13.9-12.7,16.9c-4,1.5-7.8,2.1-11.1,1.9
						c-2.6-0.1-5-0.6-7.2-1.3c-8.7-2.9-13.7-9.6-13.7-9.6s-9.4,2.4-9.4-8.1c0-4.1,3.2-6.5,5.6-6.7c4.2-0.3,6.1,1.8,6.1,1.8
						s5.3-0.3,6.6-5.5c1.3-5.2,2.5-14.3,8.1-17.3c5.6-3,15.1-1.1,16.8-5.8c0,0,4.9,6.9,9.6,6.5C166.1,63.8,169.1,74.9,168.1,86.2z"
						/>
					<path class="st15" d="M168.1,86.2c-0.1,1.7-0.3,3.3-0.7,4.9c-1.5,7.3-5.1,13.9-12.7,16.9c-4,1.5-7.8,2.1-11.1,1.9
						c-2.6-0.1-5-0.6-7.2-1.3c-8.7-2.9-13.7-9.6-13.7-9.6s-7.3,1.9-9-4.8c2.7,3.6,7.9,2.3,7.9,2.3s5,6.7,13.7,9.6
						c2.2,0.7,4.6,1.2,7.2,1.3c3.4,0.1,7.1-0.4,11.1-1.9c7.7-2.9,11.3-9.6,12.7-16.9c0.3-1.6,0.5-3.3,0.7-4.9c0.7-8-0.7-16-1.5-19.9
						c0.2,0,0.4,0,0.6,0C166.1,63.8,169.1,74.9,168.1,86.2z"/>
					<path class="st14" d="M165.8,125.3c0,0-1.3,5.8,3.6,7.8c0,0,3.1-1.5,4.4-1.7c1.3-0.1,6.9,0.5,7.7-0.6c0.8-1,0.6-2,0.6-2
						s1.4-0.8,1.6-1.6c0.2-0.8-0.8-2-0.8-2s1.5-0.9,1.3-2.3c-0.2-1.4-1.9-1.8-1.9-1.8s0.4-1.3-0.3-2.4c-0.7-1.1-3.7-0.8-3.7-0.8v2.9
						c0,0-3.3,2.1-6,0v-4.6c0,0-2.2,2.1-2.6,3.5c-0.4,1.4,0.1,3-0.3,3.6C169,124,165.8,125.3,165.8,125.3z"/>
					<path class="st15" d="M183,125.3c0,0,1.1,1.2,0.8,2c-0.2,0.8-1.6,1.6-1.6,1.6s0.2,1-0.6,2c-0.3,0.3-1,0.5-2,0.6
						c0.7-1,0.6-1.9,0.6-1.9s1.4-0.8,1.6-1.6c0.2-0.8-0.8-2-0.8-2s1.5-0.9,1.3-2.3c-0.2-1.4-1.9-1.8-1.9-1.8s0.4-1.3-0.3-2.4
						c-0.3-0.4-0.9-0.6-1.6-0.8V118c0,0,2.9-0.2,3.7,0.8c0.7,1.1,0.3,2.4,0.3,2.4s1.7,0.4,1.9,1.8C184.4,124.4,183,125.3,183,125.3z
						"/>
					<path class="st14" d="M199.8,52.7c-0.3,3-5.4,10.4-6,11.2c0,0.1-0.1,0.1-0.1,0.1c-4.3,1.7-8-0.9-8-0.9s0.7-2.8-0.9-4.2
						c-1.4-1.2-6-4.6-4.4-5.6c1.6-1,4.8,2.2,5.7,1c0.5-0.7,0.6-4.1,1.1-6.6c0.3-1.7,0.7-3,1.5-3.1c0.6,0,0.9,2,1,4.2
						c0.1,2.4,0.1,4.9,0.1,4.9s0.4-2,0.9-4.2c0.7-2.9,1.8-6.2,2.8-6c1.3,0.2,0,9.8-0.1,10.3c0.2-0.5,2.9-8.1,3.8-7.7
						c1.7,0.8-0.9,8.7-1,9.1C196.4,55,200.2,49.6,199.8,52.7z"/>
					<path class="st16" d="M169.5,133.1l-9.8,4.1l-3.3,1.4c-0.2,0.7-0.5,1.2-0.9,1.8h0c-2,2.8-5.7,3.9-5.7,3.9
						c-7.4,12.2-25,27.8-25,27.8s-14.4,4.3-23.8-1.5c-9.2-5.6-4.8-20.6-4.6-21.3c0,0,0,0,0,0c10.2-0.4,22-16.2,22-16.2
						s-0.8-13,1.4-16c2.2-3,15.7-3.4,15.7-3.4c3.2-0.4,5.6-0.3,7.5,0c0,0,0,0,0.1,0c4.6,0.8,5.6,3.3,6.5,4.8
						c0.3,0.5,0.8,1.3,1.4,2.3c0,0,0,0,0,0c0.2,0.4,0.5,0.8,0.8,1.2c0.6,0.9,1.2,1.8,1.8,2.7c1.5,2.3,2.8,4.2,2.8,4.2l0.3-0.1
						l9.1-3.5h0L169.5,133.1z"/>
					<path class="st14" d="M145.1,122.5c-4.3,1.7-9.8-7.6-9.8-7.6l1.1-6.3c2.2,0.7,4.6,1.2,7.2,1.3l-0.7,4.3
						C142.9,114.2,148,121.4,145.1,122.5z"/>
					<path class="st17" d="M143.6,109.9l-0.7,4.3c-3.7-0.5-6.9-3.5-6.9-3.5l0.4-2.1C138.6,109.3,141,109.8,143.6,109.9z"/>
					<path class="st18" d="M194.1,63.7c0,0-8.1,42.9-40.5,61c-1.6-2.4-3.4-5.1-4-6.2c-0.9-1.6-1.9-4-6.5-4.8
						c1.5,0.2,26.4,2.1,42.9-51.5c0,0,3.9-1.1,7,0.8C193.3,63.1,193.7,63.3,194.1,63.7C194.1,63.7,194.1,63.7,194.1,63.7z"/>
					<path class="st19" d="M194.1,63.7c0,0-8.1,42.9-40.5,61c-1.4-2.1-2.9-4.4-3.7-5.7c30.1-15.2,41.7-51.4,43.1-56.1
						C193.4,63.1,193.7,63.3,194.1,63.7C194.1,63.7,194.1,63.7,194.1,63.7z"/>
					<path class="st20" d="M156.1,81.9c1.9,0,2,4.9,0,4.9C154.1,86.8,154.3,81.9,156.1,81.9z"/>
					<g>
						<ellipse class="st21" cx="142.7" cy="84.9" rx="2.5" ry="2.5"/>
						<g>
							<path class="st21" d="M144,82.8c-0.6-0.2-1.2,0-1.8,0.1c-0.6,0.2-1.1,0.4-1.6,0.8l-0.4,0.2c-0.2,0.1-0.3,0.2-0.5,0.2
								c-0.4,0.1-0.8,0.2-1.1,0.1c-0.7-0.1-1.3-0.6-1.6-1.2c0.6,0.3,1.2,0.6,1.7,0.6c0.3,0,0.5-0.1,0.8-0.2c0.1,0,0.2-0.1,0.3-0.2
								l0.4-0.3c0.6-0.3,1.2-0.6,1.9-0.7C142.7,82.2,143.5,82.3,144,82.8z"/>
						</g>
					</g>
					<g>
						<ellipse class="st21" cx="165.3" cy="83.2" rx="2.1" ry="2.1"/>
						<g>
							<path class="st21" d="M164.1,81.5c0.4-0.4,1.1-0.5,1.6-0.5c0.6,0.1,1.1,0.3,1.6,0.6l0.4,0.2c0.1,0.1,0.2,0.1,0.3,0.2
								c0.2,0.1,0.4,0.1,0.6,0.2c0.5,0,1-0.2,1.4-0.5c-0.3,0.5-0.7,0.9-1.4,1c-0.3,0.1-0.7,0-1-0.1c-0.2,0-0.3-0.1-0.4-0.2l-0.3-0.2
								c-0.4-0.3-0.9-0.5-1.4-0.6C165.2,81.5,164.7,81.3,164.1,81.5z"/>
						</g>
					</g>
					<path class="st12" d="M136.6,75.5c-0.7,0.7-0.1,2.6,1.3,2.5c1.4-0.1,3.1-2.3,6.1-2.6c1.3-0.1,1.3-3.5-1.2-3.3
						C140.5,72.4,138.1,74,136.6,75.5z"/>
					<path class="st12" d="M170,74.6c0.6,0.6,0.1,2.2-1.1,2.1c-1.2-0.1-2.6-2-5.1-2.2c-1.1-0.1-1.1-3,1-2.7
						C166.8,71.9,168.8,73.2,170,74.6z"/>
					<path class="st22" d="M157.5,98.3c-1.2,1.3-3.1,2.4-6,2.4c-4.7,0.1-7-2.8-7.7-5.1c-0.4-1.2-0.3-2.3,0-2.6
						c0.1,0,0.1-0.1,0.2-0.1c3.1-2.1,14.7-1.5,15.3-0.3c0.1,0.1,0.1,0.3,0.1,0.6C159.6,94.4,159.1,96.6,157.5,98.3z"/>
					<path class="st16" d="M157.5,98.3c-1.2,1.3-3.1,2.4-6,2.4c-4.7,0.1-7-2.8-7.7-5.1C146.2,94.9,153.1,94,157.5,98.3z"/>
					<path class="st23" d="M159.5,93.2c-4.9,0.7-12.7,0.1-15.4-0.2c3.1-2.1,14.7-1.5,15.3-0.3C159.4,92.8,159.5,93,159.5,93.2z"/>
					<ellipse class="st16" cx="135.3" cy="90.5" rx="5.5" ry="3.1"/>
					<path class="st16" d="M168.1,86.2c-0.1,1.7-0.4,3.3-0.7,4.9c-1.6-0.6-2.7-1.6-2.6-2.7C165,87.3,166.3,86.5,168.1,86.2z"/>
					<g>
						<path class="st24" d="M119.8,95.7c0-0.5,0.1-1,0.3-1.4c0.2-0.5,0.4-0.9,0.8-1.3c0.4-0.4,0.9-0.6,1.4-0.7
							c0.6-0.1,1.1,0.1,1.6,0.2l-0.5,0.5c-0.6-1.4-1.6-2.8-3.1-3.2c-0.7-0.2-1.5-0.1-2.1,0.4c-0.7,0.4-1.2,1.1-1.7,1.8
							c0.2-0.8,0.7-1.6,1.3-2.2c0.6-0.6,1.7-0.9,2.6-0.7c0.9,0.2,1.7,0.8,2.3,1.4c0.6,0.7,1,1.4,1.3,2.3l0.3,0.8l-0.8-0.3
							c-0.4-0.1-0.8-0.3-1.2-0.3c-0.4,0-0.8,0.1-1.1,0.4C120.5,93.9,120.1,94.8,119.8,95.7z"/>
					</g>
					<path class="st18" d="M165.8,125.3c-0.1,0.1-0.8,0.3-1.9,0.7c-1.2,0.5-2.9,1.1-5,1.9c-0.7,0.3-1.4,0.5-2.2,0.8
						c-1.5,0.6-3.1,1.2-4.8,1.8c0,0,0,0-0.1,0c-2.6,0.9-5.4,1.9-8.2,2.9c-2.8,1-5.6,1.9-8.2,2.8c-0.7,0.2-1.3,0.4-2,0.6
						c-0.3,0.1-0.6,0.2-1,0.3c-0.1,0-0.2,0-0.2,0c-0.1,0-0.1,0-0.1,0l0,0l-0.1,0c0,0,0-0.1-0.1-0.1c-0.1-0.1-0.1-0.2-0.1-0.2
						c-0.1-0.2-0.1-0.3-0.2-0.5c-0.4-1.2-0.7-2.4-1-3.4c-0.5-2.1-0.9-3.9-1.2-5.1c-0.2-1.1-0.4-1.8-0.4-1.9c0,0.2,0.2,0.8,0.5,1.9
						c0.3,1.2,0.8,3,1.4,5.1c0.3,1,0.6,2.2,1,3.4c0.1,0.1,0.1,0.3,0.2,0.4c0,0.1,0.1,0.1,0.1,0.2c0,0,0,0,0,0
						c0.3-0.1,0.6-0.2,0.9-0.3c0.6-0.2,1.3-0.4,1.9-0.6c2.6-0.9,5.4-1.9,8.2-2.8c2.8-1,5.6-1.9,8.2-2.9c0.1,0,0.2-0.1,0.3-0.1
						c1.5-0.5,2.9-1,4.2-1.5c0.9-0.3,1.8-0.6,2.6-0.9c2.1-0.7,3.8-1.3,5.1-1.7C165,125.6,165.7,125.3,165.8,125.3z"/>
					<path class="st10" d="M207.1,116.2l-28.2-5.7V96.2l28.2-8.8c0,0,0.7,1.9,1.3,4.8C209.6,97.8,210.7,107.4,207.1,116.2z"/>
					<path class="st25" d="M178.9,96.2v14.5h-7.1c0,0-2.3-1.7-2.3-7.3c0-0.2,0-0.3,0-0.4c0,0,0,0,0,0c0.2-3.9,2.3-6.8,2.3-6.8H178.9
						z"/>
					<path class="st25" d="M207.5,116.6c-0.7,1.6-3.4,0.9-2.7-0.7c0,0,0-0.1,0-0.1c2.6-6.3,3-13.5,1.9-20.4
						c-0.4-2.6-1.1-5.2-1.9-7.7c-0.6-1.7,2.1-2.4,2.7-0.7c0.3,1,0.6,1.9,0.9,2.9C210.8,98.6,210.9,108.4,207.5,116.6z"/>
					<path class="st26" d="M151,120.7C151,120.7,151,120.7,151,120.7c0.3,0.4,0.5,0.8,0.8,1.2c0.6,0.9,1.2,1.8,1.8,2.7
						c1.1,1.7,2.2,3.3,2.6,3.9c0.1,0.2,0.2,0.3,0.2,0.3l0.3-0.1c0,0,0,0,0,0c-1.5,0.6-3.1,1.2-4.8,1.8c0-0.2,0.1-0.4,0.1-0.5
						C152.7,124.7,151.1,120.9,151,120.7z"/>
					<path class="st26" d="M149.5,141c3.4-1.2,5.9-2,6.9-2.4c0,0,0,0,0,0c-1.4,4.1-6.5,5.6-6.5,5.6c-7.4,12.2-25,27.8-25,27.8
						s-14.4,4.3-23.8-1.5c-9.2-5.6-4.8-20.6-4.6-21.3c0,0,0,0,0,0s22.9,16.7,46.7-4.1c0.9-0.8,1.6-1.5,2.4-2.3
						c0.2-0.2,0.4-0.4,0.6-0.7C147.3,141.8,148.4,141.4,149.5,141z"/>
					<path class="st26" d="M169.5,133.1l-9.8,4.1l-3.3,1.4c0,0,0,0.1,0,0.1c0,0,0,0,0,0c-0.3,0.1-0.9,0.3-1.5,0.6
						c-1.3,0.5-3.1,1.2-5.3,2c-0.8,0.3-1.6,0.6-2.5,0.9l-3.5,0.8c20.8-7.6,22.2-17.7,22.2-17.7L169.5,133.1z"/>
					<path class="st18" d="M156.8,138.5c-0.1,0-0.2,0.1-0.4,0.2c-0.3,0.1-0.9,0.3-1.5,0.6c-1.3,0.5-3.1,1.2-5.3,2
						c-0.8,0.3-1.6,0.6-2.5,0.9c-0.5,0.2-1.1,0.4-1.7,0.6c-1.1,0.4-2.2,0.8-3.3,1.2c-2.8,1-5.7,1.9-8.7,2.8c-1.5,0.4-3,0.8-4.5,1.2
						c-0.8,0.2-1.5,0.3-2.3,0.3c-0.2,0-0.4,0-0.6,0c-0.2-0.1-0.4-0.1-0.6-0.2c-0.4-0.2-0.7-0.4-1-0.7c-1.1-1-1.8-2.3-2.4-3.5
						c-0.6-1.2-1.1-2.3-1.5-3.4c-0.8-2.1-1.4-4-1.8-5.3c-0.4-1.3-0.6-2-0.6-2s0.2,0.7,0.7,2c0.4,1.3,1.1,3.1,2,5.2
						c0.5,1.1,1,2.2,1.6,3.3c0.3,0.6,0.7,1.2,1,1.7c0.4,0.6,0.8,1.1,1.3,1.6c0.3,0.2,0.5,0.4,0.8,0.6c0.1,0.1,0.3,0.1,0.5,0.1
						c0.2,0,0.4,0,0.5,0c0.7,0,1.5-0.2,2.2-0.4c1.5-0.3,3-0.8,4.5-1.2c3-0.9,5.9-1.8,8.7-2.8c0.6-0.2,1.1-0.4,1.6-0.6h0
						c0.8-0.3,1.7-0.6,2.5-0.8c1.2-0.4,2.4-0.8,3.4-1.2c3.4-1.2,5.9-2,6.9-2.4C156.6,138.6,156.7,138.5,156.8,138.5z"/>
					<path class="st11" d="M204.8,115.8l-26-5.2v-4.3c0.8,0,21.9-0.3,27.8-10.9C207.8,102.3,207.4,109.5,204.8,115.8z"/>
					<path class="st27" d="M178.9,106.3v4.4h-7.1c0,0-2.3-1.7-2.3-7.3c0-0.2,0-0.3,0-0.4C170.4,107.7,178.9,106.3,178.9,106.3z"/>
					<path class="st27" d="M207.5,116.6c-0.7,1.6-3.4,0.9-2.7-0.7c0,0,0-0.1,0-0.1c2.6-6.3,3-13.5,1.9-20.4c0,0,1.4-3.3,1.7-5.5
						C210.8,98.6,210.9,108.4,207.5,116.6z"/>
					<path class="st13" d="M144.7,51.5c-5.6,0.2-11,3.3-14.6,7.5c-4.5,5.3-4.6,12.2-11.6,15.6c-6.8,3.3-14.9,2.9-21.3,7.3
						c-4.8,3.2-6.7,8.8-7.9,14.1c-0.2,0.8,1,1.1,1.2,0.3c1.4-6.2,3.8-11.6,9.7-14.8c5.8-3.1,12.8-3.2,18.9-5.8
						c5.1-2.2,7.1-6.8,9.3-11.5c2.9-6.2,9.1-11.2,16.2-11.4C145.6,52.7,145.6,51.5,144.7,51.5z"/>
					<path class="st13" d="M123.1,44.4c-6.7,4-11.6,9.6-19.7,11C96.6,56.5,89.7,56,83,57.8c-10.6,2.8-19.3,9.9-20.4,21.2
						c-0.1,0.8,1.2,0.8,1.3,0C65,66.4,75.9,60.2,87.4,58c6.4-1.2,13-0.5,19.4-2.1c6.7-1.7,11.3-7.1,17-10.5
						C124.4,45.1,123.8,44,123.1,44.4z"/>
					<path class="st13" d="M125.2,105.7c-1.4,3.6-6,5.8-9.2,7.3c-4.2,2.1-8.5,2.4-13,3.4c-8.9,1.9-12.8,13.2-22.5,13.2
						c-0.8,0-0.8,1.2,0,1.2c4.4,0,7.8-2.3,11-5c1.8-1.5,3.4-3.2,5.2-4.7c2.9-2.5,6.1-3.5,9.8-4.1c4.5-0.7,8.4-1.9,12.4-4.1
						c2.9-1.6,6.4-3.7,7.6-6.9C126.7,105.2,125.5,104.9,125.2,105.7z"/>
					<path class="st13" d="M121,60.4c-1.7,2.6-3,5.2-5.6,7.1c-2.6,1.9-5.7,2.9-8.8,3.9c-4.7,1.5-9.1,3-12.3,6.9
						c-0.5,0.6,0.4,1.5,0.9,0.9c4.2-5,10.5-5.9,16.3-8.2c2.2-0.9,4.3-2.1,6.1-3.7c1.9-1.6,3-4.2,4.4-6.2
						C122.5,60.4,121.4,59.8,121,60.4z"/>
				</g>
				<g>
					<path class="st9" d="M97.1,142.7c-1.1,4.9-1.6,9.7-0.9,14c0.3,2.2,0.9,4.2,1.8,6.1c0.6,0.9,1,1.8,1.7,2.6
						c0.6,0.8,1.2,1.6,2,2.2c2.9,2.6,7.1,3.9,11.6,4.5c4.6,0.5,9.4,0.4,14.4,0.1c-4.3,2.7-9.3,4.2-14.5,4.6c-1.3,0.1-2.6,0.1-4,0
						c-1.3-0.1-2.7-0.3-4-0.7c-2.7-0.7-5.3-2-7.5-4c-1.1-1-2-2.1-2.8-3.3c-0.4-0.6-0.8-1.2-1.1-1.8c-0.3-0.6-0.7-1.3-0.9-1.9
						c-1-2.6-1.4-5.5-1.3-8.2C91.8,151.5,93.8,146.5,97.1,142.7z"/>
				</g>
			</g>
		</g>
		<g>
			<g>
				<ellipse class="st28" cx="58.1" cy="123.5" rx="12.2" ry="12"/>
				<path class="st29" d="M58.1,130.6c-7.3-3.1-8.3-9.6-5.6-11.3c3.6-2.3,5.6,2.8,5.6,2.8s2-5.1,5.6-2.8
					C66.4,121,65.4,127.4,58.1,130.6z"/>
			</g>
			<g>
				<path class="st28" d="M34.9,160.5c2.4,6.2-0.7,13.2-7,15.6c-6.3,2.4-13.4-0.7-15.8-6.9c-2.4-6.2,0.7-13.2,7-15.6
					C25.3,151.2,32.4,154.3,34.9,160.5z"/>
				<path class="st29" d="M26,171.4c-7.9-0.3-11.2-6-9.4-8.6c2.5-3.5,6.2,0.6,6.2,0.6s0-5.4,4.2-4.6C30.2,159.5,31.6,165.9,26,171.4
					z"/>
			</g>
			<g>
				<path class="st28" d="M52.3,88.3c-1.1,4.1-5.3,6.6-9.5,5.5c-4.2-1.1-6.7-5.3-5.6-9.4c1.1-4.1,5.3-6.6,9.5-5.5
					C50.8,79.9,53.4,84.1,52.3,88.3z"/>
				<path class="st29" d="M43.6,90.7c-4-3.1-3.6-7.2-1.6-7.9c2.6-0.9,3,2.6,3,2.6s2-2.8,3.9-0.8C50.2,86,48.6,89.9,43.6,90.7z"/>
			</g>
			<g>
				<path class="st28" d="M101.4,16.7c-1.1,4.1-5.3,6.6-9.5,5.5c-4.2-1.1-6.7-5.3-5.6-9.4c1.1-4.1,5.3-6.6,9.5-5.5
					C100,8.4,102.5,12.6,101.4,16.7z"/>
				<path class="st29" d="M92.7,19.1c-4-3.1-3.6-7.2-1.6-7.9c2.6-0.9,3,2.6,3,2.6s2-2.8,3.9-0.8C99.4,14.5,97.7,18.3,92.7,19.1z"/>
			</g>
			<g>
				<path class="st28" d="M27.6,54.6c0.9,3.9-1.7,7.7-5.6,8.6c-4,0.8-7.9-1.6-8.7-5.5s1.7-7.7,5.6-8.6
					C22.8,48.3,26.7,50.7,27.6,54.6z"/>
				<path class="st29" d="M21.3,60.3c-4.7-0.9-6.1-4.6-4.7-5.9c1.8-1.8,3.6,0.9,3.6,0.9s0.5-3.2,2.9-2.3
					C24.9,53.6,25.2,57.5,21.3,60.3z"/>
			</g>
			<g>
				<path class="st28" d="M168.3,11.8c0.9,3.9-1.7,7.7-5.6,8.6c-4,0.8-7.9-1.6-8.7-5.5s1.7-7.7,5.6-8.6
					C163.5,5.4,167.4,7.9,168.3,11.8z"/>
				<path class="st29" d="M162,17.4c-4.7-0.9-6.1-4.6-4.7-5.9c1.8-1.8,3.6,0.9,3.6,0.9s0.5-3.2,2.9-2.3
					C165.6,10.8,165.9,14.7,162,17.4z"/>
			</g>
			<g>
				<g id="xsrjP0_1_">
					<g>
						<path class="st30" d="M61.1,101.2c-0.4-0.1-0.7-0.2-1.1,0c-0.1,0.1-0.2-0.1-0.2-0.1c-0.6-1.4-1.2-2.9-1.7-4.3
							c0-0.1-0.1-0.2,0-0.3c0.9-1,0.9-2.3,1.3-3.5c0.3-1.3,0.2-2.5-0.5-3.6c-0.2-0.3-0.1-0.5,0.2-0.7c0.3-0.2,0.7-0.3,0.9-0.1
							c0.5,0.5,1,1,1.4,1.6c0.3,0.5,0.3,1.1,0.4,1.7c0.1,0.4,0.2,0.8,0.3,1.3c0.1,0,0.2,0,0.3-0.1c1.2-0.5,2.5-1,3.7-1.4
							c0.5-0.2,0.8-0.2,1,0.2c0.3,0.4,0.2,0.9-0.1,1.3c-0.1,0.1-0.3,0.1-0.2,0.3c0,0.1,0.2,0.1,0.3,0.1c0.6,0.1,0.7,0.8,0.4,1.3
							c-0.1,0.1-0.3,0.2-0.3,0.4c0.1,0.1,0.3,0.1,0.4,0.1c0.5,0.2,0.6,0.9,0.2,1.4c-0.1,0.1-0.1,0.1-0.2,0.2c0,0.1-0.1,0.1,0.1,0.2
							c0.7,0.2,0.9,0.7,0.5,1.3c0,0.1-0.1,0.1-0.1,0.2c-0.1,0.2-0.4,0.3-0.6,0.4c-1.9,0.8-3.9,1.5-5.8,2.3
							C61.5,101.2,61.3,101.2,61.1,101.2z"/>
						<path class="st31" d="M54.6,100.8c-0.4-0.9-0.7-1.8-1.1-2.7c-0.1-0.2-0.1-0.3,0.1-0.4c1.1-0.4,2.3-0.9,3.4-1.3
							c0.2-0.1,0.3,0,0.4,0.2c0.7,1.8,1.5,3.7,2.2,5.5c0.1,0.2,0.1,0.3-0.2,0.4c-1.1,0.4-2.2,0.8-3.3,1.3c-0.3,0.1-0.3,0-0.4-0.2
							C55.3,102.6,54.9,101.7,54.6,100.8z"/>
					</g>
				</g>
			</g>
			<g>
				<g id="xsrjP0_2_">
					<g>
						<path class="st30" d="M28.7,141.5c-0.3-0.4-0.6-0.8-1.1-0.9c-0.2,0-0.1-0.2-0.1-0.3c0.5-2,1.1-4,1.6-6c0-0.1,0.1-0.3,0.3-0.3
							c1.8-0.4,2.8-1.7,4.1-2.7c1.4-1.1,2.1-2.5,2.4-4.2c0.1-0.5,0.3-0.6,0.8-0.6c0.5,0,1,0.3,1.1,0.7c0.2,0.9,0.3,1.9,0.2,2.8
							c-0.1,0.8-0.6,1.4-0.9,2.2c-0.2,0.5-0.5,1-0.8,1.6c0.1,0.1,0.3,0.1,0.4,0.2c1.7,0.5,3.4,0.9,5.1,1.4c0.7,0.2,1,0.5,1,1
							c0,0.6-0.5,1.1-1.1,1.3c-0.1,0-0.4-0.1-0.4,0.1c-0.1,0.2,0.2,0.2,0.3,0.4c0.5,0.6,0.2,1.4-0.7,1.7c-0.2,0.1-0.5-0.1-0.6,0.2
							c-0.1,0.2,0.3,0.3,0.4,0.5c0.4,0.6-0.1,1.5-1,1.6c-0.1,0-0.2,0-0.3,0c-0.1,0-0.2,0.1-0.1,0.2c0.6,0.7,0.4,1.4-0.5,1.8
							c-0.1,0-0.2,0.1-0.3,0.1c-0.3,0.1-0.6,0-1,0c-2.7-0.7-5.3-1.4-8-2.1C29.1,141.8,28.8,141.8,28.7,141.5z"/>
						<path class="st31" d="M22,136c0.3-1.3,0.7-2.5,1-3.8c0.1-0.3,0.1-0.4,0.4-0.3c1.6,0.4,3.1,0.8,4.7,1.2
							c0.3,0.1,0.3,0.2,0.3,0.5c-0.7,2.5-1.4,5.1-2.1,7.6c-0.1,0.3-0.2,0.4-0.5,0.3c-1.5-0.4-3-0.8-4.6-1.2
							c-0.4-0.1-0.4-0.2-0.3-0.6C21.4,138.5,21.7,137.3,22,136z"/>
					</g>
				</g>
			</g>
			<g>
				<g id="xsrjP0_5_">
					<g>
						<path class="st30" d="M86.3,53c-0.3-0.4-0.6-0.8-1.1-0.9c-0.2,0-0.1-0.2-0.1-0.3c0.5-2,1.1-4,1.6-6c0-0.1,0.1-0.3,0.3-0.3
							c1.8-0.4,2.8-1.7,4.1-2.7c1.4-1.1,2.1-2.5,2.4-4.2c0.1-0.5,0.3-0.6,0.8-0.6c0.5,0,1,0.3,1.1,0.7c0.2,0.9,0.3,1.9,0.2,2.8
							c-0.1,0.8-0.6,1.4-0.9,2.2c-0.2,0.5-0.5,1-0.8,1.6c0.1,0.1,0.3,0.1,0.4,0.2c1.7,0.5,3.4,0.9,5.1,1.4c0.7,0.2,1,0.5,1,1
							c0,0.6-0.5,1.1-1.1,1.3c-0.1,0-0.4-0.1-0.4,0.1c-0.1,0.2,0.2,0.2,0.3,0.4c0.5,0.6,0.2,1.4-0.7,1.7c-0.2,0.1-0.5-0.1-0.6,0.2
							c-0.1,0.2,0.3,0.3,0.4,0.5c0.4,0.6-0.1,1.5-1,1.6c-0.1,0-0.2,0-0.3,0c-0.1,0-0.2,0.1-0.1,0.2c0.6,0.7,0.4,1.4-0.5,1.8
							c-0.1,0-0.2,0.1-0.3,0.1c-0.3,0.1-0.6,0-1,0c-2.7-0.7-5.3-1.4-8-2.1C86.7,53.3,86.4,53.2,86.3,53z"/>
						<path class="st31" d="M79.6,47.4c0.3-1.3,0.7-2.5,1-3.8c0.1-0.3,0.1-0.4,0.4-0.3c1.6,0.4,3.1,0.8,4.7,1.2
							c0.3,0.1,0.3,0.2,0.3,0.5c-0.7,2.5-1.4,5.1-2.1,7.6c-0.1,0.3-0.2,0.4-0.5,0.3c-1.5-0.4-3-0.8-4.6-1.2
							c-0.4-0.1-0.4-0.2-0.3-0.6C78.9,50,79.3,48.7,79.6,47.4z"/>
					</g>
				</g>
			</g>
			<g>
				<g id="xsrjP0_4_">
					<g>
						<path class="st30" d="M52.6,189.6c-0.5-0.3-1-0.7-1.7-0.6c-0.3,0-0.2-0.2-0.2-0.3c-0.2-2.6-0.3-5.2-0.5-7.9
							c0-0.2,0-0.3,0.2-0.5c2-1.1,2.7-3.2,3.9-4.9c1.2-1.9,1.6-3.9,1.1-6c-0.1-0.6,0.1-0.9,0.7-1c0.6-0.2,1.3,0,1.5,0.4
							c0.6,1.1,1.1,2.2,1.4,3.4c0.2,1-0.1,2-0.2,3c-0.1,0.7-0.2,1.4-0.3,2.2c0.2,0.1,0.4,0,0.6,0c2.2-0.1,4.5-0.3,6.7-0.4
							c0.9-0.1,1.4,0.2,1.6,0.8c0.2,0.8-0.2,1.6-0.9,2c-0.2,0.1-0.5,0-0.5,0.3c0,0.3,0.3,0.2,0.5,0.3c0.8,0.5,0.8,1.6-0.1,2.4
							c-0.2,0.2-0.7,0.1-0.7,0.4c0,0.3,0.4,0.2,0.6,0.4c0.7,0.6,0.4,1.8-0.5,2.4c-0.1,0.1-0.3,0.1-0.4,0.2c-0.1,0.1-0.2,0.2,0,0.3
							c1,0.6,1.1,1.6,0.1,2.3c-0.1,0.1-0.2,0.1-0.3,0.2c-0.3,0.3-0.8,0.3-1.2,0.3c-3.5,0.2-7.1,0.4-10.6,0.6
							C53.2,189.9,52.9,189.9,52.6,189.6z"/>
						<path class="st31" d="M42.3,185.6c-0.1-1.7-0.2-3.3-0.3-5c0-0.3,0-0.5,0.4-0.5c2.1-0.1,4.1-0.2,6.2-0.4c0.4,0,0.5,0.1,0.5,0.5
							c0.2,3.3,0.4,6.7,0.6,10c0,0.4-0.1,0.6-0.5,0.6c-2,0.1-4,0.2-6,0.3c-0.5,0-0.6-0.1-0.6-0.6C42.5,188.9,42.4,187.2,42.3,185.6z
							"/>
					</g>
				</g>
			</g>
			<g>
				<g id="xsrjP0_6_">
					<g>
						<path class="st30" d="M94.1,210.9c-0.5-0.3-1-0.7-1.7-0.6c-0.3,0-0.2-0.2-0.2-0.3c-0.2-2.6-0.3-5.2-0.5-7.9
							c0-0.2,0-0.3,0.2-0.5c2-1.1,2.7-3.2,3.9-4.9c1.2-1.9,1.6-3.9,1.1-6c-0.1-0.6,0.1-0.9,0.7-1c0.6-0.2,1.3,0,1.5,0.4
							c0.6,1.1,1.1,2.2,1.4,3.4c0.2,1-0.1,2-0.2,3c-0.1,0.7-0.2,1.4-0.3,2.2c0.2,0.1,0.4,0,0.6,0c2.2-0.1,4.5-0.3,6.7-0.4
							c0.9-0.1,1.4,0.2,1.6,0.8c0.2,0.8-0.2,1.6-0.9,2c-0.2,0.1-0.5,0-0.5,0.3c0,0.3,0.3,0.2,0.5,0.3c0.8,0.5,0.8,1.6-0.1,2.4
							c-0.2,0.2-0.7,0.1-0.7,0.4c0,0.3,0.4,0.2,0.6,0.4c0.7,0.6,0.4,1.8-0.5,2.4c-0.1,0.1-0.3,0.1-0.4,0.2c-0.1,0.1-0.2,0.2,0,0.3
							c1,0.6,1.1,1.6,0.1,2.3c-0.1,0.1-0.2,0.1-0.3,0.2c-0.3,0.3-0.8,0.3-1.2,0.3c-3.5,0.2-7.1,0.4-10.6,0.6
							C94.7,211.1,94.3,211.1,94.1,210.9z"/>
						<path class="st31" d="M83.8,206.8c-0.1-1.7-0.2-3.3-0.3-5c0-0.3,0-0.5,0.4-0.5c2.1-0.1,4.1-0.2,6.2-0.4c0.4,0,0.5,0.1,0.5,0.5
							c0.2,3.3,0.4,6.7,0.6,10c0,0.4-0.1,0.6-0.5,0.6c-2,0.1-4,0.2-6,0.3c-0.5,0-0.6-0.1-0.6-0.6C84,210.2,83.9,208.5,83.8,206.8z"
							/>
					</g>
				</g>
			</g>
			<g>
				<g id="xsrjP0_3_">
					<g>
						<path class="st30" d="M18.3,89.6c-0.3-0.2-0.5-0.4-0.9-0.4c-0.1,0-0.1-0.1-0.1-0.2c0-1.4,0-2.7,0-4.1c0-0.1,0-0.2,0.1-0.2
							c1.1-0.5,1.5-1.6,2.2-2.4c0.7-0.9,0.9-2,0.8-3.1c0-0.3,0.1-0.4,0.4-0.5c0.3-0.1,0.7,0,0.8,0.2c0.3,0.6,0.5,1.2,0.6,1.8
							c0.1,0.5-0.1,1-0.2,1.5c0,0.4-0.1,0.7-0.2,1.1c0.1,0.1,0.2,0,0.3,0c1.2,0,2.3,0,3.5,0c0.5,0,0.7,0.1,0.8,0.5
							c0.1,0.4-0.1,0.8-0.5,1c-0.1,0-0.2,0-0.3,0.1c0,0.1,0.2,0.1,0.2,0.2c0.4,0.3,0.3,0.9-0.1,1.2c-0.1,0.1-0.3,0-0.4,0.2
							c0,0.1,0.2,0.1,0.3,0.2c0.3,0.3,0.2,1-0.3,1.2c-0.1,0-0.1,0-0.2,0.1c-0.1,0-0.1,0.1,0,0.2c0.5,0.4,0.5,0.9,0,1.2
							c-0.1,0-0.1,0.1-0.2,0.1c-0.2,0.1-0.4,0.1-0.6,0.1c-1.8,0-3.7,0-5.5,0C18.6,89.7,18.4,89.7,18.3,89.6z"/>
						<path class="st31" d="M13.1,87.2c0-0.9,0-1.7,0-2.6c0-0.2,0-0.3,0.2-0.3c1.1,0,2.1,0,3.2,0c0.2,0,0.2,0.1,0.2,0.3
							c0,1.7,0,3.5,0,5.2c0,0.2-0.1,0.3-0.3,0.3c-1,0-2.1,0-3.1,0c-0.3,0-0.3-0.1-0.3-0.3C13.1,88.9,13.1,88,13.1,87.2z"/>
					</g>
				</g>
			</g>
			<g>
				<ellipse class="st25" cx="70.4" cy="152.3" rx="12.7" ry="12.5"/>
				<path class="st22" d="M79.3,153.4c0,2.1-0.7,4-2,5.5c-1.6,2-4.1,3.2-6.9,3.2c-2.8,0-5.3-1.3-6.9-3.2c-1.3-1.5-2-3.4-2-5.5H79.3z
					"/>
				<path class="st16" d="M77.3,158.9c-1.6,2-4.1,3.2-6.9,3.2c-2.8,0-5.3-1.3-6.9-3.2c1.6-2,4.1-3.2,6.9-3.2
					C73.2,155.7,75.7,157,77.3,158.9z"/>
				<path class="st22" d="M67.8,149.8C67.8,149.9,67.8,149.9,67.8,149.8c0,0.2-0.1,0.4-0.3,0.5c0,0-0.1,0-0.1,0l-0.1,0l-5.2,1.4
					c-0.7,0.2-1-0.9-0.3-1.1l3.9-1l-3.6-2c-0.6-0.4-0.1-1.3,0.6-0.9l4.6,2.6c0.1,0,0.2,0.1,0.2,0.1c0,0,0,0,0,0
					C67.8,149.6,67.8,149.7,67.8,149.8z"/>
				<path class="st22" d="M73,149.8C73,149.9,73,149.9,73,149.8c0,0.2,0.1,0.4,0.3,0.5c0,0,0.1,0,0.1,0l0.1,0l5.2,1.4
					c0.7,0.2,1-0.9,0.3-1.1l-3.9-1l3.6-2c0.6-0.4,0.1-1.3-0.6-0.9l-4.6,2.6c-0.1,0-0.2,0.1-0.2,0.1c0,0,0,0,0,0
					C73,149.6,73,149.7,73,149.8z"/>
			</g>
			<g>
				<path class="st25" d="M44.4,109.6c-1.4,4.5-6.2,7.1-10.8,5.8c-4.6-1.3-7.3-6.1-5.9-10.6c1.4-4.5,6.2-7.1,10.8-5.8
					C43.1,100.3,45.7,105,44.4,109.6z"/>
				<path class="st22" d="M41.7,109.5c-0.4,1.4-1.3,2.5-2.4,3.3c-1.5,1-3.3,1.3-5.2,0.8c-1.8-0.5-3.2-1.8-3.9-3.4
					c-0.5-1.2-0.6-2.6-0.2-4L41.7,109.5z"/>
				<path class="st16" d="M39.3,112.8c-1.5,1-3.3,1.3-5.2,0.8c-1.8-0.5-3.2-1.8-3.9-3.4c1.5-1,3.3-1.4,5.2-0.8
					C37.2,109.9,38.6,111.2,39.3,112.8z"/>
				<path class="st22" d="M34.8,105C34.8,105,34.8,105.1,34.8,105c-0.1,0.2-0.2,0.2-0.3,0.3c0,0,0,0-0.1,0l-0.1,0l-3.7-0.1
					c-0.5,0-0.5-0.8,0-0.8l2.8,0.1l-1.9-2c-0.3-0.3,0.2-0.9,0.6-0.5l2.5,2.6c0.1,0,0.1,0.1,0.1,0.1c0,0,0,0,0,0
					C34.8,104.9,34.8,104.9,34.8,105z"/>
				<path class="st22" d="M38.2,106C38.2,106,38.2,106,38.2,106c0,0.2,0,0.3,0.1,0.4c0,0,0,0,0,0l0.1,0l3.1,1.9
					c0.4,0.3,0.8-0.4,0.4-0.6l-2.4-1.4l2.7-0.7c0.5-0.1,0.3-0.8-0.2-0.7l-3.6,0.8c-0.1,0-0.1,0-0.2,0.1c0,0,0,0,0,0
					C38.3,105.8,38.2,105.9,38.2,106z"/>
			</g>
			<g>
				<path class="st25" d="M121.9,29.4c0.6,4.7-2.8,9-7.5,9.6c-4.8,0.6-9.1-2.7-9.7-7.4c-0.6-4.7,2.8-9,7.5-9.6
					C117,21.4,121.3,24.8,121.9,29.4z"/>
				<path class="st22" d="M119.4,30.5c0.2,1.4-0.2,2.8-0.9,3.9c-0.9,1.5-2.5,2.6-4.4,2.8c-1.9,0.2-3.7-0.4-5-1.6
					c-1-0.9-1.7-2.2-1.8-3.6L119.4,30.5z"/>
				<path class="st16" d="M118.6,34.4c-0.9,1.5-2.5,2.6-4.4,2.8c-1.9,0.2-3.7-0.4-5-1.6c0.9-1.5,2.5-2.6,4.4-2.8
					C115.5,32.6,117.3,33.2,118.6,34.4z"/>
				<path class="st22" d="M111.3,29C111.3,29.1,111.3,29.1,111.3,29c0,0.2,0,0.3-0.2,0.4c0,0,0,0-0.1,0l-0.1,0l-3.4,1.4
					c-0.5,0.2-0.7-0.5-0.3-0.7l2.6-1l-2.6-1.1c-0.5-0.2-0.2-0.9,0.3-0.7l3.4,1.4c0.1,0,0.1,0,0.2,0.1c0,0,0,0,0,0
					C111.3,28.9,111.3,29,111.3,29z"/>
				<path class="st22" d="M114.8,28.6C114.8,28.6,114.8,28.6,114.8,28.6c0,0.2,0.1,0.3,0.3,0.3c0,0,0,0,0.1,0l0.1,0l3.6,0.5
					c0.5,0.1,0.6-0.7,0.1-0.7l-2.8-0.4l2.2-1.7c0.4-0.3-0.1-0.9-0.5-0.6l-2.9,2.2c-0.1,0-0.1,0.1-0.1,0.1c0,0,0,0,0,0
					C114.8,28.4,114.8,28.5,114.8,28.6z"/>
			</g>
			<g>
				<path class="st25" d="M66.8,71c0.5,3.2-1.7,6.2-5,6.7c-3.3,0.5-6.3-1.7-6.8-4.9c-0.5-3.2,1.7-6.2,5-6.7
					C63.3,65.6,66.3,67.8,66.8,71z"/>
				<path class="st22" d="M65.1,71.8c0.2,1-0.1,1.9-0.5,2.7c-0.6,1-1.7,1.8-3,2c-1.3,0.2-2.6-0.2-3.5-1C57.5,74.9,57,74,56.8,73
					L65.1,71.8z"/>
				<path class="st16" d="M64.6,74.5c-0.6,1-1.7,1.8-3,2c-1.3,0.2-2.6-0.2-3.5-1c0.6-1,1.7-1.8,3-2C62.4,73.3,63.7,73.7,64.6,74.5z"
					/>
				<path class="st22" d="M59.5,70.9C59.5,70.9,59.5,71,59.5,70.9c0,0.1,0,0.2-0.1,0.2c0,0,0,0,0,0l0,0l-2.3,1
					c-0.3,0.1-0.5-0.3-0.2-0.5l1.8-0.8l-1.8-0.7c-0.3-0.1-0.1-0.6,0.2-0.5l2.3,0.9c0,0,0.1,0,0.1,0.1c0,0,0,0,0,0
					C59.5,70.8,59.5,70.9,59.5,70.9z"/>
				<path class="st22" d="M61.9,70.6C61.9,70.6,61.9,70.6,61.9,70.6c0,0.1,0.1,0.2,0.2,0.2c0,0,0,0,0,0l0.1,0l2.5,0.3
					c0.3,0,0.4-0.5,0.1-0.5l-1.9-0.2l1.5-1.2c0.3-0.2-0.1-0.6-0.3-0.4l-2,1.5c0,0-0.1,0.1-0.1,0.1c0,0,0,0,0,0
					C61.9,70.4,61.9,70.5,61.9,70.6z"/>
			</g>
		</g>
	</g>
</g>
<g id="DESIGNED_BY_FREEPIK">
</g>
</svg>
